# WaveFront *.obj file (generated by CINEMA 4D)

v -8.25 -9 8.25
v 8.25 -9 8.25
v 8.25 -9 -8.25
v -8.25 -9 -8.25
v -8.25 -8.25 9
v 8.25 -8.25 9
v 9 -8.25 8.25
v 9 -8.25 -8.25
v 8.25 -8.25 -9
v -8.25 -8.25 -9
v -9 -8.25 -8.25
v -9 -8.25 8.25
v -8.25 8.25 9
v 8.25 8.25 9
v 9 8.25 8.25
v 9 8.25 -8.25
v 8.25 8.25 -9
v -8.25 8.25 -9
v -9 8.25 -8.25
v -9 8.25 8.25
v -8.25 9 8.25
v 8.25 9 8.25
v 8.25 9 -8.25
v -8.25 9 -8.25
# 24 vertices

vn -0.4765103161335 -0.73883414268494 0.4765103161335
vn -0.47651028633118 -0.4765103161335 0.73883414268494
vn 0.4765103161335 -0.4765103161335 0.73883414268494
vn 0.4765103161335 -0.73883414268494 0.4765103161335
vn -0.73883414268494 0.4765103161335 0.4765103161335
vn -0.47651028633118 0.73883408308029 0.47651034593582
vn -0.47651028633118 0.47651034593582 0.73883408308029
vn 0 0 0
vn 0.4765103161335 0.73883414268494 0.4765103161335
vn 0.4765103161335 0.4765103161335 0.73883414268494
vn 0.73883414268494 -0.4765103161335 0.4765103161335
vn 0.73883414268494 0.4765103161335 0.4765103161335
vn 0.73883414268494 -0.4765103161335 -0.4765103161335
vn 0.4765103161335 -0.73883414268494 -0.4765103161335
vn 0 -1 0
vn 0.4765103161335 0.73883414268494 -0.4765103161335
vn 0.73883414268494 0.4765103161335 -0.4765103161335
vn 0.4765103161335 -0.4765103161335 -0.73883414268494
vn 0.4765103161335 0.4765103161335 -0.73883414268494
vn -0.4765103161335 -0.4765103161335 -0.73883414268494
vn -0.4765103161335 -0.73883414268494 -0.4765103161335
vn 0 0 -1
vn -0.47651028633118 0.73883408308029 -0.47651034593582
vn -0.4765103161335 0.4765103161335 -0.73883414268494
vn -0.73883414268494 -0.4765103161335 -0.4765103161335
vn -0.73883408308029 0.47651028633118 -0.47651034593582
vn -0.73883414268494 -0.4765103161335 0.47651028633118
vn -1 0 0
# 28 normals

o corner
usemtl default
f 2//4 6//3 5//2 1//1
f 13//7 21//6 20//5
f 14//10 22//9 21//6 13//7
f 7//11 6//3 2//4
f 7//11 15//12 14//10 6//3
f 15//12 22//9 14//10
f 3//14 8//13 7//11 2//4
f 4//15 3//15 2//15 1//15
f 16//17 23//16 22//9 15//12
f 9//18 8//13 3//14
f 9//18 17//19 16//17 8//13
f 17//19 23//16 16//17
f 4//21 10//20 9//18 3//14
f 10//22 18//22 17//22 9//22
f 18//24 24//23 23//16 17//19
f 11//25 10//20 4//21
f 11//25 19//26 18//24 10//20
f 19//26 24//23 18//24
f 1//1 12//27 11//25 4//21
f 12//28 20//28 19//28 11//28
f 20//5 21//6 24//23 19//26
f 5//2 12//27 1//1
f 5//2 13//7 20//5 12//27

