# WaveFront *.obj file (generated by CINEMA 4D)

v -13.5 -13.5 4.5
v -13.5 -4.5 4.5
v -4.5 -13.5 4.5
v -4.5 -13.5 -4.5
v -13.5 -13.5 -4.5
v -13.5 -4.5 -4.5
v -4.5 -9 4.5
v -9 -4.5 4.5
v -4.5 -9 -4.5
v -9 -4.5 -4.5
v -8.5 -8.8660249710083 4.5
v -9 -8 4.5
v -8 -9 4.5
v -8.8660249710083 -8.5 4.5
v -8.5 -8.8660249710083 -4.5
v -9 -8 -4.5
v -8 -9 -4.5
v -8.8660249710083 -8.5 -4.5
v -8 -9 8
v 8 -9 8
v 8 -9 -8
v -8 -9 -8
v -8 -8.8660249710083 8.5
v 8 -8.8660249710083 8.5
v 8.25 -8.8660249710083 8.43301296234131
v 8.43301296234131 -8.8660249710083 8.25
v 8.5 -8.8660249710083 8
v 8.5 -8.8660249710083 -8
v 8.43301296234131 -8.8660249710083 -8.25
v 8.25 -8.8660249710083 -8.43301296234131
v 8 -8.8660249710083 -8.5
v -8 -8.8660249710083 -8.5
v -8.25 -8.8660249710083 -8.43301296234131
v -8.43301296234131 -8.8660249710083 -8.25
v -8.5 -8.8660249710083 -8
v -8.5 -8.8660249710083 8
v -8.43301296234131 -8.8660249710083 8.25
v -8.25 -8.8660249710083 8.43301296234131
v -8 -8.5 8.8660249710083
v 8 -8.5 8.8660249710083
v 8.43301296234131 -8.5 8.75
v 8.75 -8.5 8.43301296234131
v 8.8660249710083 -8.5 8
v 8.8660249710083 -8.5 -8
v 8.75 -8.5 -8.43301296234131
v 8.43301296234131 -8.5 -8.75
v 8 -8.5 -8.8660249710083
v -8 -8.5 -8.8660249710083
v -8.43301296234131 -8.5 -8.75
v -8.75 -8.5 -8.43301296234131
v -8.8660249710083 -8.5 -8
v -8.8660249710083 -8.5 8
v -8.75 -8.5 8.43301296234131
v -8.43301296234131 -8.5 8.75
v -8 -8 9
v 8 -8 9
v 8.5 -8 8.8660249710083
v 8.8660249710083 -8 8.5
v 9 -8 8
v 9 -8 -8
v 8.8660249710083 -8 -8.5
v 8.5 -8 -8.8660249710083
v 8 -8 -9
v -8 -8 -9
v -8.5 -8 -8.8660249710083
v -8.8660249710083 -8 -8.5
v -9 -8 -8
v -9 -8 8
v -8.8660249710083 -8 8.5
v -8.5 -8 8.8660249710083
v -8 8 9
v 8 8 9
v 8.5 8 8.8660249710083
v 8.8660249710083 8 8.5
v 9 8 8
v 9 8 -8
v 8.8660249710083 8 -8.5
v 8.5 8 -8.8660249710083
v 8 8 -9
v -8 8 -9
v -8.5 8 -8.8660249710083
v -8.8660249710083 8 -8.5
v -9 8 -8
v -9 8 8
v -8.8660249710083 8 8.5
v -8.5 8 8.8660249710083
v -8 8.5 8.8660249710083
v 8 8.5 8.8660249710083
v 8.43301296234131 8.5 8.75
v 8.75 8.5 8.43301296234131
v 8.8660249710083 8.5 8
v 8.8660249710083 8.5 -8
v 8.75 8.5 -8.43301296234131
v 8.43301296234131 8.5 -8.75
v 8 8.5 -8.8660249710083
v -8 8.5 -8.8660249710083
v -8.43301296234131 8.5 -8.75
v -8.75 8.5 -8.43301296234131
v -8.8660249710083 8.5 -8
v -8.8660249710083 8.5 8
v -8.75 8.5 8.43301296234131
v -8.43301296234131 8.5 8.75
v -8 8.8660249710083 8.5
v 8 8.8660249710083 8.5
v 8.25 8.8660249710083 8.43301296234131
v 8.43301296234131 8.8660249710083 8.25
v 8.5 8.8660249710083 8
v 8.5 8.8660249710083 -8
v 8.43301296234131 8.8660249710083 -8.25
v 8.25 8.8660249710083 -8.43301296234131
v 8 8.8660249710083 -8.5
v -8 8.8660249710083 -8.5
v -8.25 8.8660249710083 -8.43301296234131
v -8.43301296234131 8.8660249710083 -8.25
v -8.5 8.8660249710083 -8
v -8.5 8.8660249710083 8
v -8.43301296234131 8.8660249710083 8.25
v -8.25 8.8660249710083 8.43301296234131
v -8 9 8
v 8 9 8
v 8 9 -8
v -8 9 -8
v -8 -9 4.5
v -8.5 -8.8660249710083 -4.5
v -9 -4.5 -4.5
v -4.5 -9 -4.5
# 126 vertices

vn 0 0 1
vn 0 0 0
vn -0 -0 1
vn -0 -0 1
vn -0 -0 1
vn 1 0 0
vn 0 0 -1
vn -0 0 -1
vn -0 0 -1
vn -0 0 -1
vn -1 0 0
vn 0 1 0
vn 0 -1 0
vn -0.11218424886465 -0.98733448982239 0.11218425631523
vn -0.06627105176449 -0.86462783813477 0.49802297353745
vn 0.06627104431391 -0.86462783813477 0.49802297353745
vn 0.09813941270113 -0.99032181501389 0.09813941270113
vn -0.11370181292295 -0.49759867787361 0.85992294549942
vn 0.11370180547237 -0.49759867787361 0.85992294549942
vn -0.12949854135513 -0.12949854135513 0.98308712244034
vn 0.12949854135513 -0.12949854135513 0.98308712244034
vn -0.12949854135513 0.12949854135513 0.98308712244034
vn 0.12949854135513 0.12949854135513 0.98308712244034
vn -0.11370179802179 0.49759864807129 0.85992294549942
vn 0.11370180547237 0.49759867787361 0.85992294549942
vn -0.06627103686333 0.86462783813477 0.49802297353745
vn 0.06627104431391 0.86462783813477 0.49802297353745
vn -0.15674467384815 0.9751216173172 0.15674467384815
vn 0.15674468874931 0.9751216173172 0.15674468874931
vn 0.24911548197269 -0.8670442700386 0.43148076534271
vn 0.43251648545265 -0.50171452760696 0.74914085865021
vn 0.49571266770363 -0.13067276775837 0.85859978199005
vn 0.49571269750595 0.13067278265953 0.85859972238541
vn 0.4325165450573 0.50171452760696 0.74914085865021
vn 0.24911549687386 0.8670442700386 0.43148076534271
vn 0.43148076534271 -0.8670442700386 0.24911549687386
vn 0.74914085865021 -0.50171446800232 0.4325165450573
vn 0.85859978199005 -0.13067278265953 0.49571269750595
vn 0.85859978199005 0.13067278265953 0.49571269750595
vn 0.74914085865021 0.50171452760696 0.43251651525497
vn 0.43148076534271 0.8670442700386 0.24911546707153
vn 0.49802297353745 -0.86462783813477 0.06627105176449
vn 0.85992294549942 -0.49759861826897 0.11370180547237
vn 0.9698526263237 -0.1723163574934 0.1723163574934
vn 0.9698526263237 0.17231637239456 0.17231637239456
vn 0.85992294549942 0.49759864807129 0.11370179802179
vn 0.49802297353745 0.86462783813477 0.06627103686333
vn 0.49802297353745 -0.86462783813477 -0.06627104431391
vn 0.11218426376581 -0.98733448982239 -0.11218426376581
vn 0.85992294549942 -0.49759867787361 -0.11370181292295
vn 0.9698526263237 -0.17231637239456 -0.17231637239456
vn -0.11218424886465 -0.98733448982239 -0.11218425631523
vn 0.85992294549942 0.49759864807129 -0.11370180547237
vn 0.9698526263237 0.17231637239456 -0.17231637239456
vn 0.49802297353745 0.86462783813477 -0.06627104431391
vn 0.15674468874931 0.9751216173172 -0.15674468874931
vn 0.43148076534271 -0.8670442700386 -0.24911548197269
vn 0.74914085865021 -0.50171452760696 -0.43251651525497
vn 0.85859978199005 -0.13067276775837 -0.49571266770363
vn 0.85859978199005 0.13067278265953 -0.49571269750595
vn 0.74914085865021 0.50171452760696 -0.4325165450573
vn 0.43148076534271 0.8670442700386 -0.24911549687386
vn 0.24911549687386 -0.8670442700386 -0.43148076534271
vn 0.4325165450573 -0.50171446800232 -0.74914085865021
vn 0.49571269750595 -0.13067278265953 -0.85859978199005
vn 0.49571269750595 0.13067276775837 -0.85859978199005
vn 0.43251651525497 0.50171452760696 -0.74914085865021
vn 0.24911546707153 0.8670442700386 -0.43148076534271
vn 0.06627105176449 -0.86462783813477 -0.49802297353745
vn 0.11370181292295 -0.49759864807129 -0.85992294549942
vn 0.12949854135513 -0.12949854135513 -0.98308712244034
vn 0.12949854135513 0.12949854135513 -0.98308712244034
vn 0.11370179802179 0.49759867787361 -0.85992294549942
vn 0.06627103686333 0.86462783813477 -0.49802297353745
vn -0.06627104431391 -0.86462783813477 -0.49802297353745
vn -0.11370180547237 -0.49759867787361 -0.85992294549942
vn -0.12949854135513 -0.12949854135513 -0.98308712244034
vn -0.12949854135513 0.12949854135513 -0.98308712244034
vn -0.11370180547237 0.49759867787361 -0.85992294549942
vn -0.06627104431391 0.86462783813477 -0.49802297353745
vn -0.15674468874931 0.9751216173172 -0.15674468874931
vn -0.24911548197269 -0.8670442700386 -0.43148076534271
vn -0.43251648545265 -0.50171452760696 -0.74914085865021
vn -0.49571266770363 -0.13067276775837 -0.85859978199005
vn -0.49571269750595 0.13067278265953 -0.85859972238541
vn -0.4325165450573 0.50171452760696 -0.74914085865021
vn -0.24911549687386 0.8670442700386 -0.43148076534271
vn -0.43148076534271 -0.8670442700386 -0.24911549687386
vn -0.74914085865021 -0.50171446800232 -0.4325165450573
vn -0.85859978199005 -0.13067278265953 -0.49571269750595
vn -0.85859978199005 0.13067278265953 -0.49571269750595
vn -0.74914085865021 0.50171452760696 -0.43251651525497
vn -0.43148076534271 0.8670442700386 -0.24911546707153
vn -0.49802297353745 -0.86462783813477 -0.06627105176449
vn -0.85992294549942 -0.49759861826897 -0.11370180547237
vn -0.98922282457352 -0.10353305190802 -0.1035330593586
vn -0.98922282457352 0.10353306680918 -0.10353306680918
vn -0.85992294549942 0.49759864807129 -0.11370179802179
vn -0.49802297353745 0.86462783813477 -0.06627103686333
vn -0.49999991059303 -0.86602544784546 0
vn -0.49802297353745 -0.86462783813477 0.06627104431391
vn -0.13052609562874 -0.99144488573074 0
vn -0.86602544784546 -0.49999991059303 0
vn -0.85992294549942 -0.49759867787361 0.11370181292295
vn -0.99144488573074 -0.13052609562874 0
vn -0.98922282457352 -0.1035330593586 0.10353307425976
vn -0.99254614114761 0.08617481589317 0.08617481589317
vn -0.85992294549942 0.49759864807129 0.11370180547237
vn -0.49802297353745 0.86462783813477 0.06627104431391
vn -0.43148076534271 -0.8670442700386 0.24911548197269
vn -0.74914085865021 -0.50171452760696 0.43251651525497
vn -0.85859978199005 -0.13067276775837 0.49571266770363
vn -0.85859978199005 0.13067278265953 0.49571269750595
vn -0.74914085865021 0.50171452760696 0.4325165450573
vn -0.43148076534271 0.8670442700386 0.24911549687386
vn -0.24911549687386 -0.8670442700386 0.43148076534271
vn -0.4325165450573 -0.50171446800232 0.74914085865021
vn -0.49571269750595 -0.13067278265953 0.85859978199005
vn -0.49571269750595 0.13067276775837 0.85859978199005
vn -0.43251651525497 0.50171452760696 0.74914085865021
vn -0.24911546707153 0.8670442700386 0.43148076534271
# 121 normals

o edge
usemtl default
f 3//1 7//1 13//1
f 1//3 3//1 13//1
f 12//4 2//1 1//3
f 11//1 14//5 1//3
f 12//4 8//1 2//1
f 7//6 3//6 4//6 9//6
f 16//7 6//7 10//7
f 5//8 6//7 16//7
f 17//9 4//7 5//8
f 18//7 15//10 5//8
f 17//9 9//7 4//7
f 1//11 2//11 6//11 5//11
f 10//12 6//12 2//12 8//12
f 4//13 3//13 1//13 5//13
f 20//17 24//16 23//15 19//14
f 24//16 40//19 39//18 23//15
f 40//19 56//21 55//20 39//18
f 56//21 72//23 71//22 55//20
f 72//23 88//25 87//24 71//22
f 88//25 104//27 103//26 87//24
f 104//27 120//29 119//28 103//26
f 25//30 24//16 20//17
f 25//30 41//31 40//19 24//16
f 41//31 57//32 56//21 40//19
f 57//32 73//33 72//23 56//21
f 73//33 89//34 88//25 72//23
f 89//34 105//35 104//27 88//25
f 105//35 120//29 104//27
f 26//36 25//30 20//17
f 26//36 42//37 41//31 25//30
f 42//37 58//38 57//32 41//31
f 58//38 74//39 73//33 57//32
f 74//39 90//40 89//34 73//33
f 90//40 106//41 105//35 89//34
f 106//41 120//29 105//35
f 27//42 26//36 20//17
f 27//42 43//43 42//37 26//36
f 43//43 59//44 58//38 42//37
f 59//44 75//45 74//39 58//38
f 75//45 91//46 90//40 74//39
f 91//46 107//47 106//41 90//40
f 107//47 120//29 106//41
f 21//49 28//48 27//42 20//17
f 28//48 44//50 43//43 27//42
f 44//50 60//51 59//44 43//43
f 22//52 21//49 126//13
f 76//54 92//53 91//46 75//45
f 92//53 108//55 107//47 91//46
f 108//55 121//56 120//29 107//47
f 29//57 28//48 21//49
f 29//57 45//58 44//50 28//48
f 45//58 61//59 60//51 44//50
f 61//59 77//60 76//54 60//51
f 77//60 93//61 92//53 76//54
f 93//61 109//62 108//55 92//53
f 109//62 121//56 108//55
f 30//63 29//57 21//49
f 30//63 46//64 45//58 29//57
f 46//64 62//65 61//59 45//58
f 62//65 78//66 77//60 61//59
f 78//66 94//67 93//61 77//60
f 94//67 110//68 109//62 93//61
f 110//68 121//56 109//62
f 31//69 30//63 21//49
f 31//69 47//70 46//64 30//63
f 47//70 63//71 62//65 46//64
f 63//71 79//72 78//66 62//65
f 79//72 95//73 94//67 78//66
f 95//73 111//74 110//68 94//67
f 111//74 121//56 110//68
f 22//52 32//75 31//69 21//49
f 32//75 48//76 47//70 31//69
f 48//76 64//77 63//71 47//70
f 64//77 80//78 79//72 63//71
f 80//78 96//79 95//73 79//72
f 96//79 112//80 111//74 95//73
f 112//80 122//81 121//56 111//74
f 33//82 32//75 22//52
f 33//82 49//83 48//76 32//75
f 49//83 65//84 64//77 48//76
f 65//84 81//85 80//78 64//77
f 81//85 97//86 96//79 80//78
f 97//86 113//87 112//80 96//79
f 113//87 122//81 112//80
f 34//88 33//82 22//52
f 34//88 50//89 49//83 33//82
f 50//89 66//90 65//84 49//83
f 66//90 82//91 81//85 65//84
f 82//91 98//92 97//86 81//85
f 98//92 114//93 113//87 97//86
f 114//93 122//81 113//87
f 35//94 34//88 22//52
f 35//94 51//95 50//89 34//88
f 51//95 67//96 66//90 50//89
f 67//96 83//97 82//91 66//90
f 83//97 99//98 98//92 82//91
f 99//98 115//99 114//93 98//92
f 115//99 122//81 114//93
f 123//102 19//14 36//101 11//100
f 124//100 35//94 22//52 17//102
f 11//100 36//101 52//104 14//103
f 18//103 51//95 35//94 124//100
f 14//103 52//104 68//106 12//105
f 16//105 67//96 51//95 18//103
f 125//11 8//11 84//107
f 68//106 84//107 8//11
f 67//96 16//105 125//11
f 84//107 100//108 99//98 83//97
f 100//108 116//109 115//99 99//98
f 116//109 119//28 122//81 115//99
f 37//110 36//101 19//14
f 37//110 53//111 52//104 36//101
f 53//111 69//112 68//106 52//104
f 69//112 85//113 84//107 68//106
f 85//113 101//114 100//108 84//107
f 101//114 117//115 116//109 100//108
f 117//115 119//28 116//109
f 38//116 37//110 19//14
f 38//116 54//117 53//111 37//110
f 54//117 70//118 69//112 53//111
f 70//118 86//119 85//113 69//112
f 86//119 102//120 101//114 85//113
f 102//120 118//121 117//115 101//114
f 118//121 119//28 117//115
f 23//15 38//116 19//14
f 23//15 39//18 54//117 38//116
f 39//18 55//20 70//118 54//117
f 55//20 71//22 86//119 70//118
f 71//22 87//24 102//120 86//119
f 87//24 103//26 118//121 102//120
f 103//26 119//28 118//121
f 19//14 123//102 7//13
f 126//13 21//49 20//17
f 83//97 125//11 84//107
f 12//105 68//106 8//11
f 83//97 67//96 125//11
f 17//102 22//52 126//13
f 20//17 19//14 7//13
f 7//13 126//13 20//17
f 11//1 1//3 13//1
f 14//5 12//4 1//3
f 18//7 5//8 16//7
f 15//10 17//9 5//8

