# WaveFront *.obj file (generated by CINEMA 4D)

v -0.10000012814999 -9 8
v 7.89999961853027 -9 8
v 7.89999961853027 -9 -8
v -0.10000012814999 -9 -8
v -0.10000012814999 -8.8660249710083 8.5
v 7.89999961853027 -8.8660249710083 8.5
v 8.14999961853027 -8.8660249710083 8.43301296234131
v 8.33301258087158 -8.8660249710083 8.25
v 8.39999961853027 -8.8660249710083 8
v 8.39999961853027 -8.8660249710083 -8
v 8.33301258087158 -8.8660249710083 -8.25
v 8.14999961853027 -8.8660249710083 -8.43301296234131
v 7.89999961853027 -8.8660249710083 -8.5
v -0.10000012814999 -8.8660249710083 -8.5
v -0.35000014305115 -8.8660249710083 -8.43301296234131
v -0.53301280736923 -8.8660249710083 -8.25
v -0.60000014305115 -8.8660249710083 -8
v -0.60000014305115 -8.8660249710083 8
v -0.53301280736923 -8.8660249710083 8.25
v -0.35000014305115 -8.8660249710083 8.43301296234131
v -0.10000012814999 -8.5 8.8660249710083
v 7.89999961853027 -8.5 8.8660249710083
v 8.33301258087158 -8.5 8.75
v 8.64999961853027 -8.5 8.43301296234131
v 8.76602554321289 -8.5 8
v 8.76602554321289 -8.5 -8
v 8.64999961853027 -8.5 -8.43301296234131
v 8.33301258087158 -8.5 -8.75
v 7.89999961853027 -8.5 -8.8660249710083
v -0.10000012814999 -8.5 -8.8660249710083
v -0.53301280736923 -8.5 -8.75
v -0.85000014305115 -8.5 -8.43301296234131
v -0.96602553129196 -8.5 -8
v -0.96602553129196 -8.5 8
v -0.85000014305115 -8.5 8.43301296234131
v -0.53301280736923 -8.5 8.75
v -0.10000012814999 -8 9
v 7.89999961853027 -8 9
v 8.39999961853027 -8 8.8660249710083
v 8.76602554321289 -8 8.5
v 9 -8 8
v 9 -8 -8
v 8.76602554321289 -8 -8.5
v 8.39999961853027 -8 -8.8660249710083
v 7.89999961853027 -8 -9
v -0.10000012814999 -8 -9
v -0.60000014305115 -8 -8.8660249710083
v -0.96602553129196 -8 -8.5
v -1.10000014305115 -8 -8
v -1.10000014305115 -8 8
v -0.96602553129196 -8 8.5
v -0.60000014305115 -8 8.8660249710083
v -0.10000012814999 8 9
v 7.89999961853027 8 9
v 8.39999961853027 8 8.8660249710083
v 8.76602554321289 8 8.5
v 9 8 8
v 9 8 -8
v 8.76602554321289 8 -8.5
v 8.39999961853027 8 -8.8660249710083
v 7.89999961853027 8 -9
v -0.10000012814999 8 -9
v -0.60000014305115 8 -8.8660249710083
v -0.96602553129196 8 -8.5
v -1.10000014305115 8 -8
v -1.10000014305115 8 8
v -0.96602553129196 8 8.5
v -0.60000014305115 8 8.8660249710083
v -0.10000012814999 8.5 8.8660249710083
v 7.89999961853027 8.5 8.8660249710083
v 8.33301258087158 8.5 8.75
v 8.64999961853027 8.5 8.43301296234131
v 8.76602554321289 8.5 8
v 8.76602554321289 8.5 -8
v 8.64999961853027 8.5 -8.43301296234131
v 8.33301258087158 8.5 -8.75
v 7.89999961853027 8.5 -8.8660249710083
v -0.10000012814999 8.5 -8.8660249710083
v -0.53301280736923 8.5 -8.75
v -0.85000014305115 8.5 -8.43301296234131
v -0.96602553129196 8.5 -8
v -0.96602553129196 8.5 8
v -0.85000014305115 8.5 8.43301296234131
v -0.53301280736923 8.5 8.75
v -0.10000012814999 8.8660249710083 8.5
v 7.89999961853027 8.8660249710083 8.5
v 8.14999961853027 8.8660249710083 8.43301296234131
v 8.33301258087158 8.8660249710083 8.25
v 8.39999961853027 8.8660249710083 8
v 8.39999961853027 8.8660249710083 -8
v 8.33301258087158 8.8660249710083 -8.25
v 8.14999961853027 8.8660249710083 -8.43301296234131
v 7.89999961853027 8.8660249710083 -8.5
v -0.10000012814999 8.8660249710083 -8.5
v -0.35000014305115 8.8660249710083 -8.43301296234131
v -0.53301280736923 8.8660249710083 -8.25
v -0.60000014305115 8.8660249710083 -8
v -0.60000014305115 8.8660249710083 8
v -0.53301280736923 8.8660249710083 8.25
v -0.35000014305115 8.8660249710083 8.43301296234131
v -0.10000012814999 9 8
v 7.89999961853027 9 8
v 7.89999961853027 9 -8
v -0.10000012814999 9 -8
v -1.10000014305115 3.18198037147522 3.18198037147522
v -1.10000014305115 -3.18198037147522 -3.18198037147522
v -1.10000014305115 -4.15745782852173 -1.72207534313202
v -1.10000014305115 -4.5 0
v -1.10000014305115 -1.72207534313202 -4.15745782852173
v -1.10000014305115 1.72207534313202 -4.15745782852173
v -1.10000014305115 -0 -4.5
v -1.10000014305115 4.15745782852173 -1.72207534313202
v -1.10000014305115 3.18198037147522 -3.18198037147522
v -1.10000014305115 4.15745782852173 1.72207534313202
v -1.10000014305115 4.5 -0
v -1.10000014305115 1.72207534313202 4.15745782852173
v -1.10000014305115 0 4.5
v -1.10000014305115 -1.72207534313202 4.15745782852173
v -1.10000014305115 -3.18198037147522 3.18198037147522
v -1.10000014305115 -4.15745782852173 1.72207534313202
v -9 0 0
v -9 -4.5 0
v -9 -4.15745782852173 -1.72207534313202
v -9 -3.18198037147522 -3.18198037147522
v -9 -1.72207534313202 -4.15745782852173
v -9 -0 -4.5
v -9 1.72207534313202 -4.15745782852173
v -9 3.18198037147522 -3.18198037147522
v -9 4.15745782852173 -1.72207534313202
v -9 4.5 -0
v -9 4.15745782852173 1.72207534313202
v -9 3.18198037147522 3.18198037147522
v -9 1.72207534313202 4.15745782852173
v -9 0 4.5
v -9 -1.72207534313202 4.15745782852173
v -9 -3.18198037147522 3.18198037147522
v -9 -4.15745782852173 1.72207534313202
v -1.10000014305115 -3.18198037147522 -3.18198037147522
v -1.10000014305115 3.18198037147522 3.18198037147522
# 139 vertices

vn -0.13083834946156 -0.98273223638535 0.13083827495575
vn -0.06627102196217 -0.86462777853012 0.49802300333977
vn 0.06627096235752 -0.86462777853012 0.49802300333977
vn 0.13083830475807 -0.98273223638535 0.13083824515343
vn -0.11370180547237 -0.49759864807129 0.85992294549942
vn 0.11370175331831 -0.49759861826897 0.85992294549942
vn -0.12949857115746 -0.12949855625629 0.98308712244034
vn 0.12949854135513 -0.12949855625629 0.98308712244034
vn -0.12949855625629 0.12949855625629 0.98308712244034
vn 0.12949854135513 0.12949855625629 0.98308712244034
vn -0.11370179802179 0.49759867787361 0.85992294549942
vn 0.11370175331831 0.49759861826897 0.85992294549942
vn -0.06627101451159 0.86462783813477 0.49802300333977
vn 0.06627095490694 0.86462777853012 0.49802303314209
vn -0.13083834946156 0.98273223638535 0.13083827495575
vn 0.13083830475807 0.98273223638535 0.13083824515343
vn 0.24911548197269 -0.86704438924789 0.43148064613342
vn 0 0 0
vn 0.43251633644104 -0.50171452760696 0.7491409778595
vn 0.49571231007576 -0.13067278265953 0.85859996080399
vn 0.4957123696804 0.13067278265953 0.85859996080399
vn 0.43251636624336 0.50171446800232 0.7491409778595
vn 0.24911554157734 0.8670442700386 0.43148073554039
vn 0.43148064613342 -0.86704438924789 0.2491152882576
vn 0.74914062023163 -0.50171476602554 0.43251663446426
vn 0.85859954357147 -0.13067281246185 0.49571311473846
vn 0.85859954357147 0.13067282736301 0.49571311473846
vn 0.74914067983627 0.50171464681625 0.43251666426659
vn 0.43148070573807 0.86704438924789 0.24911530315876
vn 0.49802267551422 -0.86462795734406 0.06627101451159
vn 0.85992276668549 -0.49759900569916 0.11370179057121
vn 0.9698526263237 -0.1723163574934 0.1723163574934
vn 0.9698526263237 0.17231637239456 0.17231637239456
vn 0.85992270708084 0.49759903550148 0.11370178312063
vn 0.49802261590958 0.8646280169487 0.066271007061
vn 0.49802261590958 -0.8646280169487 -0.066271007061
vn 0.13083830475807 -0.98273223638535 -0.13083824515343
vn 0.85992276668549 -0.49759903550148 -0.11370179057121
vn 0.9698526263237 -0.17231637239456 -0.17231637239456
vn 0 -1 0
vn 0 -0.92387956380844 0.38268339633942
vn 0.85992276668549 0.49759900569916 -0.11370179057121
vn 0.9698526263237 0.17231637239456 -0.17231637239456
vn 0.49802261590958 0.8646280169487 -0.066271007061
vn 0.13083830475807 0.98273223638535 -0.13083824515343
vn 0.43148070573807 -0.86704438924789 -0.24911533296108
vn 0.74914067983627 -0.50171464681625 -0.43251666426659
vn 0.85859954357147 -0.13067281246185 -0.4957130253315
vn 0.85859954357147 0.13067282736301 -0.49571311473846
vn 0.74914062023163 0.50171476602554 -0.43251663446426
vn 0.43148064613342 0.86704438924789 -0.2491152882576
vn 0.2491155564785 -0.8670442700386 -0.43148073554039
vn 0.43251636624336 -0.50171446800232 -0.7491409778595
vn 0.4957123696804 -0.13067279756069 -0.85859996080399
vn 0.49571231007576 0.13067278265953 -0.85859996080399
vn 0.43251630663872 0.50171452760696 -0.7491409778595
vn 0.24911549687386 0.86704432964325 -0.43148070573807
vn 0.0662709698081 -0.86462777853012 -0.49802306294441
vn 0.11370175331831 -0.49759861826897 -0.85992294549942
vn 0.12949854135513 -0.12949855625629 -0.98308712244034
vn 0.12949854135513 0.12949855625629 -0.98308712244034
vn 0.11370175331831 0.49759864807129 -0.85992294549942
vn 0.06627095490694 0.86462777853012 -0.49802300333977
vn -0.06627102196217 -0.86462783813477 -0.49802300333977
vn -0.13083833456039 -0.98273223638535 -0.13083827495575
vn -0.11370180547237 -0.49759864807129 -0.85992294549942
vn -0.12949855625629 -0.12949855625629 -0.98308712244034
vn -0.12949857115746 0.12949855625629 -0.98308712244034
vn -0.11370179802179 0.49759861826897 -0.85992294549942
vn -0.06627101451159 0.86462777853012 -0.49802300333977
vn -0.13083834946156 0.98273223638535 -0.13083828985691
vn -0.24911557137966 -0.86704432964325 -0.43148067593575
vn -0.43251645565033 -0.50171452760696 -0.74914085865021
vn -0.49571245908737 -0.13067281246185 -0.85859990119934
vn -0.49571245908737 0.13067281246185 -0.85859990119934
vn -0.43251651525497 0.50171440839767 -0.74914091825485
vn -0.24911560118198 0.8670442700386 -0.43148073554039
vn -0.43148073554039 -0.86704432964325 -0.24911539256573
vn -0.74914067983627 -0.50171464681625 -0.43251660466194
vn -0.85859960317612 -0.13067288696766 -0.49571299552917
vn -0.85859960317612 0.13067288696766 -0.49571296572685
vn -0.74914067983627 0.50171464681625 -0.43251666426659
vn -0.43148076534271 0.86704432964325 -0.24911540746689
vn -0.49802282452583 -0.86462789773941 -0.06627108156681
vn -0.85992276668549 -0.49759894609451 -0.1137018725276
vn -0.9967160820961 -0.05725849047303 -0.05725849047303
vn -0.9967160820961 0.05725849047303 -0.05725849047303
vn -0.85992276668549 0.49759894609451 -0.11370187997818
vn -0.49802276492119 0.86462795734406 -0.06627108156681
vn -0.49802276492119 -0.86462795734406 0.06627107411623
vn -0.85992276668549 -0.49759897589684 0.11370187997818
vn -0.9967160820961 -0.05725848674774 0.05725848674774
vn -1 0 0
vn -0.9967160820961 0.05725849047303 0.05725849047303
vn -0.85992276668549 0.49759894609451 0.1137018725276
vn -0.49802276492119 0.86462795734406 0.06627108156681
vn -0.43148079514503 -0.86704432964325 0.24911543726921
vn -0.74914067983627 -0.50171464681625 0.43251663446426
vn -0.85859954357147 -0.13067288696766 0.49571299552917
vn -0.85859960317612 0.13067288696766 0.49571296572685
vn -0.74914067983627 0.50171464681625 0.43251660466194
vn -0.43148076534271 0.86704432964325 0.24911539256573
vn -0.24911558628082 -0.8670442700386 0.43148073554039
vn -0.43251651525497 -0.50171440839767 0.74914091825485
vn -0.49571245908737 -0.13067282736301 0.85859990119934
vn -0.49571245908737 0.13067281246185 0.85859990119934
vn -0.43251645565033 0.50171452760696 0.74914085865021
vn -0.24911557137966 0.86704432964325 0.43148067593575
vn 0 -0.92387956380844 -0.38268339633942
vn 0 -0.70710676908493 -0.70710676908493
vn 0 -0.38268339633942 -0.92387956380844
vn 0 0 -1
vn 0 0.38268339633942 -0.92387956380844
vn 0 0.70710676908493 -0.70710676908493
vn 0 0.92387956380844 -0.38268339633942
vn 0 1 0
vn 0 0.92387956380844 0.38268339633942
vn 0 0.70710676908493 0.70710676908493
vn 0 0.38268339633942 0.92387956380844
vn 0 0 1
vn 0 -0.38268339633942 0.92387956380844
vn 0 -0.70710676908493 0.70710676908493
# 122 normals

o cube_r
usemtl default
f 2//4 6//3 5//2 1//1
f 6//3 22//6 21//5 5//2
f 22//6 38//8 37//7 21//5
f 38//8 54//10 53//9 37//7
f 54//10 70//12 69//11 53//9
f 70//12 86//14 85//13 69//11
f 86//14 102//16 101//15 85//13
f 7//17 6//3 2//4
f 7//17 23//19 22//6 6//3
f 23//19 39//20 38//8 22//6
f 39//20 55//21 54//10 38//8
f 55//21 71//22 70//12 54//10
f 71//22 87//23 86//14 70//12
f 87//23 102//16 86//14
f 8//24 7//17 2//4
f 8//24 24//25 23//19 7//17
f 24//25 40//26 39//20 23//19
f 40//26 56//27 55//21 39//20
f 56//27 72//28 71//22 55//21
f 72//28 88//29 87//23 71//22
f 88//29 102//16 87//23
f 9//30 8//24 2//4
f 9//30 25//31 24//25 8//24
f 25//31 41//32 40//26 24//25
f 41//32 57//33 56//27 40//26
f 57//33 73//34 72//28 56//27
f 73//34 89//35 88//29 72//28
f 89//35 102//16 88//29
f 3//37 10//36 9//30 2//4
f 10//36 26//38 25//31 9//30
f 26//38 42//39 41//32 25//31
f 120//41 137//41 122//40 108//40
f 58//43 74//42 73//34 57//33
f 74//42 90//44 89//35 73//34
f 90//44 103//45 102//16 89//35
f 11//46 10//36 3//37
f 11//46 27//47 26//38 10//36
f 27//47 43//48 42//39 26//38
f 43//48 59//49 58//43 42//39
f 59//49 75//50 74//42 58//43
f 75//50 91//51 90//44 74//42
f 91//51 103//45 90//44
f 12//52 11//46 3//37
f 12//52 28//53 27//47 11//46
f 28//53 44//54 43//48 27//47
f 44//54 60//55 59//49 43//48
f 60//55 76//56 75//50 59//49
f 76//56 92//57 91//51 75//50
f 92//57 103//45 91//51
f 13//58 12//52 3//37
f 13//58 29//59 28//53 12//52
f 29//59 45//60 44//54 28//53
f 45//60 61//61 60//55 44//54
f 61//61 77//62 76//56 60//55
f 77//62 93//63 92//57 76//56
f 93//63 103//45 92//57
f 4//65 14//64 13//58 3//37
f 14//64 30//66 29//59 13//58
f 30//66 46//67 45//60 29//59
f 46//67 62//68 61//61 45//60
f 62//68 78//69 77//62 61//61
f 78//69 94//70 93//63 77//62
f 94//70 104//71 103//45 93//63
f 15//72 14//64 4//65
f 15//72 31//73 30//66 14//64
f 31//73 47//74 46//67 30//66
f 47//74 63//75 62//68 46//67
f 63//75 79//76 78//69 62//68
f 79//76 95//77 94//70 78//69
f 95//77 104//71 94//70
f 16//78 15//72 4//65
f 16//78 32//79 31//73 15//72
f 32//79 48//80 47//74 31//73
f 48//80 64//81 63//75 47//74
f 64//81 80//82 79//76 63//75
f 80//82 96//83 95//77 79//76
f 96//83 104//71 95//77
f 17//84 16//78 4//65
f 17//84 33//85 32//79 16//78
f 33//85 49//86 48//80 32//79
f 49//86 65//87 64//81 48//80
f 65//87 81//88 80//82 64//81
f 81//88 97//89 96//83 80//82
f 97//89 104//71 96//83
f 1//1 18//90 17//84 4//65
f 18//90 34//91 33//85 17//84
f 34//91 50//92 49//86 33//85
f 49//86 50//92 108//93
f 120//93 108//93 50//92
f 119//93 120//93 50//92
f 118//93 119//93 50//92
f 117//93 118//93 50//92
f 65//87 49//86 111//93
f 109//93 111//93 49//86
f 106//93 109//93 49//86
f 107//93 106//93 49//86
f 66//94 65//87 115//93
f 112//93 115//93 65//87
f 113//93 112//93 65//87
f 110//93 113//93 65//87
f 116//93 117//93 66//94
f 105//93 116//93 66//94
f 114//93 105//93 66//94
f 66//94 82//95 81//88 65//87
f 82//95 98//96 97//89 81//88
f 98//96 101//15 104//71 97//89
f 19//97 18//90 1//1
f 19//97 35//98 34//91 18//90
f 35//98 51//99 50//92 34//91
f 51//99 67//100 66//94 50//92
f 67//100 83//101 82//95 66//94
f 83//101 99//102 98//96 82//95
f 99//102 101//15 98//96
f 20//103 19//97 1//1
f 20//103 36//104 35//98 19//97
f 36//104 52//105 51//99 35//98
f 52//105 68//106 67//100 51//99
f 68//106 84//107 83//101 67//100
f 84//107 100//108 99//102 83//101
f 100//108 101//15 99//102
f 5//2 20//103 1//1
f 5//2 21//5 36//104 20//103
f 21//5 37//7 52//105 36//104
f 37//7 53//9 68//106 52//105
f 53//9 69//11 84//107 68//106
f 69//11 85//13 100//108 84//107
f 85//13 101//15 100//108
f 102//16 103//45 104//71 101//15
f 4//65 3//37 2//4 1//1
f 123//93 122//93 121//93
f 108//40 122//40 123//109 107//109
f 124//93 123//93 121//93
f 107//109 123//109 124//110 138//110
f 125//93 124//93 121//93
f 138//110 124//110 125//111 109//111
f 126//93 125//93 121//93
f 109//111 125//111 126//112 111//112
f 127//93 126//93 121//93
f 111//112 126//112 127//113 110//113
f 128//93 127//93 121//93
f 110//113 127//113 128//114 113//114
f 129//93 128//93 121//93
f 113//114 128//114 129//115 112//115
f 130//93 129//93 121//93
f 112//115 129//115 130//116 115//116
f 131//93 130//93 121//93
f 115//116 130//116 131//117 114//117
f 132//93 131//93 121//93
f 114//117 131//117 132//118 139//118
f 133//93 132//93 121//93
f 139//118 132//118 133//119 116//119
f 134//93 133//93 121//93
f 116//119 133//119 134//120 117//120
f 135//93 134//93 121//93
f 117//120 134//120 135//121 118//121
f 136//93 135//93 121//93
f 118//121 135//121 136//122 119//122
f 137//93 136//93 121//93
f 119//122 136//122 137//41 120//41
f 122//93 137//93 121//93
f 107//93 49//86 108//93
f 66//94 117//93 50//92
f 110//93 65//87 111//93
f 114//93 66//94 115//93

