# WaveFront *.obj file

o cornerR0
v 20 1 1
v 20 19 1
v 20 19 19
v 20 1 19
# 4 vertices

vn 1 0 0
# 1 normals

vt 0.95 0.05 0.05
vt 0.95 0.95 0.05
vt 0.05 0.95 0.05
vt 0.05 0.05 0.05
# 4 texture coordinates

f -4/-4/-1 -3/-3/-1 -2/-2/-1 -1/-1/-1
# 1 faces

o cornerU0
v 19 20 19
v 19 20 1
v 1 20 1
v 1 20 19
# 4 vertices

vn 0 1 0
# 1 normals

vt 0.95 0.05 0.05
vt 0.95 0.95 0.05
vt 0.05 0.95 0.05
vt 0.05 0.05 0.05
# 4 texture coordinates

f -4/-4/-1 -3/-3/-1 -2/-2/-1 -1/-1/-1
# 1 faces

o cornerF0
v 19 1 20
v 19 19 20
v 1 19 20
v 1 1 20
# 4 vertices

vn 0 0 1
# 1 normals

vt 0.95 0.05 0.05
vt 0.95 0.95 0.05
vt 0.05 0.95 0.05
vt 0.05 0.05 0.05
# 4 texture coordinates

f -4/-4/-1 -3/-3/-1 -2/-2/-1 -1/-1/-1
# 1 faces

o corner0
v 19 0 19
v 19 1 20
v 1 1 20
v 1 0 19
v 10 0 1
v 10 0 3
v 10 3 3
v 10 3 0
v 10 1 0
v 19 19 20
v 19 20 19
v 1 20 19
v 1 19 20
v 20 1 19
v 20 19 19
v 19 0 1
v 20 1 1
v 20 19 1
v 19 20 1
v 19 1 0
v 19 19 0
v 3 3 0
v 3 10 0
v 1 10 0
v 1 19 0
v 1 20 1
v 0 10 1
v 0 19 1
v 1 0 10
v 0 1 19
v 0 1 10
v 0 19 19
v 0 10 3
v 0 3 3
v 0 3 10
v 3 3 3
v 3 0 10
v 3 0 3
v 3 10 3
v 3 3 10
# 40 vertices

vn 0.47651 -0.738834 0.47651
vn 0.47651 -0.47651 0.738834
vn -0.47651 -0.47651 0.738834
vn -0.47651 -0.738834 0.47651
vn -1 0 0
vn 0.47651 0.47651 0.738834
vn 0.47651 0.738834 0.47651
vn -0.47651 0.738834 0.47651
vn -0.47651 0.47651 0.738834
vn 0.738834 -0.47651 0.47651
vn 0.738834 0.47651 0.47651
vn 0.47651 -0.738834 -0.47651
vn 0.738834 -0.47651 -0.47651
vn 0.738834 0.47651 -0.47651
vn 0.47651 0.738834 -0.47651
vn 0.47651 -0.47651 -0.738834
vn 0.47651 0.47651 -0.738834
vn 0 -0.707107 -0.707107
vn 0 0 -1
vn -0.47651 0.47651 -0.738834
vn -0.47651 0.738834 -0.47651
vn -0.707107 0 -0.707107
vn -0.738834 0.47651 -0.47651
vn -0.707107 -0.707107 0
vn -0.738834 -0.47651 0.47651
vn -0.738834 0.47651 0.47651
vn 0 -1 0
# 27 normals

f -40//-27 -39//-26 -38//-25 -37//-24
f -36//-23 -35//-23 -34//-23 -33//-23 -32//-23
f -31//-22 -30//-21 -29//-20 -28//-19
f -27//-18 -39//-26 -40//-27
f -27//-18 -26//-17 -31//-22 -39//-26
f -26//-17 -30//-21 -31//-22
f -25//-16 -24//-15 -27//-18 -40//-27
f -23//-14 -22//-13 -30//-21 -26//-17
f -21//-12 -24//-15 -25//-16
f -21//-12 -20//-11 -23//-14 -24//-15
f -20//-11 -22//-13 -23//-14
f -32//-10 -21//-12 -25//-16 -36//-10
f -20//-9 -33//-9 -19//-9 -18//-9
f -20//-9 -21//-9 -32//-9 -33//-9
f -20//-9 -18//-9 -17//-9 -16//-9
f -16//-8 -15//-7 -22//-13 -20//-11
f -14//-6 -13//-5 -16//-8 -17//-6
f -13//-5 -15//-7 -16//-8
f -12//-4 -37//-24 -11//-3 -10//-4
f -9//-23 -8//-23 -7//-23 -6//-23
f -9//-23 -13//-23 -14//-23 -8//-23
f -9//-23 -6//-23 -10//-23 -11//-23
f -9//-2 -29//-20 -15//-7 -13//-5
f -38//-25 -11//-3 -37//-24
f -38//-25 -28//-19 -9//-2 -11//-3
f -28//-19 -29//-20 -9//-2
f -5//-1 -19//-1 -33//-1 -34//-1
f -4//-1 -40//-1 -37//-1 -12//-1
f -40//-1 -4//-1 -3//-1 -35//-1
f -35//-1 -36//-1 -25//-1 -40//-1
f -5//-9 -7//-9 -8//-9 -2//-9
f -2//-23 -18//-23 -19//-23 -5//-23
f -2//-1 -8//-1 -14//-1 -17//-1 -18//-1
f -4//-9 -12//-9 -10//-9 -6//-9 -1//-9
f -5//-23 -3//-23 -4//-23 -1//-23
f -1//-1 -6//-1 -7//-1 -5//-1
f -34//-9 -35//-9 -3//-9 -5//-9
# 37 faces

o center
v 1.414214 -9 -1.414214
v 2 -9 0
v 1.414214 -9 1.414213
v 0 -9 2
v -1.414213 -9 1.414214
v -2 -9 0
v -1.414214 -9 -1.414214
v -0 -9 -2
v 1.414214 -3 -1.414214
v 2 -3 0
v 1.414214 -3 1.414213
v 1.414214 3.000001 -1.414214
v 1.414214 9 -1.414214
v 2 9 0
v 2 3.000001 0
v -0 9 -2
v -1.414214 9 -1.414214
v -2 9 0
v -1.414213 9 1.414214
v 0 9 2
v 1.414214 9 1.414213
v -0 -3 -2
v 1.414214 3.000001 1.414213
v -0 3.000001 -2
v -1.414214 -3 -1.414214
v -1.414214 3.000001 -1.414214
v 0 -3 2
v -2 -3 0
v 0 3.000001 2
v -2 3.000001 0
v -1.414213 3.000001 1.414214
v -1.414213 -3 1.414214
v -3 -3 3
v 3 -3 3
v -3 -3 -3
v 3 -3 -3
v 0 -3 -2
v 3 3 3
v 3 3 -3
v -3 3 -3
v -3 3 3
v -3 -2 0
v -3 -1.414214 -1.414214
v -3 0 -2
v -3 -1.414214 1.414213
v -3 0 2
v -3 1.414214 -1.414214
v -3 2 0
v -3 1.414213 1.414214
v -2 -0 -3
v -1.414213 -1.414214 -3
v 0 -2 -3
v -1.414214 1.414214 -3
v 0 2 -3
v 1.414214 -1.414213 -3
v 2 0 -3
v 1.414214 1.414214 -3
v -9 -1.414213 -1.414214
v -9 -2 0
v -9 -1.414214 1.414213
v -9 0 2
v -9 1.414214 1.414214
v -9 2 0
v -9 1.414214 -1.414214
v -9 0 -2
v 9 -2 0
v 9 -1.414214 -1.414214
v 9 -0 -2
v 9 1.414213 -1.414214
v 9 2 0
v 9 1.414213 1.414214
v 9 -0 2
v 9 -1.414214 1.414213
v 3.000001 -1.414214 -1.414214
v 3.000001 -2 0
v 3.000001 -1.414214 1.414213
v 3.000001 -0 2
v 3.000001 -0 -2
v 3.000001 1.414214 -1.414214
v 3.000001 1.414213 1.414214
v 3.000001 2 0
v 1.414214 1.414214 -9
v 2 0 -9
v 1.414214 -1.414213 -9
v 0 -2 -9
v -1.414213 -1.414214 -9
v -2 -0 -9
v -1.414214 1.414214 -9
v -0 2 -9
v 1.414214 1.414214 3.000001
v 1.414214 1.414214 9
v 2 0 9
v 2 0 3.000001
v -0 2 9
v -1.414214 1.414214 9
v -2 -0 9
v -1.414213 -1.414214 9
v 0 -2 9
v 1.414214 -1.414213 9
v -0 2 -3
v 1.414214 -1.414213 3.000001
v -0 2 3.000001
v -1.414214 1.414214 3.000001
v 0 -2 3.000001
v -2 -0 3.000001
v -1.414213 -1.414214 3.000001
# 106 vertices

vn 0 -1 0
vn 0.707107 0 -0.707107
vn 1 0 -0
vn 0.707107 0 0.707107
vn 0 1 0
vn -0 0 -1
vn -0.707107 0 -0.707107
vn 0 0 1
vn -1 0 0
vn -0.707107 0 0.707107
vn 0 0 -1
vn 1 0 0
vn -0 -0.707107 -0.707107
vn -0 -1 -0
vn -0 -0.707107 0.707107
vn 0 -0 1
vn 0 0.707107 -0.707107
vn 0 0.707107 0.707107
vn -0 -0 1
vn 0.707107 0.707107 0
vn 0.707107 -0.707107 0
vn -0 1 0
vn -0.707107 0.707107 0
vn -1 -0 0
vn -0.707107 -0.707107 0
# 25 normals

f -106//-25 -105//-25 -104//-25 -103//-25 -102//-25 -101//-25 -100//-25 -99//-25
f -106//-24 -98//-24 -97//-23 -105//-23
f -105//-23 -97//-23 -96//-22 -104//-22
f -95//-24 -94//-24 -93//-23 -92//-23
f -93//-21 -94//-21 -91//-21 -90//-21 -89//-21 -88//-21 -87//-21 -86//-21
f -99//-20 -85//-20 -98//-24 -106//-24
f -92//-23 -93//-23 -86//-22 -84//-22
f -83//-20 -91//-20 -94//-24 -95//-24
f -100//-19 -82//-19 -85//-20 -99//-20
f -81//-19 -90//-19 -91//-20 -83//-20
f -104//-22 -96//-22 -80//-18 -103//-18
f -101//-17 -79//-17 -82//-19 -100//-19
f -84//-22 -86//-22 -87//-18 -78//-18
f -77//-17 -89//-17 -90//-19 -81//-19
f -78//-18 -87//-18 -88//-16 -76//-16
f -103//-18 -80//-18 -75//-16 -102//-16
f -102//-16 -75//-16 -79//-17 -101//-17
f -76//-16 -88//-16 -89//-17 -77//-17
f -75//-25 -80//-25 -74//-25
f -73//-25 -74//-25 -80//-25
f -79//-25 -75//-25 -74//-25
f -73//-25 -80//-25 -96//-25
f -73//-25 -96//-25 -97//-25
f -79//-25 -74//-25 -72//-25
f -82//-25 -79//-25 -72//-25
f -71//-25 -73//-25 -97//-25
f -70//-25 -82//-25 -72//-25
f -71//-25 -97//-25 -98//-25
f -71//-25 -98//-25 -70//-25
f -70//-25 -72//-25 -71//-25
f -69//-21 -68//-21 -67//-21 -66//-21
f -72//-17 -65//-17 -64//-17
f -65//-17 -72//-17 -74//-17
f -72//-17 -64//-17 -63//-17
f -62//-17 -65//-17 -74//-17
f -61//-17 -62//-17 -74//-17
f -67//-17 -72//-17 -63//-17
f -67//-17 -63//-17 -60//-17
f -61//-17 -74//-17 -66//-17
f -67//-17 -60//-17 -59//-17
f -58//-17 -61//-17 -66//-17
f -59//-17 -58//-17 -66//-17
f -59//-17 -66//-17 -67//-17
f -72//-15 -57//-15 -56//-15
f -57//-15 -72//-15 -67//-15
f -72//-15 -56//-15 -55//-15
f -54//-15 -57//-15 -67//-15
f -53//-15 -54//-15 -67//-15
f -71//-15 -72//-15 -55//-15
f -71//-15 -55//-15 -52//-15
f -53//-15 -67//-15 -68//-15
f -71//-15 -52//-15 -51//-15
f -50//-15 -53//-15 -68//-15
f -51//-15 -50//-15 -68//-15
f -51//-15 -68//-15 -71//-15
f -71//-14 -68//-14 -69//-14 -73//-14
f -73//-18 -69//-18 -66//-18 -74//-18
f -49//-17 -48//-17 -47//-17 -46//-17 -45//-17 -44//-17 -43//-17 -42//-17
f -49//-13 -64//-13 -65//-12 -48//-12
f -41//-14 -40//-14 -39//-14 -38//-14 -37//-14 -36//-14 -35//-14 -34//-14
f -33//-13 -40//-13 -41//-12 -32//-12
f -42//-20 -63//-20 -64//-13 -49//-13
f -31//-11 -34//-11 -35//-10 -30//-10
f -29//-20 -39//-20 -40//-13 -33//-13
f -43//-9 -60//-9 -63//-20 -42//-20
f -28//-9 -38//-9 -39//-20 -29//-20
f -30//-10 -35//-10 -36//-8 -27//-8
f -44//-21 -59//-21 -60//-9 -43//-9
f -47//-11 -62//-11 -61//-7 -46//-7
f -26//-21 -37//-21 -38//-9 -28//-9
f -46//-7 -61//-7 -58//-8 -45//-8
f -32//-12 -41//-12 -34//-11 -31//-11
f -45//-8 -58//-8 -59//-21 -44//-21
f -48//-12 -65//-12 -62//-11 -47//-11
f -27//-8 -36//-8 -37//-21 -26//-21
f -25//-15 -24//-15 -23//-15 -22//-15 -21//-15 -20//-15 -19//-15 -18//-15
f -25//-6 -50//-6 -51//-14 -24//-14
f -24//-14 -51//-14 -52//-5 -23//-5
f -17//-6 -16//-6 -15//-14 -14//-14
f -15//-18 -16//-18 -13//-18 -12//-18 -11//-18 -10//-18 -9//-18 -8//-18
f -18//-4 -7//-4 -50//-6 -25//-6
f -14//-14 -15//-14 -8//-5 -6//-5
f -5//-4 -13//-4 -16//-6 -17//-6
f -19//-3 -54//-3 -7//-4 -18//-4
f -4//-3 -12//-3 -13//-4 -5//-4
f -23//-5 -52//-5 -55//-25 -22//-25
f -20//-2 -57//-2 -54//-3 -19//-3
f -6//-5 -8//-5 -9//-25 -3//-25
f -2//-2 -11//-2 -12//-3 -4//-3
f -3//-25 -9//-25 -10//-1 -1//-1
f -22//-25 -55//-25 -56//-1 -21//-1
f -21//-1 -56//-1 -57//-2 -20//-2
f -1//-1 -10//-1 -11//-2 -2//-2
# 93 faces
