# WaveFront *.obj file (generated by CINEMA 4D)

v 0.91499996 0.0 -6.593764E-8
v 0.915 0.0 -0.45000005
v 0.915 -0.17220755 -0.41574582
v 0.91499996 -0.31819803 -0.31819808
v 0.91499996 -0.41574576 -0.1722076
v 0.91499996 -0.45 -4.626751E-8
v 0.91499996 -0.41574576 0.17220752
v 0.91499996 -0.31819803 0.31819797
v 0.9149999 -0.17220747 0.41574576
v 0.9149999 3.934025E-8 0.44999993
v 0.9149999 0.17220753 0.4157457
v 0.91499996 0.31819808 0.31819794
v 0.91499996 0.41574585 0.17220734
v 0.91499996 0.45 -7.130383E-8
v 0.91499996 0.41574574 -0.17220768
v 0.91499996 0.31819794 -0.3181982
v 0.915 0.17220753 -0.41574585
# 17 vertices

vn -1.0 -1.0E-14 -1.3245477E-7
vn -1.0 -2.0E-14 -9.429982E-8
vn -1.0 1.0919882E-7 -1.8859966E-7
vn 0.0 0.0 0.0
vn -1.0 1.2237227E-7 -1.2237227E-7
vn -1.0 0.0 0.0
vn -1.0 0.0 0.0
vn -1.0 -1.223722E-7 -1.223722E-7
vn -1.0 -1.0919877E-7 -1.8859959E-7
vn -1.0 -3.0E-14 -1.3245477E-7
vn -1.0 1.0919874E-7 -1.8859961E-7
vn -1.0 1.223722E-7 -1.2237223E-7
vn -1.0 0.0 0.0
vn -1.0 -1.2237237E-7 -1.2237228E-7
vn -1.0 -1.0919893E-7 -1.8859967E-7
# 15 normals

o Disc
usemtl default
f 3//3 1//2 2//1
f 4//5 1//2 3//3
f 5//6 1//2 4//5
f 6//7 1//2 5//6
f 7//7 1//2 6//7
f 8//8 1//2 7//7
f 9//9 1//2 8//8
f 10//10 1//2 9//9
f 11//11 1//2 10//10
f 12//12 1//2 11//11
f 13//7 1//2 12//12
f 14//7 1//2 13//7
f 15//13 1//2 14//7
f 16//14 1//2 15//13
f 17//15 1//2 16//14
f 2//1 1//2 17//15

v 1.705 0.0 -0.45
v 0.91499996 0.0 -0.45000005
v 1.705 -0.17220755 -0.41574576
v 0.91499996 -0.17220755 -0.41574582
v 1.7049999 -0.31819803 -0.31819803
v 0.91499996 -0.31819803 -0.31819808
v 1.7049999 -0.41574576 -0.17220753
v 0.91499996 -0.41574576 -0.1722076
v 1.7049999 -0.45 1.259207E-8
v 0.91499996 -0.45 -4.626752E-8
v 1.7049999 -0.41574576 0.17220758
v 0.9149999 -0.41574576 0.17220752
v 1.7049999 -0.31819803 0.31819803
v 0.9149999 -0.31819803 0.31819797
v 1.7049999 -0.17220747 0.41574582
v 0.9149999 -0.17220747 0.41574576
v 1.7049999 3.934025E-8 0.45
v 0.9149999 3.934025E-8 0.44999993
v 1.7049999 0.17220753 0.41574576
v 0.9149999 0.17220753 0.4157457
v 1.7049999 0.31819808 0.318198
v 0.9149999 0.31819808 0.31819794
v 1.7049999 0.41574585 0.1722074
v 0.9149999 0.41574585 0.17220734
v 1.7049999 0.45 -1.244425E-8
v 0.91499996 0.45 -7.130384E-8
v 1.7049999 0.41574574 -0.17220762
v 0.91499996 0.41574574 -0.17220768
v 1.7049999 0.31819794 -0.31819814
v 0.91499996 0.31819794 -0.3181982
v 1.705 0.17220753 -0.4157458
v 0.91499996 0.17220753 -0.41574585
# 32 vertices

vn 7.537607E-8 -6.836892E-8 -1.0
vn 6.908158E-8 -0.38268352 -0.9238795
vn 5.234677E-8 -0.70710677 -0.70710677
vn 2.812802E-8 -0.9238795 -0.38268352
vn -8.0882E-10 -1.0 -1.519309E-8
vn -2.893685E-8 -0.9238795 0.38268358
vn -5.234677E-8 -0.70710677 0.70710677
vn -6.908159E-8 -0.38268343 0.92387956
vn -7.537609E-8 1.7472057E-7 1.0
vn -6.908159E-8 0.38268346 0.9238795
vn -5.40582E-8 0.7071068 0.7071067
vn -2.983944E-8 0.9238796 0.38268322
vn -4.69E-11 1.0 -2.1270328E-7
vn 2.979256E-8 0.92387944 -0.38268363
vn 5.576966E-8 0.70710665 -0.7071069
vn 7.079304E-8 0.3826834 -0.92387956
# 16 normals

o Cylinder
usemtl default
f 20//17 21//17 19//16 18//16
f 22//18 23//18 21//17 20//17
f 24//19 25//19 23//18 22//18
f 26//20 27//20 25//19 24//19
f 28//21 29//21 27//20 26//20
f 30//22 31//22 29//21 28//21
f 32//23 33//23 31//22 30//22
f 34//24 35//24 33//23 32//23
f 36//25 37//25 35//24 34//24
f 38//26 39//26 37//25 36//25
f 40//27 41//27 39//26 38//26
f 42//28 43//28 41//27 40//27
f 44//29 45//29 43//28 42//28
f 46//30 47//30 45//29 44//29
f 48//31 49//31 47//30 46//30
f 18//16 19//16 49//31 48//31

v 2.6 -0.895 0.795
v 2.6 -0.895 -0.7949999
v 1.8000001 -0.895 -0.79499996
v 1.8 -0.895 0.79499996
v 2.6499999 -0.8816025 0.795
v 2.65 -0.8816025 -0.7949999
v 2.6433012 -0.8816025 -0.8199999
v 2.625 -0.8816025 -0.8383012
v 2.6000001 -0.8816025 -0.8449999
v 1.8000001 -0.8816025 -0.84499997
v 1.775 -0.8816025 -0.83830124
v 1.7566987 -0.8816025 -0.81999993
v 1.75 -0.8816025 -0.79499996
v 1.7499999 -0.8816025 0.79499996
v 1.7566986 -0.8816025 0.81999993
v 1.7749999 -0.8816025 0.83830124
v 1.7999998 -0.8816025 0.84499997
v 2.6 -0.8816025 0.845
v 2.625 -0.8816025 0.8383013
v 2.6433012 -0.8816025 0.82
v 2.6866024 -0.84499997 0.795
v 2.6866026 -0.84499997 -0.7949999
v 2.675 -0.84499997 -0.8383012
v 2.6433012 -0.84499997 -0.8699999
v 2.6000001 -0.84499997 -0.88160247
v 1.8000001 -0.84499997 -0.8816025
v 1.7566987 -0.84499997 -0.86999995
v 1.725 -0.84499997 -0.83830124
v 1.7133975 -0.84499997 -0.79499996
v 1.7133974 -0.84499997 0.79499996
v 1.7249999 -0.84499997 0.83830124
v 1.7566986 -0.84499997 0.86999995
v 1.7999998 -0.84499997 0.8816025
v 2.6 -0.84499997 0.8816026
v 2.6433012 -0.84499997 0.87
v 2.675 -0.84499997 0.83830124
v 2.6999998 -0.79499996 0.795
v 2.7 -0.79499996 -0.7949999
v 2.6866026 -0.79499996 -0.8449999
v 2.65 -0.79499996 -0.88160247
v 2.6000001 -0.79499996 -0.8949999
v 1.8000001 -0.79499996 -0.895
v 1.75 -0.79499996 -0.8816025
v 1.7133975 -0.79499996 -0.84499997
v 1.7 -0.79499996 -0.79499996
v 1.6999999 -0.79499996 0.79499996
v 1.7133974 -0.79499996 0.84499997
v 1.7499999 -0.79499996 0.8816025
v 1.7999998 -0.79499996 0.895
v 2.6 -0.79499996 0.89500004
v 2.6499999 -0.79499996 0.8816026
v 2.6866024 -0.79499996 0.84499997
v 2.6999998 0.79499996 0.795
v 2.7 0.79499996 -0.7949999
v 2.6866026 0.79499996 -0.8449999
v 2.65 0.79499996 -0.88160247
v 2.6000001 0.79499996 -0.8949999
v 1.8000001 0.79499996 -0.895
v 1.75 0.79499996 -0.8816025
v 1.7133975 0.79499996 -0.84499997
v 1.7 0.79499996 -0.79499996
v 1.6999999 0.79499996 0.79499996
v 1.7133974 0.79499996 0.84499997
v 1.7499999 0.79499996 0.8816025
v 1.7999998 0.79499996 0.895
v 2.6 0.79499996 0.89500004
v 2.6499999 0.79499996 0.8816026
v 2.6866024 0.79499996 0.84499997
v 2.6866024 0.84499997 0.795
v 2.6866026 0.84499997 -0.7949999
v 2.675 0.84499997 -0.8383012
v 2.6433012 0.84499997 -0.8699999
v 2.6000001 0.84499997 -0.88160247
v 1.8000001 0.84499997 -0.8816025
v 1.7566987 0.84499997 -0.86999995
v 1.725 0.84499997 -0.83830124
v 1.7133975 0.84499997 -0.79499996
v 1.7133974 0.84499997 0.79499996
v 1.7249999 0.84499997 0.83830124
v 1.7566986 0.84499997 0.86999995
v 1.7999998 0.84499997 0.8816025
v 2.6 0.84499997 0.8816026
v 2.6433012 0.84499997 0.87
v 2.675 0.84499997 0.83830124
v 2.6499999 0.8816025 0.795
v 2.65 0.8816025 -0.7949999
v 2.6433012 0.8816025 -0.8199999
v 2.625 0.8816025 -0.8383012
v 2.6000001 0.8816025 -0.8449999
v 1.8000001 0.8816025 -0.84499997
v 1.775 0.8816025 -0.83830124
v 1.7566987 0.8816025 -0.81999993
v 1.75 0.8816025 -0.79499996
v 1.7499999 0.8816025 0.79499996
v 1.7566986 0.8816025 0.81999993
v 1.7749999 0.8816025 0.83830124
v 1.7999998 0.8816025 0.84499997
v 2.6 0.8816025 0.845
v 2.625 0.8816025 0.8383013
v 2.6433012 0.8816025 0.82
v 2.6 0.895 0.795
v 2.6 0.895 -0.7949999
v 1.8000001 0.895 -0.79499996
v 1.8 0.895 0.79499996
# 104 vertices

vn 0.13083826 -0.9827323 0.13083802
vn 0.49802348 -0.8646276 0.066270225
vn 0.4980229 -0.8646278 -0.066271946
vn 0.13083814 -0.9827323 -0.1308383
vn 0.8599234 -0.49759802 0.11370108
vn 0.8599228 -0.49759865 -0.113702685
vn 0.96985275 -0.17231603 0.17231621
vn 0.9698525 -0.17231674 -0.17231672
vn -0.13083813 -0.9827323 -0.13083819
vn -0.13083819 -0.9827323 0.13083816
vn 0.96985275 0.17231597 0.17231621
vn 0.8599235 0.49759793 0.11370109
vn 0.8599229 0.49759853 -0.1137027
vn 0.9698525 0.17231672 -0.17231672
vn 0.4980236 0.86462754 0.06627025
vn 0.49802297 0.8646277 -0.06627197
vn 0.13083826 0.9827323 0.130838
vn 0.13083817 0.9827323 -0.13083832
vn 0.43148077 -0.86704403 -0.24911633
vn 0.74914044 -0.50171465 -0.43251708
vn 0.8585997 -0.13067357 -0.49571258
vn 0.85859966 0.13067351 -0.49571264
vn 0.74914044 0.5017146 -0.43251708
vn 0.43148082 0.86704403 -0.24911633
vn 0.24911621 -0.86704415 -0.43148065
vn 0.43251726 -0.5017147 -0.7491403
vn 0.4957132 -0.1306735 -0.85859936
vn 0.4957132 0.1306735 -0.85859936
vn 0.43251723 0.5017147 -0.7491403
vn 0.2491162 0.86704415 -0.43148062
vn 0.06627148 -0.8646278 -0.49802297
vn 0.11370247 -0.49759874 -0.8599228
vn 0.12949897 -0.12949875 -0.983087
vn 0.12949897 0.12949876 -0.983087
vn 0.11370249 0.49759877 -0.8599228
vn 0.06627148 0.86462784 -0.4980229
vn -0.066270955 -0.8646277 -0.49802315
vn -0.11370182 -0.49759862 -0.85992295
vn -0.12949851 -0.12949869 -0.98308706
vn -0.1294985 0.12949865 -0.9830871
vn -0.11370183 0.49759868 -0.85992295
vn -0.06627095 0.8646278 -0.4980231
vn -0.13083817 0.9827323 -0.1308382
vn -0.24911572 -0.8670442 -0.43148088
vn -0.43251684 -0.50171435 -0.74914074
vn -0.49571294 -0.13067304 -0.8585996
vn -0.49571297 0.13067305 -0.85859954
vn -0.43251684 0.50171435 -0.74914074
vn -0.24911572 0.8670442 -0.43148085
vn -0.43148115 -0.8670441 -0.24911544
vn -0.74914116 -0.50171417 -0.4325164
vn -0.8585999 -0.13067287 -0.49571243
vn -0.8585999 0.1306729 -0.49571246
vn -0.74914116 0.50171417 -0.43251643
vn -0.43148115 0.86704415 -0.24911545
vn -0.49802318 -0.86462766 -0.06627111
vn -0.8599232 -0.4975983 -0.113701865
vn -0.9830871 -0.12949854 -0.12949859
vn -0.9830871 0.12949854 -0.12949857
vn -0.8599231 0.4975983 -0.11370189
vn -0.49802318 0.86462766 -0.06627112
vn -0.49802318 -0.8646277 0.06627107
vn -0.8599231 -0.4975983 0.113701805
vn -0.9830871 -0.12949856 0.12949853
vn -0.9830871 0.12949856 0.12949853
vn -0.8599232 0.4975983 0.11370181
vn -0.49802324 0.86462766 0.06627106
vn -0.1308382 0.9827323 0.13083817
vn -0.43148115 -0.86704415 0.24911547
vn -0.74914116 -0.50171417 0.4325164
vn -0.8585999 -0.1306729 0.4957124
vn -0.8585999 0.13067289 0.49571246
vn -0.74914116 0.50171417 0.4325164
vn -0.43148115 0.86704415 0.24911544
vn -0.24911597 -0.86704415 0.43148077
vn -0.43251717 -0.50171435 0.7491406
vn -0.49571317 -0.13067304 0.8585994
vn -0.49571317 0.13067304 0.8585994
vn -0.43251717 0.5017143 0.7491406
vn -0.24911594 0.86704415 0.43148074
vn -0.06627123 -0.8646278 0.49802306
vn -0.113702215 -0.49759868 0.8599229
vn -0.12949888 -0.12949868 0.98308706
vn -0.12949887 0.12949868 0.98308706
vn -0.11370223 0.49759865 0.8599229
vn -0.06627125 0.8646278 0.49802306
vn 0.066270955 -0.8646277 0.49802315
vn 0.11370191 -0.4975985 0.859923
vn 0.12949874 -0.12949862 0.98308706
vn 0.12949875 0.1294986 0.98308706
vn 0.113701925 0.4975986 0.85992295
vn 0.06627095 0.8646278 0.4980231
vn 0.24911584 -0.86704415 0.43148085
vn 0.43251732 -0.5017139 0.7491408
vn 0.4957136 -0.13067257 0.8585993
vn 0.4957136 0.13067259 0.8585993
vn 0.4325173 0.5017139 0.7491408
vn 0.24911581 0.8670442 0.43148077
vn 0.43148166 -0.86704415 0.24911456
vn 0.74914205 -0.5017135 0.4325156
vn 0.85860026 -0.13067222 0.49571195
vn 0.85860026 0.13067219 0.49571195
vn 0.74914205 0.50171345 0.43251565
vn 0.4314817 0.8670441 0.2491146
# 104 normals

o Cube
usemtl default
f 51//35 55//34 54//33 50//32
f 55//34 71//37 70//36 54//33
f 71//37 87//39 86//38 70//36
f 53//41 52//40 51//35 50//32
f 103//45 119//44 118//43 102//42
f 119//44 135//47 134//46 118//43
f 135//47 151//49 150//48 134//46
f 56//50 55//34 51//35
f 56//50 72//51 71//37 55//34
f 72//51 88//52 87//39 71//37
f 88//52 104//53 103//45 87//39
f 104//53 120//54 119//44 103//45
f 120//54 136//55 135//47 119//44
f 136//55 151//49 135//47
f 57//56 56//50 51//35
f 57//56 73//57 72//51 56//50
f 73//57 89//58 88//52 72//51
f 89//58 105//59 104//53 88//52
f 105//59 121//60 120//54 104//53
f 121//60 137//61 136//55 120//54
f 137//61 151//49 136//55
f 58//62 57//56 51//35
f 58//62 74//63 73//57 57//56
f 74//63 90//64 89//58 73//57
f 90//64 106//65 105//59 89//58
f 106//65 122//66 121//60 105//59
f 122//66 138//67 137//61 121//60
f 138//67 151//49 137//61
f 52//40 59//68 58//62 51//35
f 59//68 75//69 74//63 58//62
f 75//69 91//70 90//64 74//63
f 91//70 107//71 106//65 90//64
f 107//71 123//72 122//66 106//65
f 123//72 139//73 138//67 122//66
f 139//73 152//74 151//49 138//67
f 60//75 59//68 52//40
f 60//75 76//76 75//69 59//68
f 76//76 92//77 91//70 75//69
f 92//77 108//78 107//71 91//70
f 108//78 124//79 123//72 107//71
f 124//79 140//80 139//73 123//72
f 140//80 152//74 139//73
f 61//81 60//75 52//40
f 61//81 77//82 76//76 60//75
f 77//82 93//83 92//77 76//76
f 93//83 109//84 108//78 92//77
f 109//84 125//85 124//79 108//78
f 125//85 141//86 140//80 124//79
f 141//86 152//74 140//80
f 62//87 61//81 52//40
f 62//87 78//88 77//82 61//81
f 78//88 94//89 93//83 77//82
f 94//89 110//90 109//84 93//83
f 110//90 126//91 125//85 109//84
f 126//91 142//92 141//86 125//85
f 142//92 152//74 141//86
f 53//41 63//93 62//87 52//40
f 63//93 79//94 78//88 62//87
f 79//94 95//95 94//89 78//88
f 95//95 111//96 110//90 94//89
f 111//96 127//97 126//91 110//90
f 127//97 143//98 142//92 126//91
f 143//98 153//99 152//74 142//92
f 64//100 63//93 53//41
f 64//100 80//101 79//94 63//93
f 80//101 96//102 95//95 79//94
f 96//102 112//103 111//96 95//95
f 112//103 128//104 127//97 111//96
f 128//104 144//105 143//98 127//97
f 144//105 153//99 143//98
f 65//106 64//100 53//41
f 65//106 81//107 80//101 64//100
f 81//107 97//108 96//102 80//101
f 97//108 113//109 112//103 96//102
f 113//109 129//110 128//104 112//103
f 129//110 145//111 144//105 128//104
f 145//111 153//99 144//105
f 66//112 65//106 53//41
f 66//112 82//113 81//107 65//106
f 82//113 98//114 97//108 81//107
f 98//114 114//115 113//109 97//108
f 114//115 130//116 129//110 113//109
f 130//116 146//117 145//111 129//110
f 146//117 153//99 145//111
f 50//32 67//118 66//112 53//41
f 67//118 83//119 82//113 66//112
f 83//119 99//120 98//114 82//113
f 99//120 115//121 114//115 98//114
f 115//121 131//122 130//116 114//115
f 131//122 147//123 146//117 130//116
f 147//123 150//48 153//99 146//117
f 68//124 67//118 50//32
f 68//124 84//125 83//119 67//118
f 84//125 100//126 99//120 83//119
f 100//126 116//127 115//121 99//120
f 116//127 132//128 131//122 115//121
f 132//128 148//129 147//123 131//122
f 148//129 150//48 147//123
f 69//130 68//124 50//32
f 69//130 85//131 84//125 68//124
f 85//131 101//132 100//126 84//125
f 101//132 117//133 116//127 100//126
f 117//133 133//134 132//128 116//127
f 133//134 149//135 148//129 132//128
f 149//135 150//48 148//129
f 54//33 69//130 50//32
f 54//33 70//36 85//131 69//130
f 70//36 86//38 101//132 85//131
f 86//38 102//42 117//133 101//132
f 102//42 118//43 133//134 117//133
f 118//43 134//46 149//135 133//134
f 134//46 150//48 149//135
f 151//49 152//74 153//99 150//48

