# WaveFront *.obj file (generated by CINEMA 4D)

v 4.07465028762817 1.72207534313202 4.19946718215942
v 3.09917283058167 3.18198037147522 -3.13997101783752
v 4.41719245910645 0 9.0420093536377
v 4.41719245910645 0 -8.9579906463623
v 4.07465028762817 -1.72207534313202 9.0420093536377
v 4.07465028762817 -1.72207534313202 -8.9579906463623
v 3.09917283058167 -3.18198037147522 9.0420093536377
v 3.09917283058167 -3.18198037147522 -8.9579906463623
v 1.63926780223846 -4.15745782852173 9.0420093536377
v 1.63926780223846 -4.15745782852173 -8.9579906463623
v -0.08280754089355 -4.5 9.0420093536377
v -0.08280754089355 -4.5 -8.9579906463623
v -1.80488288402557 -4.15745782852173 9.0420093536377
v -1.80488288402557 -4.15745782852173 -8.9579906463623
v -3.26478791236877 -3.18198037147522 9.0420093536377
v -3.26478791236877 -3.18198037147522 -8.9579906463623
v -4.24026536941528 -1.72207534313202 9.0420093536377
v -4.24026536941528 -1.72207534313202 -8.9579906463623
v -4.58280754089355 -0 9.0420093536377
v -4.58280754089355 -0 -8.9579906463623
v -4.24026536941528 1.72207534313202 9.0420093536377
v -4.24026536941528 1.72207534313202 -8.9579906463623
v -3.26478791236877 3.18198037147522 9.0420093536377
v -3.26478791236877 3.18198037147522 -8.9579906463623
v -1.80488288402557 4.15745782852173 9.0420093536377
v -1.80488288402557 4.15745782852173 -8.9579906463623
v -0.08280754089355 4.5 9.0420093536377
v -0.08280754089355 4.5 -8.9579906463623
v 1.63926780223846 4.15745782852173 9.0420093536377
v 1.63926780223846 4.15745782852173 -8.9579906463623
v 3.09917283058167 3.18198037147522 9.0420093536377
v 3.09917283058167 3.18198037147522 -8.9579906463623
v 4.07465028762817 1.72207534313202 9.0420093536377
v 4.07465028762817 1.72207534313202 -8.9579906463623
v 4.41719245910645 -0 -4.4579906463623
v 4.07465028762817 -1.72207534313202 -4.11544847488403
v 4.41719245910645 0 4.5420093536377
v 4.07465028762817 -1.72207534313202 4.19946718215942
v 3.09917283058167 -3.18198037147522 -3.13997101783752
v 3.09917283058167 -3.18198037147522 3.22398972511292
v -1.80488288402557 -4.15745782852173 -4.11544847488403
v -1.80488288402557 -4.15745782852173 4.19946718215942
v 1.63926780223846 -4.15745782852173 -4.11544847488403
v 1.63926780223846 -4.15745782852173 4.19946718215942
v -0.08280754089355 -4.5 -4.4579906463623
v -0.08280754089355 -4.5 4.5420093536377
v -3.26478791236877 -3.18198037147522 3.22398972511292
v -4.24026536941528 -1.72207534313202 -4.11544847488403
v -3.26478791236877 -3.18198037147522 -3.13997101783752
v -4.24026536941528 -1.72207534313202 4.19946718215942
v -4.24026536941528 1.72207534313202 -4.11544847488403
v -3.26478791236877 3.18198037147522 3.22398972511292
v -3.26478791236877 3.18198037147522 -3.13997101783752
v -4.58280754089355 -0 -4.4579906463623
v -0.08280754089355 4.5 -4.4579906463623
v -4.58280754089355 -0 4.5420093536377
v -4.24026536941528 1.72207534313202 4.19946718215942
v -1.80488288402557 4.15745782852173 -4.11544847488403
v -1.80488288402557 4.15745782852173 4.19946718215942
v 4.07465028762817 1.72207534313202 -4.11544847488403
v -0.08280754089355 4.5 4.5420093536377
v 1.63926780223846 4.15745782852173 4.19946718215942
v 1.63926780223846 4.15745782852173 -4.11544847488403
v 3.09917283058167 3.18198037147522 3.22398972511292
# 64 vertices

vn 0 0 1
vn 1 0 -0
vn 0.92387956380844 -0.38268333673477 -0
vn 0.92387956380844 -0.38268342614174 0
vn 1 0 0
vn 0 0 -1
vn 0.70710682868958 -0.70710676908493 0
vn 0.70710676908493 -0.70710682868958 0
vn 0.38268333673477 -0.92387956380844 0
vn 0.38268342614174 -0.92387956380844 0
vn 0 0 0
vn 0 -1 0
vn -0.38268342614174 -0.92387956380844 0
vn -0.38268333673477 -0.92387956380844 0
vn -0.70710682868958 -0.70710676908493 0
vn -0.70710676908493 -0.70710682868958 0
vn -0.92387956380844 -0.38268333673477 0
vn -0.92387956380844 -0.38268342614174 0
vn -1 0 0
vn -1 0 0
vn 0.38268342614174 0.92387956380844 0
vn 0 1 0
vn -0.92387956380844 0.38268342614174 0
vn -0.92387956380844 0.38268333673477 0
vn 0.70710682868958 0.70710676908493 0
vn 0.92387956380844 0.38268342614174 0
vn 0.70710682868958 0.70710676908493 0
vn -0.70710676908493 0.70710682868958 0
vn -0.70710682868958 0.70710676908493 0
vn 0.92387956380844 0.38268333673477 0
vn -0.38268333673477 0.92387956380844 0
vn -0.38268342614174 0.92387956380844 0
vn 0.38268345594406 0.9238795042038 0
# 33 normals

o Cylinder.Z
usemtl default
f 27//1 25//1 23//1 21//1 19//1 17//1 15//1 13//1 11//1 9//1 7//1 5//1 3//1 33//1 31//1 29//1
f 36//3 6//3 4//2 35//2
f 37//5 3//5 5//4 38//4
f 6//6 8//6 10//6 12//6 14//6 16//6 18//6 20//6 22//6 24//6 26//6 28//6 30//6 32//6 34//6 4//6
f 39//7 8//7 6//3 36//3
f 38//4 5//4 7//8 40//8
f 40//8 7//8 9//9 44//9
f 43//10 10//10 8//7 39//7
f 44//9 9//9 11//12 46//12
f 45//12 12//12 10//10 43//10
f 46//12 11//12 13//13 42//13
f 41//14 14//14 12//12 45//12
f 42//13 13//13 15//15 47//15
f 49//16 16//16 14//14 41//14
f 47//15 15//15 17//17 50//17
f 48//18 18//18 16//16 49//16
f 50//17 17//17 19//19 56//19
f 54//20 20//20 18//18 48//18
f 61//22 27//22 29//21 62//21
f 56//19 19//19 21//23 57//23
f 51//24 22//24 20//20 54//20
f 60//26 34//26 32//25 2//25
f 62//21 29//21 31//27 64//27
f 57//23 21//23 23//28 52//28
f 53//29 24//29 22//24 51//24
f 35//2 4//2 34//26 60//26
f 1//30 33//30 3//5 37//5
f 52//28 23//28 25//31 59//31
f 58//32 26//32 24//29 53//29
f 63//33 30//33 28//22 55//22
f 59//31 25//31 27//22 61//22
f 55//22 28//22 26//32 58//32
f 64//27 31//27 33//30 1//30
f 2//25 32//25 30//33 63//33

v -9.08280754089355 -4.5 0.0420093536377
v 8.91719245910645 -4.5 0.0420093536377
v -9.08280754089355 -4.15745782852173 -1.68006598949432
v 8.91719245910645 -4.15745782852173 -1.68006598949432
v -9.08280754089355 -3.18198037147522 -3.13997101783752
v 8.91719245910645 -3.18198037147522 -3.13997101783752
v -9.08280754089355 -1.72207534313202 -4.11544847488403
v 8.91719245910645 -1.72207534313202 -4.11544847488403
v -9.08280754089355 -0 -4.4579906463623
v 8.91719245910645 -0 -4.4579906463623
v -9.08280754089355 1.72207534313202 -4.11544847488403
v 8.91719245910645 1.72207534313202 -4.11544847488403
v -9.08280754089355 3.18198037147522 -3.13997101783752
v 8.91719245910645 3.18198037147522 -3.13997101783752
v -9.08280754089355 4.15745782852173 -1.68006598949432
v 8.91719245910645 4.15745782852173 -1.68006598949432
v -9.08280754089355 4.5 0.0420093536377
v 8.91719245910645 4.5 0.0420093536377
v -9.08280754089355 4.15745782852173 1.76408469676971
v 8.91719245910645 4.15745782852173 1.76408469676971
v -9.08280754089355 3.18198037147522 3.22398972511292
v 8.91719245910645 3.18198037147522 3.22398972511292
v -9.08280754089355 1.72207534313202 4.19946718215942
v 8.91719245910645 1.72207534313202 4.19946718215942
v -9.08280754089355 0 4.5420093536377
v 8.91719245910645 0 4.5420093536377
v -9.08280754089355 -1.72207534313202 4.19946718215942
v 8.91719245910645 -1.72207534313202 4.19946718215942
v -9.08280754089355 -3.18198037147522 3.22398972511292
v 8.91719245910645 -3.18198037147522 3.22398972511292
v -9.08280754089355 -4.15745782852173 1.76408469676971
v 8.91719245910645 -4.15745782852173 1.76408469676971
v 4.41719245910645 -4.5 0.0420093536377
v 4.07465028762817 -4.15745782852173 -1.68006598949432
v -4.58280754089355 -4.5 0.0420093536377
v -4.24026536941528 -4.15745782852173 -1.68006598949432
v 3.09917283058167 -3.18198037147522 -3.13997101783752
v 4.07465028762817 4.15745782852173 -1.68006598949432
v -4.24026536941528 4.15745782852173 -1.68006598949432
v 4.41719245910645 4.5 0.0420093536377
v -4.58280754089355 4.5 0.0420093536377
v -4.24026536941528 4.15745782852173 1.76408469676971
v 4.07465028762817 4.15745782852173 1.76408469676971
v -3.26478791236877 3.18198037147522 3.22398972511292
v -4.24026536941528 -4.15745782852173 1.76408469676971
v 4.07465028762817 -4.15745782852173 1.76408469676971
v -4.24026536941528 -1.72207534313202 -4.11544847488403
v -4.24026536941528 -1.72207534313202 4.19946718215942
# 48 vertices

vn -1 0 0
vn 0 -0.92387956380844 -0.38268342614174
vn 0 -0.92387956380844 -0.38268333673477
vn 1 0 0
vn 0 -0.70710676908493 -0.70710682868958
vn 0 -0.70710682868958 -0.70710676908493
vn -0 -0.38268333673477 -0.92387956380844
vn 0 -0.38268342614174 -0.92387956380844
vn -0 0 -1
vn 0 0.38268342614174 -0.92387956380844
vn -0 0.38268333673477 -0.92387956380844
vn 0 0.70710682868958 -0.70710676908493
vn 0 0.70710676908493 -0.70710682868958
vn 0 0.92387956380844 -0.38268342614174
vn 0 0.92387956380844 -0.38268333673477
vn 0 0.92387956380844 0.38268333673477
vn 0 0.92387956380844 0.38268342614174
vn 0 -0.70710682868958 0.70710676908493
vn 0 -0.38268342614174 0.92387956380844
vn 0 0.70710682868958 0.70710676908493
vn 0 0.70710676908493 0.70710682868958
vn -0 -0.70710682868958 0.70710676908493
vn 0 -0.92387956380844 0.38268342614174
vn 0 -0.92387956380844 0.38268333673477
vn 0 0.38268333673477 0.92387956380844
vn 0 0.38268342614174 0.92387956380844
vn 0 0 1
vn -0 -0.38268345594406 0.9238795042038
vn 0 0.00000003798273 1
# 29 normals

o Cylinder.X
usemtl default
f 93//11 91//34 89//34 87//34 85//34 83//34 81//34 79//34 77//34 75//34 73//34 71//34 69//34 67//34 65//34 95//34
f 99//12 65//12 67//35 100//35
f 98//36 68//36 66//12 97//12
f 68//37 70//37 72//37 74//37 76//37 78//37 80//37 82//37 84//37 86//37 88//37 90//37 92//37 94//37 96//37 66//37
f 100//35 67//35 69//38 49//38
f 101//39 70//39 68//36 98//36
f 49//38 69//38 71//40 111//40
f 36//41 72//41 70//39 101//39
f 111//40 71//40 73//42 54//42
f 35//42 74//42 72//41 36//41
f 54//42 73//42 75//43 51//43
f 60//44 76//44 74//42 35//42
f 51//43 75//43 77//45 53//45
f 2//46 78//46 76//44 60//44
f 102//47 80//47 78//46 2//46
f 53//45 77//45 79//48 103//48
f 104//22 82//22 80//47 102//47
f 103//48 79//48 81//22 105//22
f 107//49 84//49 82//22 104//22
f 105//22 81//22 83//50 106//50
f 112//52 91//52 93//51 47//51
f 64//53 86//53 84//49 107//49
f 106//50 83//50 85//54 108//54
f 110//56 96//56 94//55 40//55
f 109//57 95//57 65//12 99//12
f 108//54 85//54 87//58 57//58
f 1//59 88//59 86//53 64//53
f 97//12 66//12 96//56 110//56
f 38//61 92//61 90//60 37//60
f 57//58 87//58 89//62 56//62
f 37//60 90//60 88//59 1//59
f 47//51 93//51 95//57 109//57
f 40//55 94//55 92//61 38//61
f 56//62 89//62 91//52 112//52

v 1.63926780223846 4.15745782852173 -4.11544847488403
v 4.41719245910645 -9 0.0420093536377
v 4.41719245910645 9 0.0420093536377
v 4.07465028762817 -9 -1.68006598949432
v 4.07465028762817 9 -1.68006598949432
v 3.09917283058167 -9 -3.13997101783752
v 3.09917283058167 9 -3.13997101783752
v 1.63926780223846 -9 -4.11544847488403
v 1.63926780223846 9 -4.11544847488403
v -0.08280754089355 -9 -4.4579906463623
v -0.08280754089355 9 -4.4579906463623
v -1.80488288402557 -9 -4.11544847488403
v -1.80488288402557 9 -4.11544847488403
v -3.26478791236877 -9 -3.13997101783752
v -3.26478791236877 9 -3.13997101783752
v -4.24026536941528 -9 -1.68006598949432
v -4.24026536941528 9 -1.68006598949432
v -4.58280754089355 -9 0.0420093536377
v -4.58280754089355 9 0.0420093536377
v -4.24026536941528 -9 1.76408469676971
v -4.24026536941528 9 1.76408469676971
v -3.26478791236877 -9 3.22398972511292
v -3.26478791236877 9 3.22398972511292
v -1.80488288402557 -9 4.19946718215942
v -1.80488288402557 9 4.19946718215942
v -0.08280754089355 -9 4.5420093536377
v -0.08280754089355 9 4.5420093536377
v 1.63926780223846 -9 4.19946718215942
v 1.63926780223846 9 4.19946718215942
v 3.09917283058167 -9 3.22398972511292
v 3.09917283058167 9 3.22398972511292
v 4.07465028762817 -9 1.76408469676971
v 4.07465028762817 9 1.76408469676971
v -1.80488288402557 4.15745782852173 -4.11544847488403
v -1.80488288402557 4.15745782852173 4.19946718215942
v -0.08280754089355 4.5 -4.4579906463623
v -0.08280754089355 4.5 4.5420093536377
# 37 vertices

vn 0 -1 0
vn 0.92387956380844 0 -0.38268342614174
vn 0.92387956380844 0 -0.38268333673477
vn 0 1 0
vn 0.70710676908493 0 -0.70710682868958
vn 0.70710682868958 0 -0.70710676908493
vn 0.38268342614174 0 -0.92387956380844
vn 0.38268333673477 0 -0.92387956380844
vn 0 0 -1
vn -0.38268333673477 0 -0.92387956380844
vn -0.38268342614174 0 -0.92387956380844
vn -0.70710676908493 0 -0.70710682868958
vn -0.70710682868958 0 -0.70710676908493
vn -0.92387956380844 0 -0.38268333673477
vn -0.92387956380844 0 -0.38268342614174
vn -0.92387956380844 0 0.38268342614174
vn -0.92387956380844 0 0.38268333673477
vn 0.38268342614174 0 0.92387956380844
vn 0 0 1
vn -0.70710676908493 0 0.70710682868958
vn -0.70710682868958 0 0.70710676908493
vn 0.70710682868958 -0 0.70710676908493
vn 0.92387956380844 0 0.38268342614174
vn 0.70710682868958 0 0.70710676908493
vn -0.38268333673477 0 0.92387956380844
vn -0.38268342614174 0 0.92387956380844
vn 0.92387956380844 0 0.38268333673477
vn -0.00000003798273 -0 1
vn 0.38268342614174 -0 0.92387956380844
# 29 normals

o Cylinder.Y
usemtl default
f 142//11 140//63 138//63 136//63 134//63 132//63 130//63 128//63 126//63 124//63 122//63 120//63 118//63 116//63 114//63 144//63
f 97//5 114//5 116//64 98//64
f 102//65 117//65 115//5 104//5
f 117//66 119//66 121//66 123//66 125//66 127//66 129//66 131//66 133//66 135//66 137//66 139//66 141//66 143//66 145//66 115//66
f 98//64 116//64 118//67 101//67
f 2//68 119//68 117//65 102//65
f 113//69 121//69 119//68 2//68
f 101//67 118//67 120//70 43//70
f 43//70 120//70 122//71 45//71
f 148//71 123//71 121//69 113//69
f 146//72 125//72 123//71 148//71
f 45//71 122//71 124//73 41//73
f 53//74 127//74 125//72 146//72
f 41//73 124//73 126//75 49//75
f 49//75 126//75 128//76 100//76
f 103//77 129//77 127//74 53//74
f 100//76 128//76 130//19 99//19
f 105//19 131//19 129//77 103//77
f 99//19 130//19 132//78 109//78
f 106//79 133//79 131//19 105//19
f 46//81 138//81 140//80 44//80
f 109//78 132//78 134//82 47//82
f 108//83 135//83 133//79 106//79
f 107//85 145//85 143//84 64//84
f 44//80 140//80 142//86 40//86
f 47//82 134//82 136//87 42//87
f 147//88 137//88 135//83 108//83
f 104//5 115//5 145//85 107//85
f 110//89 144//89 114//5 97//5
f 42//87 136//87 138//81 46//81
f 149//90 139//90 137//88 147//88
f 40//86 142//86 144//89 110//89
f 64//84 143//84 141//91 62//91
f 62//91 141//91 139//90 149//90

