# WaveFront *.obj file (generated by CINEMA 4D)

v 0.0 -0.9 0.0
v 0.0 0.9 0.0
v 0.45 -0.9 0.0
v 0.45 0.9 0.0
v 0.41574576 -0.9 -0.17220753
v 0.41574576 0.9 -0.17220753
v 0.31819806 -0.9 -0.31819806
v 0.31819806 0.9 -0.31819806
v 0.17220753 -0.9 -0.41574576
v 0.17220753 0.9 -0.41574576
v 0.0 -0.9 -0.45
v 0.0 0.9 -0.45
v -0.17220753 -0.9 -0.41574576
v -0.17220753 0.9 -0.41574576
v -0.31819806 -0.9 -0.31819806
v -0.31819806 0.9 -0.31819806
v -0.41574576 -0.9 -0.17220753
v -0.41574576 0.9 -0.17220753
v -0.45 -0.9 -0.0
v -0.45 0.9 -0.0
v -0.41574576 -0.9 0.17220753
v -0.41574576 0.9 0.17220753
v -0.31819806 -0.9 0.31819806
v -0.31819806 0.9 0.31819806
v -0.17220753 -0.9 0.41574576
v -0.17220753 0.9 0.41574576
v -0.0 -0.9 0.45
v -0.0 0.9 0.45
v 0.17220753 -0.9 0.41574576
v 0.17220753 0.9 0.41574576
v 0.31819806 -0.9 0.31819806
v 0.31819806 0.9 0.31819806
v 0.41574576 -0.9 0.17220753
v 0.41574576 0.9 0.17220753
# 34 vertices

vn 0.0 -1.0 0.0
vn 0.0 0.0 0.0
vn 1.0 0.0 0.0
vn 0.92387956 0.0 -0.38268337
vn 0.0 1.0 0.0
vn 0.70710677 0.0 -0.70710677
vn 0.38268337 0.0 -0.92387956
vn 0.0 0.0 -1.0
vn -0.38268337 0.0 -0.92387956
vn -0.70710677 0.0 -0.70710677
vn -0.92387956 0.0 -0.38268337
vn -1.0 0.0 0.0
vn -0.92387956 0.0 0.38268337
vn -0.70710677 0.0 0.70710677
vn -0.38268337 0.0 0.92387956
vn 0.0 0.0 1.0
vn 0.38268337 0.0 0.92387956
vn 0.70710677 0.0 0.70710677
vn 0.92387956 0.0 0.38268337
# 19 normals

o Cylinder.Y
usemtl default
f 5//1 3//1 1//1
f 5//4 6//4 4//3 3//3
f 6//5 2//5 4//5
f 7//1 5//1 1//1
f 7//6 8//6 6//4 5//4
f 8//5 2//5 6//5
f 9//1 7//1 1//1
f 9//7 10//7 8//6 7//6
f 10//5 2//5 8//5
f 11//1 9//1 1//1
f 11//8 12//8 10//7 9//7
f 12//5 2//5 10//5
f 13//1 11//1 1//1
f 13//9 14//9 12//8 11//8
f 14//5 2//5 12//5
f 15//1 13//1 1//1
f 15//10 16//10 14//9 13//9
f 16//5 2//5 14//5
f 17//1 15//1 1//1
f 17//11 18//11 16//10 15//10
f 18//5 2//5 16//5
f 19//1 17//1 1//1
f 19//12 20//12 18//11 17//11
f 20//5 2//5 18//5
f 21//1 19//1 1//1
f 21//13 22//13 20//12 19//12
f 22//5 2//5 20//5
f 23//1 21//1 1//1
f 23//14 24//14 22//13 21//13
f 24//5 2//5 22//5
f 25//1 23//1 1//1
f 25//15 26//15 24//14 23//14
f 26//5 2//5 24//5
f 27//1 25//1 1//1
f 27//16 28//16 26//15 25//15
f 28//5 2//5 26//5
f 29//1 27//1 1//1
f 29//17 30//17 28//16 27//16
f 30//5 2//5 28//5
f 31//1 29//1 1//1
f 31//18 32//18 30//17 29//17
f 32//5 2//5 30//5
f 33//1 31//1 1//1
f 33//19 34//19 32//18 31//18
f 34//5 2//5 32//5
f 3//1 33//1 1//1
f 3//3 4//3 34//19 33//19
f 4//5 2//5 34//5

v -0.9 0.0 0.0
v 0.9 0.0 0.0
v -0.9 -0.45 0.0
v 0.9 -0.45 0.0
v -0.9 -0.41574576 -0.17220753
v 0.9 -0.41574576 -0.17220753
v -0.9 -0.31819806 -0.31819806
v 0.9 -0.31819806 -0.31819806
v -0.9 -0.17220753 -0.41574576
v 0.9 -0.17220753 -0.41574576
v -0.9 -0.0 -0.45
v 0.9 -0.0 -0.45
v -0.9 0.17220753 -0.41574576
v 0.9 0.17220753 -0.41574576
v -0.9 0.31819806 -0.31819806
v 0.9 0.31819806 -0.31819806
v -0.9 0.41574576 -0.17220753
v 0.9 0.41574576 -0.17220753
v -0.9 0.45 -0.0
v 0.9 0.45 -0.0
v -0.9 0.41574576 0.17220753
v 0.9 0.41574576 0.17220753
v -0.9 0.31819806 0.31819806
v 0.9 0.31819806 0.31819806
v -0.9 0.17220753 0.41574576
v 0.9 0.17220753 0.41574576
v -0.9 0.0 0.45
v 0.9 0.0 0.45
v -0.9 -0.17220753 0.41574576
v 0.9 -0.17220753 0.41574576
v -0.9 -0.31819806 0.31819806
v 0.9 -0.31819806 0.31819806
v -0.9 -0.41574576 0.17220753
v 0.9 -0.41574576 0.17220753
# 34 vertices

vn -1.0 0.0 0.0
vn 0.0 -1.0 0.0
vn 0.0 -0.92387956 -0.38268337
vn 1.0 0.0 0.0
vn 0.0 -0.70710677 -0.70710677
vn 0.0 -0.38268337 -0.92387956
vn 0.0 0.38268337 -0.92387956
vn 0.0 0.70710677 -0.70710677
vn 0.0 0.92387956 -0.38268337
vn 0.0 1.0 0.0
vn 0.0 0.92387956 0.38268337
vn 0.0 0.70710677 0.70710677
vn 0.0 0.38268337 0.92387956
vn 0.0 -0.38268337 0.92387956
vn 0.0 -0.70710677 0.70710677
vn 0.0 -0.92387956 0.38268337
# 16 normals

o Cylinder.X
usemtl default
f 39//20 37//20 35//20
f 39//22 40//22 38//21 37//21
f 40//23 36//23 38//23
f 41//20 39//20 35//20
f 41//24 42//24 40//22 39//22
f 42//23 36//23 40//23
f 43//20 41//20 35//20
f 43//25 44//25 42//24 41//24
f 44//23 36//23 42//23
f 45//20 43//20 35//20
f 45//8 46//8 44//25 43//25
f 46//23 36//23 44//23
f 47//20 45//20 35//20
f 47//26 48//26 46//8 45//8
f 48//23 36//23 46//23
f 49//20 47//20 35//20
f 49//27 50//27 48//26 47//26
f 50//23 36//23 48//23
f 51//20 49//20 35//20
f 51//28 52//28 50//27 49//27
f 52//23 36//23 50//23
f 53//20 51//20 35//20
f 53//29 54//29 52//28 51//28
f 54//23 36//23 52//23
f 55//20 53//20 35//20
f 55//30 56//30 54//29 53//29
f 56//23 36//23 54//23
f 57//20 55//20 35//20
f 57//31 58//31 56//30 55//30
f 58//23 36//23 56//23
f 59//20 57//20 35//20
f 59//32 60//32 58//31 57//31
f 60//23 36//23 58//23
f 61//20 59//20 35//20
f 61//16 62//16 60//32 59//32
f 62//23 36//23 60//23
f 63//20 61//20 35//20
f 63//33 64//33 62//16 61//16
f 64//23 36//23 62//23
f 65//20 63//20 35//20
f 65//34 66//34 64//33 63//33
f 66//23 36//23 64//23
f 67//20 65//20 35//20
f 67//35 68//35 66//34 65//34
f 68//23 36//23 66//23
f 37//20 67//20 35//20
f 37//21 38//21 68//35 67//35
f 38//23 36//23 68//23

v 0.0 0.0 0.9
v 0.0 0.0 -0.9
v 0.45 0.0 0.9
v 0.45 0.0 -0.9
v 0.41574576 -0.17220753 0.9
v 0.41574576 -0.17220753 -0.9
v 0.31819806 -0.31819806 0.9
v 0.31819806 -0.31819806 -0.9
v 0.17220753 -0.41574576 0.9
v 0.17220753 -0.41574576 -0.9
v 0.0 -0.45 0.9
v 0.0 -0.45 -0.9
v -0.17220753 -0.41574576 0.9
v -0.17220753 -0.41574576 -0.9
v -0.31819806 -0.31819806 0.9
v -0.31819806 -0.31819806 -0.9
v -0.41574576 -0.17220753 0.9
v -0.41574576 -0.17220753 -0.9
v -0.45 -0.0 0.9
v -0.45 -0.0 -0.9
v -0.41574576 0.17220753 0.9
v -0.41574576 0.17220753 -0.9
v -0.31819806 0.31819806 0.9
v -0.31819806 0.31819806 -0.9
v -0.17220753 0.41574576 0.9
v -0.17220753 0.41574576 -0.9
v -0.0 0.45 0.9
v -0.0 0.45 -0.9
v 0.17220753 0.41574576 0.9
v 0.17220753 0.41574576 -0.9
v 0.31819806 0.31819806 0.9
v 0.31819806 0.31819806 -0.9
v 0.41574576 0.17220753 0.9
v 0.41574576 0.17220753 -0.9
# 34 vertices

vn 0.0 0.0 1.0
vn 0.92387956 -0.38268337 0.0
vn 0.0 0.0 -1.0
vn 0.70710677 -0.70710677 0.0
vn 0.38268337 -0.92387956 0.0
vn -0.38268337 -0.92387956 0.0
vn -0.70710677 -0.70710677 0.0
vn -0.92387956 -0.38268337 0.0
vn -0.92387956 0.38268337 0.0
vn -0.70710677 0.70710677 0.0
vn -0.38268337 0.92387956 0.0
vn 0.38268337 0.92387956 0.0
vn 0.70710677 0.70710677 0.0
vn 0.92387956 0.38268337 0.0
# 14 normals

o Cylinder.Z
usemtl default
f 73//36 71//36 69//36
f 73//37 74//37 72//3 71//3
f 74//38 70//38 72//38
f 75//36 73//36 69//36
f 75//39 76//39 74//37 73//37
f 76//38 70//38 74//38
f 77//36 75//36 69//36
f 77//40 78//40 76//39 75//39
f 78//38 70//38 76//38
f 79//36 77//36 69//36
f 79//21 80//21 78//40 77//40
f 80//38 70//38 78//38
f 81//36 79//36 69//36
f 81//41 82//41 80//21 79//21
f 82//38 70//38 80//38
f 83//36 81//36 69//36
f 83//42 84//42 82//41 81//41
f 84//38 70//38 82//38
f 85//36 83//36 69//36
f 85//43 86//43 84//42 83//42
f 86//38 70//38 84//38
f 87//36 85//36 69//36
f 87//12 88//12 86//43 85//43
f 88//38 70//38 86//38
f 89//36 87//36 69//36
f 89//44 90//44 88//12 87//12
f 90//38 70//38 88//38
f 91//36 89//36 69//36
f 91//45 92//45 90//44 89//44
f 92//38 70//38 90//38
f 93//36 91//36 69//36
f 93//46 94//46 92//45 91//45
f 94//38 70//38 92//38
f 95//36 93//36 69//36
f 95//29 96//29 94//46 93//46
f 96//38 70//38 94//38
f 97//36 95//36 69//36
f 97//47 98//47 96//29 95//29
f 98//38 70//38 96//38
f 99//36 97//36 69//36
f 99//48 100//48 98//47 97//47
f 100//38 70//38 98//38
f 101//36 99//36 69//36
f 101//49 102//49 100//48 99//48
f 102//38 70//38 100//38
f 71//36 101//36 69//36
f 71//3 72//3 102//49 101//49
f 72//38 70//38 102//38

