# WaveFront *.obj file (generated by CINEMA 4D)

v 2.595 0.905 0.7949999
v 2.5949998 0.905 -0.795
v 1.005 0.905 -0.7949999
v 1.005 0.905 0.795
v 2.645 0.9183974 0.7949999
v 2.645 0.9183974 -0.795
v 2.6383011 0.9183974 -0.82
v 2.62 0.9183974 -0.8383013
v 2.5949998 0.9183974 -0.845
v 1.005 0.9183974 -0.8449999
v 0.97999996 0.9183974 -0.8383012
v 0.96169865 0.9183974 -0.8199999
v 0.9549999 0.9183974 -0.7949999
v 0.95500004 0.9183974 0.795
v 0.9616988 0.9183974 0.82
v 0.9800001 0.9183974 0.8383013
v 1.005 0.9183974 0.845
v 2.595 0.9183974 0.8449999
v 2.62 0.9183974 0.8383012
v 2.6383011 0.9183974 0.8199999
v 2.6816025 0.955 0.7949999
v 2.6816025 0.955 -0.795
v 2.6699998 0.955 -0.8383013
v 2.6383011 0.955 -0.87
v 2.5949998 0.955 -0.8816026
v 1.005 0.955 -0.88160247
v 0.96169865 0.955 -0.8699999
v 0.92999995 0.955 -0.8383012
v 0.91839737 0.955 -0.7949999
v 0.9183975 0.955 0.795
v 0.93000007 0.955 0.8383013
v 0.9616988 0.955 0.87
v 1.005 0.955 0.8816026
v 2.595 0.955 0.88160247
v 2.6383011 0.955 0.8699999
v 2.67 0.955 0.8383011
v 2.695 1.005 0.7949999
v 2.695 1.005 -0.795
v 2.6816025 1.005 -0.845
v 2.645 1.005 -0.8816026
v 2.5949998 1.005 -0.89500004
v 1.005 1.005 -0.8949999
v 0.9549999 1.005 -0.88160247
v 0.91839737 1.005 -0.8449999
v 0.90500003 1.005 0.795
v 0.9183975 1.005 0.845
v 0.95500004 1.005 0.8816026
v 1.005 1.005 0.89500004
v 2.595 1.005 0.8949999
v 2.645 1.005 0.88160247
v 2.6816025 1.005 0.84499985
v 2.695 2.5949998 0.7949999
v 2.695 2.5949998 -0.795
v 2.6816025 2.5949998 -0.845
v 2.645 2.5949998 -0.8816026
v 2.5949998 2.5949998 -0.89500004
v 1.005 2.5949998 -0.8949999
v 0.9549999 2.5949998 -0.88160247
v 0.91839737 2.5949998 -0.8449999
v 0.90500003 2.5949998 0.795
v 0.9183975 2.5949998 0.845
v 0.95500004 2.5949998 0.8816026
v 1.005 2.5949998 0.89500004
v 2.595 2.5949998 0.8949999
v 2.645 2.5949998 0.88160247
v 2.6816025 2.5949998 0.84499985
v 2.6816025 2.645 0.7949999
v 2.6816025 2.645 -0.795
v 2.6699998 2.645 -0.8383013
v 2.6383011 2.645 -0.87
v 2.5949998 2.645 -0.8816026
v 1.005 2.645 -0.88160247
v 0.96169865 2.645 -0.8699999
v 0.92999995 2.645 -0.8383012
v 0.91839737 2.645 -0.7949999
v 0.9183975 2.645 0.795
v 0.93000007 2.645 0.8383013
v 0.9616988 2.645 0.87
v 1.005 2.645 0.8816026
v 2.595 2.645 0.88160247
v 2.6383011 2.645 0.8699999
v 2.67 2.645 0.8383011
v 2.645 2.6816025 0.7949999
v 2.645 2.6816025 -0.795
v 2.6383011 2.6816025 -0.82
v 2.62 2.6816025 -0.8383013
v 2.5949998 2.6816025 -0.845
v 1.005 2.6816025 -0.8449999
v 0.97999996 2.6816025 -0.8383012
v 0.96169865 2.6816025 -0.8199999
v 0.9549999 2.6816025 -0.7949999
v 0.95500004 2.6816025 0.795
v 0.9616988 2.6816025 0.82
v 0.9800001 2.6816025 0.8383013
v 1.005 2.6816025 0.845
v 2.595 2.6816025 0.8449999
v 2.62 2.6816025 0.8383012
v 2.6383011 2.6816025 0.8199999
v 2.595 2.695 0.7949999
v 2.5949998 2.695 -0.795
v 1.005 2.695 -0.7949999
v 1.005 2.695 0.795
v 0.9085585 2.5949998 -0.8082807
v 0.9085585 1.005 -0.8082807
v 0.90633965 0.99999994 -0.7949999
v 0.90633965 2.6 -0.7949999
v 0.90500003 1.005 0.7917193
v 0.90500003 2.5949998 0.7917193
v 0.955 0.9183974 -0.38328072
v 1.005 0.905 -0.38328072
v 0.955 0.9183974 0.36671928
v 1.005 0.905 0.36671928
v 0.9183974 0.955 -0.38328072
v 0.9183974 0.955 0.36671928
v 0.9059921 1.0012974 -0.38328072
v 0.9053588 1.0036607 0.36671928
v 1.270799 0.905 0.36671928
v 1.270799 0.905 -0.38328072
# 118 vertices

vn 0.11218443 -0.98733443 0.11218449
vn 0.49802306 -0.8646277 0.06627158
vn 0.4980229 -0.8646278 -0.06627199
vn 0.11218406 -0.9873345 -0.11218433
vn 0.8599232 -0.4975983 0.113701776
vn 0.8599228 -0.49759865 -0.11370275
vn 0.96985275 -0.17231603 0.17231618
vn 0.9698525 -0.17231674 -0.17231673
vn -0.13083819 -0.9827323 -0.13083827
vn -0.13052604 -0.9914449 9.64167E-9
vn 0.0 -1.0 0.0
vn 0.96985286 0.17231536 0.17231618
vn 0.85992306 0.49759847 0.113701746
vn 0.85992295 0.49759847 -0.11370278
vn 0.9698526 0.17231609 -0.17231673
vn 0.49802247 0.86462814 0.06627114
vn 0.49802262 0.86462796 -0.066271976
vn 0.15674484 0.9751216 0.15674472
vn 0.1567444 0.9751217 -0.1567448
vn 0.43148077 -0.86704403 -0.24911633
vn 0.0 0.0 0.0
vn 0.74914044 -0.50171465 -0.43251708
vn 0.8585997 -0.13067357 -0.49571258
vn 0.8585997 0.13067308 -0.49571264
vn 0.7491405 0.5017145 -0.4325171
vn 0.43148053 0.8670442 -0.24911614
vn 0.24911574 -0.8670442 -0.43148085
vn 0.43251663 -0.50171477 -0.7491406
vn 0.4957127 -0.13067353 -0.85859966
vn 0.49571273 0.13067308 -0.8585997
vn 0.43251663 0.50171477 -0.7491406
vn 0.24911554 0.8670444 -0.4314806
vn 0.06627094 -0.8646278 -0.49802306
vn 0.113701746 -0.49759874 -0.8599229
vn 0.12949826 -0.12949872 -0.9830871
vn 0.12949829 0.12949832 -0.9830872
vn 0.11370176 0.49759868 -0.85992295
vn 0.06627091 0.86462796 -0.49802276
vn -0.06627108 -0.8646278 -0.4980231
vn -0.11370195 -0.49759865 -0.85992295
vn -0.12949857 -0.12949869 -0.98308706
vn -0.12949857 0.12949823 -0.9830871
vn -0.11370195 0.49759865 -0.85992295
vn -0.06627104 0.86462796 -0.49802268
vn -0.15674457 0.9751217 -0.15674464
vn -0.24911562 -0.86704415 -0.43148097
vn -0.43251663 -0.5017145 -0.7491408
vn -0.49571264 -0.13067313 -0.8585997
vn -0.49571267 0.13067268 -0.8585998
vn -0.43251666 0.5017145 -0.7491408
vn -0.24911544 0.8670444 -0.43148065
vn -0.43148085 -0.8670442 -0.24911569
vn -0.7968245 -0.45399034 -0.39870214
vn -0.85859966 -0.13067321 -0.49571273
vn -0.8929417 0.1733408 -0.4154612
vn -0.7491406 0.5017146 -0.4325168
vn -0.43148056 0.8670444 -0.24911551
vn -0.4980229 -0.86462784 -0.06627114
vn -0.8816478 -0.44972697 -0.1429784
vn -0.9581915 -0.25674695 -0.12629333
vn -0.94850636 -0.18905656 -0.25415212
vn -0.9581921 0.12628923 -0.25674677
vn -0.9521584 0.25512737 -0.16823906
vn -0.8816479 0.4497269 -0.14297822
vn -0.49802268 0.86462796 -0.06627111
vn -0.50000006 -0.8660254 6.061588E-8
vn -0.49802318 -0.8646277 0.06627124
vn -0.13083841 -0.98273224 0.13083833
vn -0.13052619 -0.9914449 9.08279E-9
vn -0.49999985 -0.8660255 6.325281E-8
vn -0.8660253 -0.5000001 1.4981447E-7
vn -0.88774586 -0.45128578 0.09082065
vn -0.8660254 -0.50000006 1.4217268E-7
vn -0.96592575 -0.25881937 1.9032862E-7
vn -0.98476905 -0.17386767 6.392879E-8
vn -0.9659258 -0.25881916 1.7157987E-7
vn -0.98308706 -0.12949869 0.12949869
vn -0.9847691 0.17386705 2.829279E-8
vn -0.9830871 0.12949824 0.12949869
vn -0.887746 0.4512856 0.09082064
vn -0.49802276 0.86462796 0.06627117
vn -0.15674482 0.9751216 0.15674473
vn -0.43148103 -0.8670441 0.24911581
vn -0.7491407 -0.5017145 0.43251678
vn -0.85859966 -0.13067311 0.4957128
vn -0.8585997 0.13067268 0.49571282
vn -0.7491407 0.50171447 0.4325168
vn -0.4314807 0.86704427 0.24911562
vn -0.24911591 -0.8670441 0.43148094
vn -0.43251693 -0.5017145 0.7491406
vn -0.49571294 -0.13067311 0.85859954
vn -0.495713 0.1306727 0.8585996
vn -0.4325169 0.5017144 0.7491407
vn -0.24911572 0.8670443 0.43148065
vn -0.06627129 -0.8646278 0.49802297
vn -0.11370221 -0.4975987 0.8599229
vn -0.12949881 -0.12949868 0.98308706
vn -0.12949882 0.12949826 0.9830871
vn -0.113702215 0.49759865 0.8599229
vn -0.06627125 0.86462796 0.4980227
vn 0.06627151 -0.8646278 0.49802297
vn 0.113702476 -0.49759877 0.85992277
vn 0.12949897 -0.1294988 0.983087
vn 0.12949897 0.1294983 0.98308706
vn 0.11370247 0.4975987 0.8599228
vn 0.066271454 0.86462796 0.4980227
vn 0.24911602 -0.86704415 0.4314808
vn 0.43251684 -0.5017145 0.7491406
vn 0.49571323 -0.13067308 0.8585994
vn 0.49571323 0.13067268 0.8585995
vn 0.43251687 0.5017144 0.7491407
vn 0.24911593 0.86704427 0.43148062
vn 0.4314808 -0.86704415 0.24911605
vn 0.7491408 -0.5017144 0.4325167
vn 0.8586 -0.1306726 0.4957123
vn 0.8586 0.13067219 0.49571237
vn 0.74914074 0.5017145 0.43251672
vn 0.43148035 0.8670445 0.2491156
# 118 normals

o Cube
usemtl default
f 2//4 6//3 5//2 1//1
f 6//3 22//6 21//5 5//2
f 22//6 38//8 37//7 21//5
f 2//4 118//11 110//10 3//9
f 53//15 68//14 67//13 52//12
f 68//14 84//17 83//16 67//13
f 84//17 100//19 99//18 83//16
f 7//20 6//3 2//4
f 7//20 23//22 22//6 6//3
f 23//22 39//23 38//8 22//6
f 39//23 54//24 53//15 38//8
f 54//24 69//25 68//14 53//15
f 69//25 85//26 84//17 68//14
f 85//26 100//19 84//17
f 8//27 7//20 2//4
f 8//27 24//28 23//22 7//20
f 24//28 40//29 39//23 23//22
f 40//29 55//30 54//24 39//23
f 55//30 70//31 69//25 54//24
f 70//31 86//32 85//26 69//25
f 86//32 100//19 85//26
f 9//33 8//27 2//4
f 9//33 25//34 24//28 8//27
f 25//34 41//35 40//29 24//28
f 41//35 56//36 55//30 40//29
f 56//36 71//37 70//31 55//30
f 71//37 87//38 86//32 70//31
f 87//38 100//19 86//32
f 3//9 10//39 9//33 2//4
f 10//39 26//40 25//34 9//33
f 26//40 42//41 41//35 25//34
f 42//41 57//42 56//36 41//35
f 57//42 72//43 71//37 56//36
f 72//43 88//44 87//38 71//37
f 88//44 101//45 100//19 87//38
f 11//46 10//39 3//9
f 11//46 27//47 26//40 10//39
f 27//47 43//48 42//41 26//40
f 43//48 58//49 57//42 42//41
f 58//49 73//50 72//43 57//42
f 73//50 89//51 88//44 72//43
f 89//51 101//45 88//44
f 12//52 11//46 3//9
f 12//52 28//53 27//47 11//46
f 28//53 44//54 43//48 27//47
f 44//54 59//55 58//49 43//48
f 59//55 74//56 73//50 58//49
f 74//56 90//57 89//51 73//50
f 90//57 101//45 89//51
f 13//58 12//52 3//9
f 13//58 29//59 28//53 12//52
f 104//61 29//59 105//60
f 28//53 104//61 44//54
f 104//61 28//53 29//59
f 104//61 103//62 59//55 44//54
f 106//63 59//55 103//62
f 75//64 74//56 59//55
f 59//55 106//63 75//64
f 75//64 91//65 90//57 74//56
f 91//65 101//45 90//57
f 112//69 4//68 14//67 111//66
f 109//70 13//58 3//9 110//10
f 111//66 14//67 30//72 114//71
f 13//58 109//70 113//73 29//59
f 114//71 30//72 107//75 116//74
f 113//73 115//76 105//60 29//59
f 107//75 30//72 45//77
f 107//75 45//77 60//79 108//78
f 76//80 108//78 60//79
f 108//78 76//80 75//64 106//63
f 76//80 92//81 91//65 75//64
f 92//81 102//82 101//45 91//65
f 15//83 14//67 4//68
f 15//83 31//84 30//72 14//67
f 31//84 46//85 45//77 30//72
f 46//85 61//86 60//79 45//77
f 61//86 77//87 76//80 60//79
f 77//87 93//88 92//81 76//80
f 93//88 102//82 92//81
f 16//89 15//83 4//68
f 16//89 32//90 31//84 15//83
f 32//90 47//91 46//85 31//84
f 47//91 62//92 61//86 46//85
f 62//92 78//93 77//87 61//86
f 78//93 94//94 93//88 77//87
f 94//94 102//82 93//88
f 17//95 16//89 4//68
f 17//95 33//96 32//90 16//89
f 33//96 48//97 47//91 32//90
f 48//97 63//98 62//92 47//91
f 63//98 79//99 78//93 62//92
f 79//99 95//100 94//94 78//93
f 95//100 102//82 94//94
f 1//1 18//101 17//95 4//68
f 18//101 34//102 33//96 17//95
f 34//102 49//103 48//97 33//96
f 49//103 64//104 63//98 48//97
f 64//104 80//105 79//99 63//98
f 80//105 96//106 95//100 79//99
f 96//106 99//18 102//82 95//100
f 19//107 18//101 1//1
f 19//107 35//108 34//102 18//101
f 35//108 50//109 49//103 34//102
f 50//109 65//110 64//104 49//103
f 65//110 81//111 80//105 64//104
f 81//111 97//112 96//106 80//105
f 97//112 99//18 96//106
f 20//113 19//107 1//1
f 20//113 36//114 35//108 19//107
f 36//114 51//115 50//109 35//108
f 51//115 66//116 65//110 50//109
f 66//116 82//117 81//111 65//110
f 82//117 98//118 97//112 81//111
f 98//118 99//18 97//112
f 5//2 20//113 1//1
f 5//2 21//5 36//114 20//113
f 21//5 37//7 51//115 36//114
f 37//7 52//12 66//116 51//115
f 52//12 67//13 82//117 66//116
f 67//13 83//16 98//118 82//117
f 83//16 99//18 98//118
f 112//69 117//11 1//1 4//68
f 117//11 118//11 2//4 1//1

v 2.590799 0.99999994 0.7917192
v 2.590799 2.6 0.7917192
v 2.5907989 0.99999994 -0.8082808
v 2.5907989 2.6 -0.8082808
v 0.9098983 0.99999994 -0.8082807
v 0.9098983 2.6 -0.8082807
v 0.90633976 0.99999994 0.7917193
v 0.90633976 2.6 0.7917193
v 0.9063397 2.6 -0.7949999
v 0.9063397 0.99999994 -0.7949999
v 0.9063397 0.99999994 -0.38328072
v 0.90633976 0.99999994 0.36671928
v 1.270799 0.99999994 0.36671928
v 1.270799 0.99999994 -0.38328072
# 14 vertices

vn -1.0 0.0 1.4901161E-7
vn 7.09199E-8 0.0 1.0
vn -7.077006E-8 0.0 -1.0
vn 0.0 1.0 0.0
vn 0.0 1.0 0.0
# 5 normals

o CubeHollow
usemtl default
f 122//119 121//119 119//119 120//119
f 122//120 124//120 123//120 121//120
f 119//121 125//121 126//121 120//121
f 127//11 122//11 120//11 126//11
f 127//11 124//11 122//11
f 132//122 121//122 128//122 129//122
f 132//122 131//122 119//122 121//122
f 119//122 131//122 130//122 125//122
f 128//122 121//122 123//123

v 1.270799 0.905 0.36671928
v 1.270799 0.905 -0.38328072
v 1.270799 0.99999994 -0.38328072
v 1.270799 0.99999994 0.36671928
v 1.005 0.905 -0.38328072
v 0.955 0.9183974 0.36671928
v 1.005 0.905 0.36671928
v 0.90599203 1.0012974 -0.38328072
v 0.9183974 0.955 0.36671928
v 0.90535885 1.0036607 0.36671928
# 10 vertices

vn -1.0 0.0 0.0
vn 0.0 0.0 1.0
vn -4.214685E-8 -0.0 -1.0
vn -4.214685E-8 -0.0 -1.0
vn -4.214685E-8 -0.0 -1.0
vn -4.214685E-8 -0.0 -1.0
vn -4.214685E-8 -0.0 -1.0
# 7 normals

o CubeSmallHollow
usemtl default
f 135//124 134//124 133//124 136//124
f 140//125 137//125 134//125 135//125
f 109//125 140//125 113//125
f 140//125 109//125 137//125
f 139//128 142//127 136//126 133//126
f 138//130 141//129 142//127
f 142//127 139//128 138//130

v 1.35 0.45 0.45000002
v 1.35 1.3499999 0.45000002
v 1.3499999 0.45 -0.44999996
v 1.3499999 1.3499999 -0.44999996
# 4 vertices

vn 1.0 0.0 -4.214685E-8
# 1 normal

o Face_1
usemtl default
f 145//131 146//131 144//131 143//131

v 0.44999996 0.45 -0.44999993
v 0.44999996 1.3499999 -0.44999993
# 2 vertices

vn -4.214685E-8 0.0 -1.0
# 1 normal

o Face_2
usemtl default
f 147//132 148//132 146//132 145//132

v 0.45000002 0.45 0.45000005
v 0.45000002 1.3499999 0.45000005
v 0.44999996 1.25 -0.3582807
v 0.44999996 0.54999995 -0.3582807
v 0.45 1.25 0.3417193
v 0.45 0.54999995 0.3417193
# 6 vertices

vn -1.0 -7.816659E-8 1.6481651E-7
vn -1.0 -7.816659E-8 2.720053E-8
vn -1.0 6.63403E-8 1.6481653E-7
vn -1.0 6.63403E-8 2.720054E-8
# 4 normals

o Face_3
usemtl default
f 154//133 152//134 147//134 149//133
f 153//135 154//133 149//133 150//135
f 151//136 153//135 150//135 148//136
f 152//134 151//136 148//136 147//134

# 0 vertex

vn 4.214685E-8 0.0 1.0
# 1 normal

o Face_4
usemtl default
f 143//137 144//137 150//137 149//137

# 0 vertex

# 0 normal

o Face_5
usemtl default
f 146//122 148//122 150//122 144//122

# 0 vertex

# 0 normal

o Face_6
usemtl default
f 147//11 145//11 143//11 149//11

v 1.2457991 0.54999995 0.34171927
v 1.2457991 1.25 0.34171927
v 1.245799 0.54999995 -0.35828072
v 1.245799 1.25 -0.35828072
v 0.44999996 1.25 -0.3582807
v 0.44999996 0.54999995 -0.3582807
v 0.45 1.25 0.3417193
v 0.45 0.54999995 0.3417193
# 8 vertices

vn -1.0 0.0 1.7029899E-7
vn 3.744956E-8 0.0 1.0
vn -3.744956E-8 0.0 -1.0
# 3 normals

o CubeSmallHollow_1
usemtl default
f 158//138 157//138 155//138 156//138
f 158//139 159//139 160//139 157//139
f 155//140 162//140 161//140 156//140
f 159//11 158//11 156//11 161//11
f 162//122 155//122 157//122 160//122

