# WaveFront *.obj file (generated by CINEMA 4D)

mtllib ./cube7-0.mtl

v 25.75 25 34.25
v 34.25 25 34.25
v 34.25 25 25.75
v 25.75 25 25.75
v 25.75 25.75 35
v 34.25 25.75 35
v 35 25.75 34.25
v 35 25.75 25.75
v 34.25 25.75 25
v 25.75 25.75 25
v 25 25.75 25.75
v 25 25.75 34.25
v 25.75 34.25 35
v 34.25 34.25 35
v 35 34.25 34.25
v 35 34.25 25.75
v 34.25 34.25 25
v 25.75 34.25 25
v 25 34.25 25.75
v 25 34.25 34.25
v 25.75 35 34.25
v 34.25 35 34.25
v 34.25 35 25.75
v 25.75 35 25.75
# 24 vertices

vn -0.4765103161335 -0.73883414268494 0.4765103161335
vn -0.47651028633118 -0.4765103161335 0.73883414268494
vn 0.4765103161335 -0.4765103161335 0.73883414268494
vn 0.4765103161335 -0.73883414268494 0.4765103161335
vn -0.73883414268494 0.4765103161335 0.4765103161335
vn -0.47651028633118 0.73883408308029 0.47651034593582
vn -0.47651028633118 0.47651034593582 0.73883408308029
vn 0 0 0
vn 0.4765103161335 0.73883414268494 0.4765103161335
vn 0.4765103161335 0.4765103161335 0.73883414268494
vn 0.73883414268494 -0.4765103161335 0.4765103161335
vn 0.73883414268494 0.4765103161335 0.4765103161335
vn 0.73883414268494 -0.4765103161335 -0.4765103161335
vn 0.4765103161335 -0.73883414268494 -0.4765103161335
vn 0 -1 0
vn 0.4765103161335 0.73883414268494 -0.4765103161335
vn 0.73883414268494 0.4765103161335 -0.4765103161335
vn 0.4765103161335 -0.4765103161335 -0.73883414268494
vn 0.4765103161335 0.4765103161335 -0.73883414268494
vn -0.4765103161335 -0.4765103161335 -0.73883414268494
vn -0.4765103161335 -0.73883414268494 -0.4765103161335
vn 0 0 -1
vn -0.47651028633118 0.73883408308029 -0.47651034593582
vn -0.4765103161335 0.4765103161335 -0.73883414268494
vn -0.73883414268494 -0.4765103161335 -0.4765103161335
vn -0.73883408308029 0.47651028633118 -0.47651034593582
vn -0.73883414268494 -0.4765103161335 0.47651028633118
vn -1 0 0
# 28 normals

vt 0 0 0
vt 0 0.10851848125458 0
vt 0.87827181816101 0.10851848125458 0
vt 0.87827181816101 0 0
vt 0.87827181816101 0.89148157835007 0
vt 0.93913590908051 1 0
vt 1 0.89148157835007 0
vt 0 0.89148157835007 0
vt 0 1 0
vt 0.87827181816101 1 0
vt 0.93913590908051 0 0
vt 1 0.10851848125458 0
vt 1 0 0
vt 1 1 0
# 14 texture coordinates

o corner0
usemtl default
f 2/4/4 6/3/3 5/2/2 1/1/1
f 13/7/7 21/6/6 20/5/5
f 14/5/10 22/10/9 21/9/6 13/8/7
f 7/12/11 6/3/3 2/11/4
f 7/12/11 15/7/12 14/5/10 6/3/3
f 15/7/12 22/6/9 14/5/10
f 3/4/14 8/3/13 7/2/11 2/1/4
f 4/1/15 3/13/15 2/14/15 1/9/15
f 16/5/17 23/10/16 22/9/9 15/8/12
f 9/12/18 8/3/13 3/11/14
f 9/12/18 17/7/19 16/5/17 8/3/13
f 17/7/19 23/6/16 16/5/17
f 4/4/21 10/3/20 9/2/18 3/1/14
f 10/3/22 18/5/22 17/8/22 9/2/22
f 18/5/24 24/10/23 23/9/16 17/8/19
f 11/12/25 10/3/20 4/11/21
f 11/12/25 19/7/26 18/5/24 10/3/20
f 19/7/26 24/6/23 18/5/24
f 1/4/1 12/3/27 11/2/25 4/1/21
f 12/3/28 20/5/28 19/8/28 11/2/28
f 20/5/5 21/10/6 24/9/23 19/8/26
f 5/12/2 12/3/27 1/11/1
f 5/12/2 13/7/7 20/5/5 12/3/27

# 0 vertex

vn 0 1 0
# 1 normal

# 0 texture coordinate

o corner0_u
usemtl default
f 22/13/29 23/14/29 24/9/29 21/1/29

# 0 vertex

vn 0 0 1
# 1 normal

# 0 texture coordinate

o corner0_f
usemtl default
f 6/3/30 14/5/30 13/8/30 5/2/30

# 0 vertex

vn 1 0 0
# 1 normal

# 0 texture coordinate

o corner0_r
usemtl default
f 8/3/31 16/5/31 15/8/31 7/2/31

v 25.75 -5 -5.75
v 34.25 -5 -5.75
v 34.25 -5 -14.25
v 25.75 -5 -14.25
v 25.75 -4.25 -5
v 34.25 -4.25 -5
v 35 -4.25 -5.75
v 35 -4.25 -14.25
v 34.25 -4.25 -15
v 25.75 -4.25 -15
v 25 -4.25 -14.25
v 25 -4.25 -5.75
v 25.75 4.25 -5
v 34.25 4.25 -5
v 35 4.25 -5.75
v 35 4.25 -14.25
v 34.25 4.25 -15
v 25.75 4.25 -15
v 25 4.25 -14.25
v 25 4.25 -5.75
v 25.75 5 -5.75
v 34.25 5 -5.75
v 34.25 5 -14.25
v 25.75 5 -14.25
# 24 vertices

vn -0.47651007771492 -0.73883426189423 0.47651034593582
vn -0.47651007771492 -0.47651034593582 0.73883426189423
vn 0.47651007771492 -0.47651034593582 0.73883426189423
vn 0.47651007771492 -0.73883426189423 0.47651034593582
vn -0.47651007771492 0.47651034593582 0.73883426189423
vn -0.47651007771492 0.73883426189423 0.47651034593582
vn 0.47651007771492 0.73883426189423 0.47651034593582
vn 0.47651007771492 0.47651034593582 0.73883426189423
vn 0.73883384466171 -0.47651052474976 0.47651046514511
vn 0.73883384466171 0.47651052474976 0.47651046514511
vn 0.738833963871 -0.47651055455208 -0.47651028633118
vn 0.47651010751724 -0.73883438110352 -0.47651010751724
vn 0.47651010751724 0.73883438110352 -0.47651010751724
vn 0.738833963871 0.47651055455208 -0.47651028633118
vn 0.47651028633118 -0.47651055455208 -0.738833963871
vn 0.47651028633118 0.47651055455208 -0.738833963871
vn -0.47651028633118 -0.47651055455208 -0.738833963871
vn -0.47651010751724 -0.73883438110352 -0.47651010751724
vn -0.47651010751724 0.73883438110352 -0.47651010751724
vn -0.47651028633118 0.47651055455208 -0.738833963871
vn -0.738833963871 -0.47651055455208 -0.47651028633118
vn -0.738833963871 0.47651055455208 -0.47651028633118
vn -0.73883384466171 -0.47651052474976 0.47651046514511
vn -0.73883384466171 0.47651052474976 0.47651046514511
# 24 normals

# 0 texture coordinate

o side30
usemtl default
f 26/4/35 30/3/34 29/2/33 25/1/32
f 30/3/30 38/5/30 37/8/30 29/2/30
f 38/5/39 46/10/38 45/9/37 37/8/36
f 31/12/40 30/3/34 26/11/35
f 31/12/40 39/7/41 38/5/39 30/3/34
f 39/7/41 46/6/38 38/5/39
f 27/4/43 32/3/42 31/2/40 26/1/35
f 28/1/15 27/13/15 26/14/15 25/9/15
f 40/5/45 47/10/44 46/9/38 39/8/41
f 33/12/46 32/3/42 27/11/43
f 33/12/46 41/7/47 40/5/45 32/3/42
f 41/7/47 47/6/44 40/5/45
f 28/4/49 34/3/48 33/2/46 27/1/43
f 34/3/22 42/5/22 41/8/22 33/2/22
f 42/5/51 48/10/50 47/9/44 41/8/47
f 35/12/52 34/3/48 28/11/49
f 35/12/52 43/7/53 42/5/51 34/3/48
f 43/7/53 48/6/50 42/5/51
f 25/4/32 36/3/54 35/2/52 28/1/49
f 36/3/28 44/5/28 43/8/28 35/2/28
f 44/5/55 45/10/37 48/9/50 43/8/53
f 29/12/33 36/3/54 25/11/32
f 29/12/33 37/7/36 44/5/55 36/3/54
f 37/7/36 45/6/37 44/5/55
f 46/13/29 47/14/29 48/9/29 45/1/29

# 0 vertex

# 0 normal

# 0 texture coordinate

o side30_r
usemtl default
f 32/3/31 40/5/31 39/8/31 31/2/31

v 25.75 -15 -5.75
v 34.25 -15 -5.75
v 34.25 -15 -14.25
v 25.75 -15 -14.25
v 25.75 -14.25 -5
v 34.25 -14.25 -5
v 35 -14.25 -5.75
v 35 -14.25 -14.25
v 34.25 -14.25 -15
v 25.75 -14.25 -15
v 25 -14.25 -14.25
v 25 -14.25 -5.75
v 25.75 -5.75 -5
v 34.25 -5.75 -5
v 35 -5.75 -5.75
v 35 -5.75 -14.25
v 34.25 -5.75 -15
v 25.75 -5.75 -15
v 25 -5.75 -14.25
v 25 -5.75 -5.75
# 20 vertices

vn -0.47651028633118 -0.738833963871 0.47651055455208
vn -0.47651010751724 -0.47651010751724 0.73883438110352
vn 0.47651010751724 -0.47651010751724 0.73883438110352
vn 0.47651028633118 -0.738833963871 0.47651055455208
vn 0.738833963871 -0.47651028633118 0.47651055455208
vn 0.73883384466171 0.47651052474976 0.47651052474976
vn -0.738833963871 -0.47651028633118 0.47651055455208
vn -0.73883384466171 0.47651052474976 0.47651052474976
# 8 normals

# 0 texture coordinate

o side6
usemtl default
f 50/4/59 54/3/58 53/2/57 49/1/56
f 54/3/30 62/5/30 61/8/30 53/2/30
f 62/5/39 26/10/38 25/9/37 61/8/36
f 55/12/60 54/3/58 50/11/59
f 55/12/60 63/7/61 62/5/39 54/3/58
f 63/7/61 26/6/38 62/5/39
f 51/4/14 56/3/13 55/2/60 50/1/59
f 52/1/15 51/13/15 50/14/15 49/9/15
f 64/5/45 27/10/44 26/9/38 63/8/61
f 57/12/18 56/3/13 51/11/14
f 57/12/18 65/7/47 64/5/45 56/3/13
f 65/7/47 27/6/44 64/5/45
f 52/4/21 58/3/20 57/2/18 51/1/14
f 58/3/22 66/5/22 65/8/22 57/2/22
f 66/5/51 28/10/50 27/9/44 65/8/47
f 59/12/25 58/3/20 52/11/21
f 59/12/25 67/7/53 66/5/51 58/3/20
f 67/7/53 28/6/50 66/5/51
f 49/4/56 60/3/62 59/2/25 52/1/21
f 60/3/28 68/5/28 67/8/28 59/2/28
f 68/5/63 25/10/37 28/9/50 67/8/53
f 53/12/57 60/3/62 49/11/56
f 53/12/57 61/7/36 68/5/63 60/3/62
f 61/7/36 25/6/37 68/5/63
f 26/13/29 27/14/29 28/9/29 25/1/29

# 0 vertex

# 0 normal

# 0 texture coordinate

o side6_r
usemtl default
f 56/3/31 64/5/31 63/8/31 55/2/31

v 25.75 -5 4.25
v 34.25 -5 4.25
v 34.25 -5 -4.25
v 25.75 -5 -4.25
v 25.75 -4.25 5
v 34.25 -4.25 5
v 35 -4.25 4.25
v 35 -4.25 -4.25
v 25 -4.25 -4.25
v 25 -4.25 4.25
v 25.75 4.25 5
v 34.25 4.25 5
v 35 4.25 4.25
v 35 4.25 -4.25
v 25 4.25 -4.25
v 25 4.25 4.25
v 25.75 5 4.25
v 34.25 5 4.25
v 34.25 5 -4.25
v 25.75 5 -4.25
# 20 vertices

vn 0.73883390426636 -0.47651049494743 0.47651049494743
vn 0.73883390426636 0.47651049494743 0.47651049494743
vn 0.73883390426636 -0.47651049494743 -0.47651049494743
vn 0.47651007771492 -0.73883426189423 -0.47651034593582
vn 0.47651007771492 0.73883426189423 -0.47651034593582
vn 0.73883390426636 0.47651049494743 -0.47651049494743
vn 0.47651007771492 -0.47651034593582 -0.73883426189423
vn 0.47651007771492 0.47651034593582 -0.73883426189423
vn -0.47651007771492 -0.47651034593582 -0.73883426189423
vn -0.47651007771492 -0.73883426189423 -0.47651034593582
vn -0.47651007771492 0.73883426189423 -0.47651034593582
vn -0.47651007771492 0.47651034593582 -0.73883426189423
vn -0.73883390426636 -0.47651049494743 -0.47651049494743
vn -0.73883390426636 0.47651049494743 -0.47651049494743
vn -0.73883390426636 -0.47651049494743 0.47651049494743
vn -0.73883390426636 0.47651049494743 0.47651049494743
# 16 normals

# 0 texture coordinate

o side0
usemtl default
f 70/4/35 74/3/34 73/2/33 69/1/32
f 74/3/30 80/5/30 79/8/30 73/2/30
f 80/5/39 86/10/38 85/9/37 79/8/36
f 75/12/64 74/3/34 70/11/35
f 75/12/64 81/7/65 80/5/39 74/3/34
f 81/7/65 86/6/38 80/5/39
f 71/4/67 76/3/66 75/2/64 70/1/35
f 72/1/15 71/13/15 70/14/15 69/9/15
f 82/5/69 87/10/68 86/9/38 81/8/65
f 30/12/70 76/3/66 71/11/67
f 30/12/70 38/7/71 82/5/69 76/3/66
f 38/7/71 87/6/68 82/5/69
f 72/4/73 29/3/72 30/2/70 71/1/67
f 29/3/22 37/5/22 38/8/22 30/2/22
f 37/5/75 88/10/74 87/9/68 38/8/71
f 77/12/76 29/3/72 72/11/73
f 77/12/76 83/7/77 37/5/75 29/3/72
f 83/7/77 88/6/74 37/5/75
f 69/4/32 78/3/78 77/2/76 72/1/73
f 78/3/28 84/5/28 83/8/28 77/2/28
f 84/5/79 85/10/37 88/9/74 83/8/77
f 73/12/33 78/3/78 69/11/32
f 73/12/33 79/7/36 84/5/79 78/3/78
f 79/7/36 85/6/37 84/5/79
f 86/13/29 87/14/29 88/9/29 85/1/29

# 0 vertex

# 0 normal

# 0 texture coordinate

o side0_r
usemtl default
f 76/3/31 82/5/31 81/8/31 75/2/31

v 35 25.75 4.25
v 35 25.75 -4.25
v 35 34.25 4.25
v 35 34.25 -4.25
# 4 vertices

# 0 normal

# 0 texture coordinate

o edge0_r
usemtl default
f 90/3/31 92/5/31 91/8/31 89/2/31

v 25.75 25 4.25
v 34.25 25 4.25
v 34.25 25 -4.25
v 25.75 25 -4.25
v 25.75 25.75 5
v 34.25 25.75 5
v 34.25 25.75 -5
v 25.75 25.75 -5
v 25 25.75 -4.25
v 25 25.75 4.25
v 25.75 34.25 5
v 34.25 34.25 5
v 34.25 34.25 -5
v 25.75 34.25 -5
v 25 34.25 -4.25
v 25 34.25 4.25
v 25.75 35 4.25
v 34.25 35 4.25
v 34.25 35 -4.25
v 25.75 35 -4.25
# 20 vertices

vn -0.47651010751724 0.47651010751724 0.73883438110352
vn -0.47651028633118 0.738833963871 0.47651055455208
vn 0.47651028633118 0.738833963871 0.47651055455208
vn 0.47651010751724 0.47651010751724 0.73883438110352
vn 0.738833963871 0.47651028633118 0.47651055455208
vn 0.738833963871 -0.47651028633118 -0.47651055455208
vn 0.47651028633118 -0.738833963871 -0.47651055455208
vn 0.47651028633118 0.738833963871 -0.47651055455208
vn 0.738833963871 0.47651028633118 -0.47651055455208
vn 0.47651010751724 -0.47651010751724 -0.73883438110352
vn 0.47651010751724 0.47651010751724 -0.73883438110352
vn -0.47651010751724 -0.47651010751724 -0.73883438110352
vn -0.47651028633118 -0.738833963871 -0.47651055455208
vn -0.47651028633118 0.738833963871 -0.47651055455208
vn -0.47651010751724 0.47651010751724 -0.73883438110352
vn -0.738833963871 -0.47651028633118 -0.47651055455208
vn -0.738833963871 0.47651028633118 -0.47651055455208
vn -0.738833963871 0.47651028633118 0.47651055455208
# 18 normals

# 0 texture coordinate

o edge0
usemtl default
f 94/4/59 98/3/58 97/2/57 93/1/56
f 98/3/30 104/5/30 103/8/30 97/2/30
f 104/5/83 110/10/82 109/9/81 103/8/80
f 89/12/60 98/3/58 94/11/59
f 89/12/60 91/7/84 104/5/83 98/3/58
f 91/7/84 110/6/82 104/5/83
f 95/4/86 90/3/85 89/2/60 94/1/59
f 96/1/15 95/13/15 94/14/15 93/9/15
f 92/5/88 111/10/87 110/9/82 91/8/84
f 99/12/89 90/3/85 95/11/86
f 99/12/89 105/7/90 92/5/88 90/3/85
f 105/7/90 111/6/87 92/5/88
f 96/4/92 100/3/91 99/2/89 95/1/86
f 100/3/22 106/5/22 105/8/22 99/2/22
f 106/5/94 112/10/93 111/9/87 105/8/90
f 101/12/95 100/3/91 96/11/92
f 101/12/95 107/7/96 106/5/94 100/3/91
f 107/7/96 112/6/93 106/5/94
f 93/4/56 102/3/62 101/2/95 96/1/92
f 102/3/28 108/5/28 107/8/28 101/2/28
f 108/5/97 109/10/81 112/9/93 107/8/96
f 97/12/57 102/3/62 93/11/56
f 97/12/57 103/7/80 108/5/97 102/3/62
f 103/7/80 109/6/81 108/5/97

# 0 vertex

# 0 normal

# 0 texture coordinate

o edge0_u
usemtl default
f 110/13/29 111/14/29 112/9/29 109/1/29

v 0 13.14327812194824 21.26626968383789
v 0 -13.14327812194824 21.26626968383789
v 21.26626968383789 0 13.14327812194824
v 21.26626968383789 0 -13.14327812194824
v 0 13.14327812194824 -21.26626968383789
v 0 -13.14327812194824 -21.26626968383789
v -21.26626968383789 0 -13.14327812194824
v -21.26626968383789 0 13.14327812194824
v 13.14327812194824 21.26626968383789 0
v -13.14327812194824 21.26626968383789 0
v -13.14327812194824 -21.26626968383789 0
v 13.14327812194824 -21.26626968383789 0
# 12 vertices

vn 0 0.93417239189148 0.35682207345963
vn 0.57735031843185 0.57735031843185 0.57735025882721
vn 0.93417239189148 0.35682207345963 0
vn 0.57735031843185 0.57735031843185 -0.57735025882721
vn 0 0.93417239189148 -0.35682207345963
vn -0.57735025882721 0.57735031843185 -0.57735031843185
vn -0.93417239189148 0.35682207345963 0
vn -0.57735031843185 0.57735031843185 0.57735025882721
vn 0 -0.93417239189148 0.35682207345963
vn 0.57735031843185 -0.57735025882721 0.57735031843185
vn 0.93417239189148 -0.35682207345963 0
vn 0.57735031843185 -0.57735025882721 -0.57735031843185
vn 0 -0.93417239189148 -0.35682207345963
vn -0.57735025882721 -0.57735031843185 -0.57735031843185
vn -0.93417239189148 -0.35682207345963 0
vn -0.57735031843185 -0.57735025882721 0.57735031843185
vn -0.35682207345963 0 0.93417239189148
vn 0.35682207345963 0 0.93417239189148
vn 0.35682207345963 0 -0.93417239189148
vn -0.35682207345963 0 -0.93417239189148
# 20 normals

vt 0.5 0 0
# 1 texture coordinate

o center
usemtl default
f 113/15/98 121/14/98 122/9/98
f 113/15/99 115/14/99 121/9/99
f 115/15/100 116/14/100 121/9/100
f 116/15/101 117/14/101 121/9/101
f 117/15/102 122/14/102 121/9/102
f 119/15/103 122/14/103 117/9/103
f 120/15/104 122/14/104 119/9/104
f 120/15/105 113/14/105 122/9/105
f 114/15/106 123/14/106 124/9/106
f 114/15/107 124/14/107 115/9/107
f 124/15/108 116/14/108 115/9/108
f 124/15/109 118/14/109 116/9/109
f 124/15/110 123/14/110 118/9/110
f 123/15/111 119/14/111 118/9/111
f 123/15/112 120/14/112 119/9/112
f 123/15/113 114/14/113 120/9/113
f 113/15/114 120/14/114 114/9/114
f 113/15/115 114/14/115 115/9/115
f 116/15/116 118/14/116 117/9/116
f 118/15/117 119/14/117 117/9/117

v 25.75 25 -5.75
v 34.25 25 -5.75
v 34.25 25 -14.25
v 25.75 25 -14.25
v 35 25.75 -5.75
v 35 25.75 -14.25
v 34.25 25.75 -15
v 25.75 25.75 -15
v 25 25.75 -14.25
v 25 25.75 -5.75
v 35 34.25 -5.75
v 35 34.25 -14.25
v 34.25 34.25 -15
v 25.75 34.25 -15
v 25 34.25 -14.25
v 25 34.25 -5.75
v 25.75 35 -5.75
v 34.25 35 -5.75
v 34.25 35 -14.25
v 25.75 35 -14.25
# 20 vertices

vn -0.4765103161335 0.73883414268494 -0.4765103161335
vn -0.73883414268494 0.4765103161335 -0.4765103161335
# 2 normals

# 0 texture coordinate

o edge12
usemtl default
f 126/4/59 99/3/58 100/2/57 125/1/56
f 99/3/30 105/5/30 106/8/30 100/2/30
f 105/5/83 142/10/82 141/9/81 106/8/80
f 129/12/60 99/3/58 126/11/59
f 129/12/60 135/7/84 105/5/83 99/3/58
f 135/7/84 142/6/82 105/5/83
f 127/4/14 130/3/13 129/2/60 126/1/59
f 128/1/15 127/13/15 126/14/15 125/9/15
f 136/5/17 143/10/16 142/9/82 135/8/84
f 131/12/18 130/3/13 127/11/14
f 131/12/18 137/7/19 136/5/17 130/3/13
f 137/7/19 143/6/16 136/5/17
f 128/4/21 132/3/20 131/2/18 127/1/14
f 132/3/22 138/5/22 137/8/22 131/2/22
f 138/5/24 144/10/118 143/9/16 137/8/19
f 133/12/25 132/3/20 128/11/21
f 133/12/25 139/7/119 138/5/24 132/3/20
f 139/7/119 144/6/118 138/5/24
f 125/4/56 134/3/62 133/2/25 128/1/21
f 134/3/28 140/5/28 139/8/28 133/2/28
f 140/5/97 141/10/81 144/9/118 139/8/119
f 100/12/57 134/3/62 125/11/56
f 100/12/57 106/7/80 140/5/97 134/3/62
f 106/7/80 141/6/81 140/5/97

# 0 vertex

# 0 normal

# 0 texture coordinate

o edge12_u
usemtl default
f 142/13/29 143/14/29 144/9/29 141/1/29

# 0 vertex

# 0 normal

# 0 texture coordinate

o edge12_r
usemtl default
f 130/3/31 136/5/31 135/8/31 129/2/31

v 25.75 -25 -15.75
v 34.25 -25 -15.75
v 34.25 -25 -24.25
v 25.75 -25 -24.25
v 25.75 -24.25 -15
v 34.25 -24.25 -15
v 35 -24.25 -15.75
v 35 -24.25 -24.25
v 34.25 -24.25 -25
v 25.75 -24.25 -25
v 25 -24.25 -24.25
v 25 -24.25 -15.75
v 25.75 -15.75 -15
v 34.25 -15.75 -15
v 35 -15.75 -15.75
v 35 -15.75 -24.25
v 34.25 -15.75 -25
v 25.75 -15.75 -25
v 25 -15.75 -24.25
v 25 -15.75 -15.75
v 25.75 -15 -15.75
v 34.25 -15 -15.75
v 34.25 -15 -24.25
v 25.75 -15 -24.25
# 24 vertices

vn -0.4765103161335 -0.4765103161335 0.73883414268494
vn -0.4765103161335 0.4765103161335 0.73883414268494
vn -0.4765103161335 0.73883414268494 0.4765103161335
vn -0.73883414268494 -0.4765103161335 0.4765103161335
# 4 normals

# 0 texture coordinate

o side54
usemtl default
f 146/4/4 150/3/3 149/2/120 145/1/1
f 150/3/30 158/5/30 157/8/30 149/2/30
f 158/5/10 166/10/9 165/9/122 157/8/121
f 151/12/11 150/3/3 146/11/4
f 151/12/11 159/7/12 158/5/10 150/3/3
f 159/7/12 166/6/9 158/5/10
f 147/4/14 152/3/13 151/2/11 146/1/4
f 148/1/15 147/13/15 146/14/15 145/9/15
f 160/5/17 167/10/16 166/9/9 159/8/12
f 153/12/18 152/3/13 147/11/14
f 153/12/18 161/7/19 160/5/17 152/3/13
f 161/7/19 167/6/16 160/5/17
f 148/4/21 154/3/20 153/2/18 147/1/14
f 154/3/22 162/5/22 161/8/22 153/2/22
f 162/5/24 168/10/118 167/9/16 161/8/19
f 155/12/25 154/3/20 148/11/21
f 155/12/25 163/7/119 162/5/24 154/3/20
f 163/7/119 168/6/118 162/5/24
f 145/4/1 156/3/123 155/2/25 148/1/21
f 156/3/28 164/5/28 163/8/28 155/2/28
f 164/5/5 165/10/122 168/9/118 163/8/119
f 149/12/120 156/3/123 145/11/1
f 149/12/120 157/7/121 164/5/5 156/3/123
f 157/7/121 165/6/122 164/5/5
f 166/13/29 167/14/29 168/9/29 165/1/29

# 0 vertex

# 0 normal

# 0 texture coordinate

o side54_r
usemtl default
f 152/3/31 160/5/31 159/8/31 151/2/31

v 35 -14.25 -15.75
v 35 -14.25 -24.25
v 34.25 -14.25 -25
v 25.75 -14.25 -25
v 25 -14.25 -24.25
v 25 -14.25 -15.75
v 35 -5.75 -15.75
v 35 -5.75 -24.25
v 34.25 -5.75 -25
v 25.75 -5.75 -25
v 25 -5.75 -24.25
v 25 -5.75 -15.75
v 25.75 -5 -15.75
v 34.25 -5 -15.75
v 34.25 -5 -24.25
v 25.75 -5 -24.25
# 16 vertices

vn -0.47651028633118 0.47651055455208 0.738833963871
vn -0.47651010751724 0.73883438110352 0.47651010751724
vn 0.47651010751724 0.73883438110352 0.47651010751724
vn 0.47651028633118 0.47651055455208 0.738833963871
vn 0.738833963871 0.47651055455208 0.47651028633118
vn -0.738833963871 0.47651055455208 0.47651028633118
# 6 normals

# 0 texture coordinate

o side102
usemtl default
f 166/4/4 57/3/3 58/2/120 165/1/1
f 57/3/30 65/5/30 66/8/30 58/2/30
f 65/5/127 182/10/126 181/9/125 66/8/124
f 169/12/11 57/3/3 166/11/4
f 169/12/11 175/7/128 65/5/127 57/3/3
f 175/7/128 182/6/126 65/5/127
f 167/4/14 170/3/13 169/2/11 166/1/4
f 168/1/15 167/13/15 166/14/15 165/9/15
f 176/5/45 183/10/44 182/9/126 175/8/128
f 171/12/18 170/3/13 167/11/14
f 171/12/18 177/7/47 176/5/45 170/3/13
f 177/7/47 183/6/44 176/5/45
f 168/4/21 172/3/20 171/2/18 167/1/14
f 172/3/22 178/5/22 177/8/22 171/2/22
f 178/5/51 184/10/50 183/9/44 177/8/47
f 173/12/25 172/3/20 168/11/21
f 173/12/25 179/7/53 178/5/51 172/3/20
f 179/7/53 184/6/50 178/5/51
f 165/4/1 174/3/123 173/2/25 168/1/21
f 174/3/28 180/5/28 179/8/28 173/2/28
f 180/5/129 181/10/125 184/9/50 179/8/53
f 58/12/120 174/3/123 165/11/1
f 58/12/120 66/7/124 180/5/129 174/3/123
f 66/7/124 181/6/125 180/5/129
f 182/13/29 183/14/29 184/9/29 181/1/29

# 0 vertex

# 0 normal

# 0 texture coordinate

o side102_r
usemtl default
f 170/3/31 176/5/31 175/8/31 169/2/31

v 35 -4.25 -15.75
v 35 -4.25 -24.25
v 34.25 -4.25 -25
v 25.75 -4.25 -25
v 25 -4.25 -24.25
v 25 -4.25 -15.75
v 35 4.25 -15.75
v 35 4.25 -24.25
v 34.25 4.25 -25
v 25.75 4.25 -25
v 25 4.25 -24.25
v 25 4.25 -15.75
v 25.75 5 -15.75
v 34.25 5 -15.75
v 34.25 5 -24.25
v 25.75 5 -24.25
# 16 vertices

vn -0.47651010751724 -0.73883438110352 0.47651010751724
vn -0.47651028633118 -0.47651055455208 0.738833963871
vn 0.47651028633118 -0.47651055455208 0.738833963871
vn 0.47651010751724 -0.73883438110352 0.47651010751724
vn 0.738833963871 -0.47651055455208 0.47651028633118
vn -0.738833963871 -0.47651055455208 0.47651028633118
# 6 normals

# 0 texture coordinate

o side78
usemtl default
f 182/4/133 33/3/132 34/2/131 181/1/130
f 33/3/30 41/5/30 42/8/30 34/2/30
f 41/5/127 198/10/126 197/9/125 42/8/124
f 185/12/134 33/3/132 182/11/133
f 185/12/134 191/7/128 41/5/127 33/3/132
f 191/7/128 198/6/126 41/5/127
f 183/4/43 186/3/42 185/2/134 182/1/133
f 184/1/15 183/13/15 182/14/15 181/9/15
f 192/5/45 199/10/44 198/9/126 191/8/128
f 187/12/46 186/3/42 183/11/43
f 187/12/46 193/7/47 192/5/45 186/3/42
f 193/7/47 199/6/44 192/5/45
f 184/4/49 188/3/48 187/2/46 183/1/43
f 188/3/22 194/5/22 193/8/22 187/2/22
f 194/5/51 200/10/50 199/9/44 193/8/47
f 189/12/52 188/3/48 184/11/49
f 189/12/52 195/7/53 194/5/51 188/3/48
f 195/7/53 200/6/50 194/5/51
f 181/4/130 190/3/135 189/2/52 184/1/49
f 190/3/28 196/5/28 195/8/28 189/2/28
f 196/5/129 197/10/125 200/9/50 195/8/53
f 34/12/131 190/3/135 181/11/130
f 34/12/131 42/7/124 196/5/129 190/3/135
f 42/7/124 197/6/125 196/5/129
f 198/13/29 199/14/29 200/9/29 197/1/29

# 0 vertex

# 0 normal

# 0 texture coordinate

o side78_r
usemtl default
f 186/3/31 192/5/31 191/8/31 185/2/31

v 25.75 25 -15.75
v 34.25 25 -15.75
v 34.25 25 -24.25
v 25.75 25 -24.25
v 35 25.75 -15.75
v 35 25.75 -24.25
v 34.25 25.75 -25
v 25.75 25.75 -25
v 25 25.75 -24.25
v 25 25.75 -15.75
v 35 34.25 -15.75
v 35 34.25 -24.25
v 34.25 34.25 -25
v 25.75 34.25 -25
v 25 34.25 -24.25
v 25 34.25 -15.75
v 25.75 35 -15.75
v 34.25 35 -15.75
v 34.25 35 -24.25
v 25.75 35 -24.25
# 20 vertices

# 0 normal

# 0 texture coordinate

o edge36
usemtl default
f 202/4/4 131/3/3 132/2/120 201/1/1
f 131/3/30 137/5/30 138/8/30 132/2/30
f 137/5/10 218/10/9 217/9/122 138/8/121
f 205/12/11 131/3/3 202/11/4
f 205/12/11 211/7/12 137/5/10 131/3/3
f 211/7/12 218/6/9 137/5/10
f 203/4/14 206/3/13 205/2/11 202/1/4
f 204/1/15 203/13/15 202/14/15 201/9/15
f 212/5/17 219/10/16 218/9/9 211/8/12
f 207/12/18 206/3/13 203/11/14
f 207/12/18 213/7/19 212/5/17 206/3/13
f 213/7/19 219/6/16 212/5/17
f 204/4/21 208/3/20 207/2/18 203/1/14
f 208/3/22 214/5/22 213/8/22 207/2/22
f 214/5/24 220/10/118 219/9/16 213/8/19
f 209/12/25 208/3/20 204/11/21
f 209/12/25 215/7/119 214/5/24 208/3/20
f 215/7/119 220/6/118 214/5/24
f 201/4/1 210/3/123 209/2/25 204/1/21
f 210/3/28 216/5/28 215/8/28 209/2/28
f 216/5/5 217/10/122 220/9/118 215/8/119
f 132/12/120 210/3/123 201/11/1
f 132/12/120 138/7/121 216/5/5 210/3/123
f 138/7/121 217/6/122 216/5/5

# 0 vertex

# 0 normal

# 0 texture coordinate

o edge36_r
usemtl default
f 206/3/31 212/5/31 211/8/31 205/2/31

# 0 vertex

# 0 normal

# 0 texture coordinate

o edge36_u
usemtl default
f 218/13/29 219/14/29 220/9/29 217/1/29

