# WaveFront *.obj file (generated by CINEMA 4D)

mtllib ./cube6-0.mtl

v 22.75 22.75 33
v 32.25 22.75 33
v 22.75 32.25 33
v 32.25 32.25 33
# 4 vertices

vn 0 0 1
# 1 normal

vt 0 0.09936559200287 0
vt 0 0.90063446760178 0
vt 0.88967162370682 0.90063446760178 0
vt 0.88967162370682 0.09936559200287 0
# 4 texture coordinates

o corner0_f
usemtl default
f 2/4/1 4/3/1 3/2/1 1/1/1

v 33 22.75 32.25
v 33 22.75 22.75
v 33 32.25 32.25
v 33 32.25 22.75
# 4 vertices

vn 1 0 0
# 1 normal

# 0 texture coordinate

o corner0_r
usemtl default
f 6/4/2 8/3/2 7/2/2 5/1/2

v 22.75 33 32.25
v 32.25 33 32.25
v 32.25 33 22.75
v 22.75 33 22.75
# 4 vertices

vn 0 1 0
# 1 normal

vt 0 0 0
vt 0 1 0
vt 1 1 0
vt 1 0 0
# 4 texture coordinates

o corner0_u
usemtl default
f 10/8/3 11/7/3 12/6/3 9/5/3

v 22.75 22 32.25
v 32.25 22 32.25
v 32.25 22 22.75
v 22.75 22 22.75
v 32.25 22.75 22
v 22.75 22.75 22
v 22 22.75 22.75
v 22 22.75 32.25
v 32.25 32.25 22
v 22.75 32.25 22
v 22 32.25 22.75
v 22 32.25 32.25
# 12 vertices

vn -0.4765103161335 -0.73883414268494 0.4765103161335
vn -0.47651028633118 -0.4765103161335 0.73883414268494
vn 0.4765103161335 -0.4765103161335 0.73883414268494
vn 0.4765103161335 -0.73883414268494 0.4765103161335
vn -0.73883414268494 0.4765103161335 0.4765103161335
vn -0.47651028633118 0.73883408308029 0.47651034593582
vn -0.47651028633118 0.47651034593582 0.73883408308029
vn 0 0 0
vn 0.4765103161335 0.73883414268494 0.4765103161335
vn 0.4765103161335 0.4765103161335 0.73883414268494
vn 0.73883414268494 -0.4765103161335 0.4765103161335
vn 0.73883414268494 0.4765103161335 0.4765103161335
vn 0.73883414268494 -0.4765103161335 -0.4765103161335
vn 0.4765103161335 -0.73883414268494 -0.4765103161335
vn 0 -1 0
vn 0.4765103161335 0.73883414268494 -0.4765103161335
vn 0.73883414268494 0.4765103161335 -0.4765103161335
vn 0.4765103161335 -0.4765103161335 -0.73883414268494
vn 0.4765103161335 0.4765103161335 -0.73883414268494
vn -0.4765103161335 -0.4765103161335 -0.73883414268494
vn -0.4765103161335 -0.73883414268494 -0.4765103161335
vn 0 0 -1
vn -0.47651028633118 0.73883408308029 -0.47651034593582
vn -0.4765103161335 0.4765103161335 -0.73883414268494
vn -0.73883414268494 -0.4765103161335 -0.4765103161335
vn -0.73883408308029 0.47651028633118 -0.47651034593582
vn -0.73883414268494 -0.4765103161335 0.47651028633118
vn -1 0 0
# 28 normals

vt 0.88967162370682 0 0
vt 0.94483578205109 1 0
vt 1 0.90063446760178 0
vt 0.88967162370682 1 0
vt 0.94483578205109 0 0
vt 1 0.09936559200287 0
# 6 texture coordinates

o corner0
usemtl default
f 14/9/7 2/4/6 1/1/5 13/5/4
f 3/11/10 9/10/9 24/3/8
f 4/3/13 10/12/12 9/6/9 3/2/10
f 5/14/14 2/4/6 14/13/7
f 5/14/14 7/11/15 4/3/13 2/4/6
f 7/11/15 10/10/12 4/3/13
f 15/9/17 6/4/16 5/1/14 14/5/7
f 16/5/18 15/8/18 14/7/18 13/6/18
f 8/3/20 11/12/19 10/6/12 7/2/15
f 17/14/21 6/4/16 15/13/17
f 17/14/21 21/11/22 8/3/20 6/4/16
f 21/11/22 11/10/19 8/3/20
f 16/9/24 18/4/23 17/1/21 15/5/17
f 18/4/25 22/3/25 21/2/25 17/1/25
f 22/3/27 12/12/26 11/6/19 21/2/22
f 19/14/28 18/4/23 16/13/24
f 19/14/28 23/11/29 22/3/27 18/4/23
f 23/11/29 12/10/26 22/3/27
f 13/9/4 20/4/30 19/1/28 16/5/24
f 20/4/31 24/3/31 23/2/31 19/1/31
f 24/3/8 9/12/9 12/6/26 23/2/29
f 1/14/5 20/4/30 13/13/4
f 1/14/5 3/11/10 24/3/8 20/4/30

v 22.75 -11 -11.75
v 32.25 -11 -11.75
v 32.25 -11 -21.25
v 22.75 -11 -21.25
v 22.75 -10.25 -11
v 32.25 -10.25 -11
v 33 -10.25 -11.75
v 33 -10.25 -21.25
v 32.25 -10.25 -22
v 22.75 -10.25 -22
v 22 -10.25 -21.25
v 22 -10.25 -11.75
v 22.75 -0.75 -11
v 32.25 -0.75 -11
v 33 -0.75 -11.75
v 33 -0.75 -21.25
v 32.25 -0.75 -22
v 22.75 -0.75 -22
v 22 -0.75 -21.25
v 22 -0.75 -11.75
v 22.75 0 -11.75
v 32.25 0 -11.75
v 32.25 0 -21.25
v 22.75 0 -21.25
# 24 vertices

vn -0.47651022672653 -0.73883390426636 0.47651076316834
vn -0.47650992870331 -0.47650992870331 0.73883461952209
vn 0.47650992870331 -0.47650992870331 0.73883461952209
vn 0.47651022672653 -0.73883390426636 0.47651076316834
vn -0.47650983929634 0.47651010751724 0.73883455991745
vn -0.47651010751724 0.73883402347565 0.47651064395905
vn 0.47651010751724 0.73883402347565 0.47651064395905
vn 0.47650983929634 0.47651010751724 0.73883455991745
vn 0.73883390426636 -0.47651022672653 0.47651076316834
vn 0.73883378505707 0.47651040554047 0.47651076316834
vn 0.47651016712189 0.73883432149887 -0.47651016712189
vn 0.73883402347565 0.47651046514511 -0.47651028633118
vn 0.47651028633118 0.47651046514511 -0.73883402347565
vn -0.47651016712189 0.73883426189423 -0.47651016712189
vn -0.47651028633118 0.47651046514511 -0.73883402347565
vn -0.73883402347565 0.47651046514511 -0.47651028633118
vn -0.73883390426636 -0.47651022672653 0.47651076316834
vn -0.73883372545242 0.47651040554047 0.47651076316834
# 18 normals

# 0 texture coordinate

o side48
usemtl default
f 26/9/35 30/4/34 29/1/33 25/5/32
f 30/4/1 38/3/1 37/2/1 29/1/1
f 38/3/39 46/12/38 45/6/37 37/2/36
f 31/14/40 30/4/34 26/13/35
f 31/14/40 39/11/41 38/3/39 30/4/34
f 39/11/41 46/10/38 38/3/39
f 27/9/17 32/4/16 31/1/40 26/5/35
f 28/5/18 27/8/18 26/7/18 25/6/18
f 40/3/43 47/12/42 46/6/38 39/2/41
f 33/14/21 32/4/16 27/13/17
f 33/14/21 41/11/44 40/3/43 32/4/16
f 41/11/44 47/10/42 40/3/43
f 28/9/24 34/4/23 33/1/21 27/5/17
f 34/4/25 42/3/25 41/2/25 33/1/25
f 42/3/46 48/12/45 47/6/42 41/2/44
f 35/14/28 34/4/23 28/13/24
f 35/14/28 43/11/47 42/3/46 34/4/23
f 43/11/47 48/10/45 42/3/46
f 25/9/32 36/4/48 35/1/28 28/5/24
f 36/4/31 44/3/31 43/2/31 35/1/31
f 44/3/49 45/12/37 48/6/45 43/2/47
f 29/14/33 36/4/48 25/13/32
f 29/14/33 37/11/36 44/3/49 36/4/48
f 37/11/36 45/10/37 44/3/49
f 46/8/3 47/7/3 48/6/3 45/5/3

# 0 vertex

# 0 normal

# 0 texture coordinate

o side48_r
usemtl default
f 32/4/2 40/3/2 39/2/2 31/1/2

v 22.75 -22 -11.75
v 32.25 -22 -11.75
v 32.25 -22 -21.25
v 22.75 -22 -21.25
v 22.75 -21.25 -11
v 32.25 -21.25 -11
v 33 -21.25 -11.75
v 33 -21.25 -21.25
v 32.25 -21.25 -22
v 22.75 -21.25 -22
v 22 -21.25 -21.25
v 22 -21.25 -11.75
v 22.75 -11.75 -11
v 32.25 -11.75 -11
v 33 -11.75 -11.75
v 33 -11.75 -21.25
v 32.25 -11.75 -22
v 22.75 -11.75 -22
v 22 -11.75 -21.25
v 22 -11.75 -11.75
v 22.75 -11 -11.75
v 32.25 -11 -11.75
v 32.25 -11 -21.25
v 22.75 -11 -21.25
# 24 vertices

vn -0.47650980949402 0.47651037573814 0.73883438110352
vn -0.47650980949402 0.73883438110352 0.47651037573814
vn 0.47650980949402 0.73883438110352 0.47651037573814
vn 0.47650980949402 0.47651037573814 0.73883438110352
vn 0.73883360624313 0.47651070356369 0.47651070356369
vn 0.47650992870331 0.73883461952209 -0.47650992870331
vn 0.73883390426636 0.47651076316834 -0.47651022672653
vn 0.47651022672653 0.47651076316834 -0.73883390426636
vn -0.47650992870331 0.73883461952209 -0.47650992870331
vn -0.47651022672653 0.47651076316834 -0.73883390426636
vn -0.73883390426636 0.47651076316834 -0.47651022672653
vn -0.73883360624313 0.47651070356369 0.47651070356369
# 12 normals

# 0 texture coordinate

o side24
usemtl default
f 50/9/35 54/4/34 53/1/33 49/5/32
f 54/4/1 62/3/1 61/2/1 53/1/1
f 62/3/53 70/12/52 69/6/51 61/2/50
f 55/14/40 54/4/34 50/13/35
f 55/14/40 63/11/54 62/3/53 54/4/34
f 63/11/54 70/10/52 62/3/53
f 51/9/17 56/4/16 55/1/40 50/5/35
f 52/5/18 51/8/18 50/7/18 49/6/18
f 64/3/56 71/12/55 70/6/52 63/2/54
f 57/14/21 56/4/16 51/13/17
f 57/14/21 65/11/57 64/3/56 56/4/16
f 65/11/57 71/10/55 64/3/56
f 52/9/24 58/4/23 57/1/21 51/5/17
f 58/4/25 66/3/25 65/2/25 57/1/25
f 66/3/59 72/12/58 71/6/55 65/2/57
f 59/14/28 58/4/23 52/13/24
f 59/14/28 67/11/60 66/3/59 58/4/23
f 67/11/60 72/10/58 66/3/59
f 49/9/32 60/4/48 59/1/28 52/5/24
f 60/4/31 68/3/31 67/2/31 59/1/31
f 68/3/61 69/12/51 72/6/58 67/2/60
f 53/14/33 60/4/48 49/13/32
f 53/14/33 61/11/50 68/3/61 60/4/48
f 61/11/50 69/10/51 68/3/61
f 70/8/3 71/7/3 72/6/3 69/5/3

# 0 vertex

# 0 normal

# 0 texture coordinate

o side24_r
usemtl default
f 56/4/2 64/3/2 63/2/2 55/1/2

v 22.75 -11 -0.75
v 32.25 -11 -0.75
v 32.25 -11 -10.25
v 22.75 -11 -10.25
v 22.75 -10.25 0
v 32.25 -10.25 0
v 33 -10.25 -0.75
v 33 -10.25 -10.25
v 32.25 -10.25 -11
v 22.75 -10.25 -11
v 22 -10.25 -10.25
v 22 -10.25 -0.75
v 22.75 -0.75 0
v 32.25 -0.75 0
v 33 -0.75 -0.75
v 33 -0.75 -10.25
v 32.25 -0.75 -11
v 22.75 -0.75 -11
v 22 -0.75 -10.25
v 22 -0.75 -0.75
v 22.75 0 -0.75
v 32.25 0 -0.75
v 32.25 0 -10.25
v 22.75 0 -10.25
# 24 vertices

vn -0.47651028633118 -0.73883402347565 0.47651046514511
vn -0.47651016712189 -0.47651016712189 0.73883432149887
vn 0.47651016712189 -0.47651016712189 0.73883432149887
vn 0.47651028633118 -0.73883402347565 0.47651046514511
vn -0.47651010751724 0.47651034593582 0.73883426189423
vn -0.47651010751724 0.73883426189423 0.47651034593582
vn 0.47651010751724 0.73883426189423 0.47651034593582
vn 0.47651010751724 0.47651034593582 0.73883426189423
vn 0.73883402347565 -0.47651028633118 0.47651049494743
vn 0.73883390426636 0.47651046514511 0.47651046514511
vn 0.73883402347565 0.47651049494743 -0.47651028633118
vn -0.47651016712189 0.73883432149887 -0.47651016712189
vn -0.73883402347565 0.47651049494743 -0.47651028633118
vn -0.73883402347565 -0.47651028633118 0.47651049494743
vn -0.73883390426636 0.47651046514511 0.47651046514511
# 15 normals

# 0 texture coordinate

o side0
usemtl default
f 74/9/65 78/4/64 77/1/63 73/5/62
f 78/4/1 86/3/1 85/2/1 77/1/1
f 86/3/69 94/12/68 93/6/67 85/2/66
f 79/14/70 78/4/64 74/13/65
f 79/14/70 87/11/71 86/3/69 78/4/64
f 87/11/71 94/10/68 86/3/69
f 75/9/17 80/4/16 79/1/70 74/5/65
f 76/5/18 75/8/18 74/7/18 73/6/18
f 88/3/72 95/12/42 94/6/68 87/2/71
f 81/14/21 80/4/16 75/13/17
f 81/14/21 89/11/44 88/3/72 80/4/16
f 89/11/44 95/10/42 88/3/72
f 76/9/24 82/4/23 81/1/21 75/5/17
f 82/4/25 90/3/25 89/2/25 81/1/25
f 90/3/46 96/12/73 95/6/42 89/2/44
f 83/14/28 82/4/23 76/13/24
f 83/14/28 91/11/74 90/3/46 82/4/23
f 91/11/74 96/10/73 90/3/46
f 73/9/62 84/4/75 83/1/28 76/5/24
f 84/4/31 92/3/31 91/2/31 83/1/31
f 92/3/76 93/12/67 96/6/73 91/2/74
f 77/14/63 84/4/75 73/13/62
f 77/14/63 85/11/66 92/3/76 84/4/75
f 85/11/66 93/10/67 92/3/76
f 94/8/3 95/7/3 96/6/3 93/5/3

# 0 vertex

# 0 normal

# 0 texture coordinate

o side0_r
usemtl default
f 80/4/2 88/3/2 87/2/2 79/1/2

v 0 11.56608486175537 18.71431732177734
v 0 -11.56608486175537 18.71431732177734
v 18.71431732177734 0 11.56608486175537
v 18.71431732177734 0 -11.56608486175537
v 0 11.56608486175537 -18.71431732177734
v 0 -11.56608486175537 -18.71431732177734
v -18.71431732177734 0 -11.56608486175537
v -18.71431732177734 0 11.56608486175537
v 11.56608486175537 18.71431732177734 0
v -11.56608486175537 18.71431732177734 0
v -11.56608486175537 -18.71431732177734 0
v 11.56608486175537 -18.71431732177734 0
# 12 vertices

vn 0 0.93417233228683 0.35682210326195
vn 0.57735025882721 0.57735025882721 0.57735025882721
vn 0.93417233228683 0.35682210326195 0
vn 0.57735025882721 0.57735025882721 -0.57735025882721
vn 0 0.93417233228683 -0.35682210326195
vn -0.57735025882721 0.57735025882721 -0.57735025882721
vn -0.93417233228683 0.35682210326195 0
vn -0.57735025882721 0.57735025882721 0.57735025882721
vn 0 -0.93417233228683 0.35682210326195
vn 0.57735025882721 -0.57735025882721 0.57735025882721
vn 0.93417233228683 -0.35682210326195 0
vn 0.57735025882721 -0.57735025882721 -0.57735025882721
vn 0 -0.93417233228683 -0.35682210326195
vn -0.57735025882721 -0.57735025882721 -0.57735025882721
vn -0.93417233228683 -0.35682210326195 0
vn -0.57735025882721 -0.57735025882721 0.57735025882721
vn -0.35682210326195 0 0.93417233228683
vn 0.35682210326195 0 0.93417233228683
vn 0.35682210326195 0 -0.93417233228683
vn -0.35682210326195 0 -0.93417233228683
# 20 normals

vt 0.5 0 0
# 1 texture coordinate

o center
usemtl default
f 97/15/77 105/7/77 106/6/77
f 97/15/78 99/7/78 105/6/78
f 99/15/79 100/7/79 105/6/79
f 100/15/80 101/7/80 105/6/80
f 101/15/81 106/7/81 105/6/81
f 103/15/82 106/7/82 101/6/82
f 104/15/83 106/7/83 103/6/83
f 104/15/84 97/7/84 106/6/84
f 98/15/85 107/7/85 108/6/85
f 98/15/86 108/7/86 99/6/86
f 108/15/87 100/7/87 99/6/87
f 108/15/88 102/7/88 100/6/88
f 108/15/89 107/7/89 102/6/89
f 107/15/90 103/7/90 102/6/90
f 107/15/91 104/7/91 103/6/91
f 107/15/92 98/7/92 104/6/92
f 97/15/93 104/7/93 98/6/93
f 97/15/94 98/7/94 99/6/94
f 100/15/95 102/7/95 101/6/95
f 102/15/96 103/7/96 101/6/96

v 22.75 22 -11.75
v 32.25 22 -11.75
v 32.25 22 -21.25
v 22.75 22 -21.25
v 22.75 22.75 -11
v 32.25 22.75 -11
v 33 22.75 -11.75
v 33 22.75 -21.25
v 32.25 22.75 -22
v 22.75 22.75 -22
v 22 22.75 -21.25
v 22 22.75 -11.75
v 22.75 32.25 -11
v 32.25 32.25 -11
v 33 32.25 -11.75
v 33 32.25 -21.25
v 32.25 32.25 -22
v 22.75 32.25 -22
v 22 32.25 -21.25
v 22 32.25 -11.75
v 22.75 33 -11.75
v 32.25 33 -11.75
v 32.25 33 -21.25
v 22.75 33 -21.25
# 24 vertices

vn -0.47650992870331 0.47650992870331 0.73883461952209
vn -0.47651022672653 0.73883390426636 0.47651076316834
vn 0.47651022672653 0.73883390426636 0.47651076316834
vn 0.47650992870331 0.47650992870331 0.73883461952209
vn 0.73883390426636 -0.47651022672653 0.47651076316834
vn 0.73883390426636 0.47651022672653 0.47651076316834
vn -0.4765103161335 0.73883414268494 -0.4765103161335
vn -0.73883414268494 0.4765103161335 -0.4765103161335
vn -0.73883390426636 0.47651022672653 0.47651076316834
# 9 normals

# 0 texture coordinate

o edge24
usemtl default
f 110/9/35 114/4/34 113/1/33 109/5/32
f 114/4/1 122/3/1 121/2/1 113/1/1
f 122/3/100 130/12/99 129/6/98 121/2/97
f 115/14/101 114/4/34 110/13/35
f 115/14/101 123/11/102 122/3/100 114/4/34
f 123/11/102 130/10/99 122/3/100
f 111/9/17 116/4/16 115/1/101 110/5/35
f 112/5/18 111/8/18 110/7/18 109/6/18
f 124/3/20 131/12/19 130/6/99 123/2/102
f 117/14/21 116/4/16 111/13/17
f 117/14/21 125/11/22 124/3/20 116/4/16
f 125/11/22 131/10/19 124/3/20
f 112/9/24 118/4/23 117/1/21 111/5/17
f 118/4/25 126/3/25 125/2/25 117/1/25
f 126/3/27 132/12/103 131/6/19 125/2/22
f 119/14/28 118/4/23 112/13/24
f 119/14/28 127/11/104 126/3/27 118/4/23
f 127/11/104 132/10/103 126/3/27
f 109/9/32 120/4/48 119/1/28 112/5/24
f 120/4/31 128/3/31 127/2/31 119/1/31
f 128/3/105 129/12/98 132/6/103 127/2/104
f 113/14/33 120/4/48 109/13/32
f 113/14/33 121/11/97 128/3/105 120/4/48
f 121/11/97 129/10/98 128/3/105

# 0 vertex

# 0 normal

# 0 texture coordinate

o edge24_r
usemtl default
f 116/4/2 124/3/2 123/2/2 115/1/2

# 0 vertex

# 0 normal

# 0 texture coordinate

o edge24_u
usemtl default
f 130/8/3 131/7/3 132/6/3 129/5/3

v 33 22.75 -0.75
v 33 22.75 -10.25
v 33 32.25 -0.75
v 33 32.25 -10.25
# 4 vertices

# 0 normal

# 0 texture coordinate

o edge0_r
usemtl default
f 134/4/2 136/3/2 135/2/2 133/1/2

v 22.75 33 -0.75
v 32.25 33 -0.75
v 32.25 33 -10.25
v 22.75 33 -10.25
# 4 vertices

# 0 normal

# 0 texture coordinate

o edge0_u
usemtl default
f 138/8/3 139/7/3 140/6/3 137/5/3

v 22.75 22 -0.75
v 32.25 22 -0.75
v 32.25 22 -10.25
v 22.75 22 -10.25
v 22.75 22.75 0
v 32.25 22.75 0
v 32.25 22.75 -11
v 22.75 22.75 -11
v 22 22.75 -10.25
v 22 22.75 -0.75
v 22.75 32.25 0
v 32.25 32.25 0
v 32.25 32.25 -11
v 22.75 32.25 -11
v 22 32.25 -10.25
v 22 32.25 -0.75
# 16 vertices

vn -0.47651016712189 -0.47651016712189 0.73883426189423
vn 0.47651016712189 -0.47651016712189 0.73883426189423
vn -0.47651016712189 0.47651016712189 0.73883426189423
vn -0.47651028633118 0.73883402347565 0.47651046514511
vn 0.47651028633118 0.73883402347565 0.47651046514511
vn 0.47651016712189 0.47651016712189 0.73883426189423
vn 0.73883402347565 -0.47651028633118 0.47651046514511
vn 0.73883402347565 0.47651028633118 0.47651046514511
vn -0.73883402347565 -0.47651028633118 0.47651046514511
vn -0.73883402347565 0.47651028633118 0.47651046514511
# 10 normals

# 0 texture coordinate

o edge0
usemtl default
f 142/9/65 146/4/107 145/1/106 141/5/62
f 146/4/1 152/3/1 151/2/1 145/1/1
f 152/3/111 138/12/110 137/6/109 151/2/108
f 133/14/112 146/4/107 142/13/65
f 133/14/112 135/11/113 152/3/111 146/4/107
f 135/11/113 138/10/110 152/3/111
f 143/9/17 134/4/16 133/1/112 142/5/65
f 144/5/18 143/8/18 142/7/18 141/6/18
f 136/3/20 139/12/19 138/6/110 135/2/113
f 147/14/21 134/4/16 143/13/17
f 147/14/21 153/11/22 136/3/20 134/4/16
f 153/11/22 139/10/19 136/3/20
f 144/9/24 148/4/23 147/1/21 143/5/17
f 148/4/25 154/3/25 153/2/25 147/1/25
f 154/3/27 140/12/103 139/6/19 153/2/22
f 149/14/28 148/4/23 144/13/24
f 149/14/28 155/11/104 154/3/27 148/4/23
f 155/11/104 140/10/103 154/3/27
f 141/9/62 150/4/114 149/1/28 144/5/24
f 150/4/31 156/3/31 155/2/31 149/1/31
f 156/3/115 137/12/109 140/6/103 155/2/104
f 145/14/106 150/4/114 141/13/62
f 145/14/106 151/11/108 156/3/115 150/4/114
f 151/11/108 137/10/109 156/3/115

