# WaveFront *.obj file

o edge
v 26 9 8
v 26 10 9
v 10 10 9
v 10 9 8
v 26 26 9
v 10 26 9
v 26 27 8
v 10 27 8
v 27 10 8
v 27 26 8
v 26 9 -8
v 27 10 -8
v 10 9 -8
v 27 26 -8
v 26 27 -8
v 26 10 -9
v 26 26 -9
v 10 10 -9
v 10 26 -9
v 10 27 -8
v 9 10 -8
v 9 26 -8
v 9 10 8
v 9 26 8
# 24 vertices

vn 0.47651 -0.738834 0.476511
vn 0.47651 -0.47651 0.738835
vn -0.47651 -0.47651 0.738834
vn -0.47651 -0.738834 0.47651
vn 0 0 1
vn 0.47651 0.47651 0.738835
vn 0.47651 0.738834 0.476511
vn -0.476511 0.738834 0.476511
vn -0.47651 0.47651 0.738835
vn 0.738834 -0.476511 0.476511
vn 0.738834 0.47651 0.476511
vn 0.47651 -0.738834 -0.476511
vn 0.738834 -0.476511 -0.476511
vn 0 -1 0
vn 0.738834 0.47651 -0.476511
vn 0.47651 0.738834 -0.476511
vn 0.47651 -0.47651 -0.738835
vn 0.47651 0.47651 -0.738835
vn -0.47651 -0.738834 -0.47651
vn -0.47651 -0.47651 -0.738834
vn 0 0 -1
vn -0.47651 0.47651 -0.738835
vn -0.476511 0.738834 -0.476511
vn -0.738834 -0.47651 -0.47651
vn -0.738834 0.47651 -0.476511
vn -0.738834 -0.47651 0.47651
vn -1 0 0
vn -0.738834 0.47651 0.476511
# 28 normals

f -24//-28 -23//-27 -22//-26 -21//-25
f -23//-24 -20//-24 -19//-24 -22//-24
f -20//-23 -18//-22 -17//-21 -19//-20
f -16//-19 -23//-27 -24//-28
f -16//-19 -15//-18 -20//-23 -23//-27
f -15//-18 -18//-22 -20//-23
f -14//-17 -13//-16 -16//-19 -24//-28
f -12//-15 -14//-15 -24//-15 -21//-15
f -11//-14 -10//-13 -18//-22 -15//-18
f -9//-12 -13//-16 -14//-17
f -9//-12 -8//-11 -11//-14 -13//-16
f -8//-11 -10//-13 -11//-14
f -12//-10 -7//-9 -9//-12 -14//-17
f -7//-8 -6//-8 -8//-8 -9//-8
f -6//-7 -5//-6 -10//-13 -8//-11
f -4//-5 -7//-9 -12//-10
f -4//-5 -3//-4 -6//-7 -7//-9
f -3//-4 -5//-6 -6//-7
f -21//-25 -2//-3 -4//-5 -12//-10
f -2//-2 -1//-2 -3//-2 -4//-2
f -1//-1 -17//-21 -5//-6 -3//-4
f -22//-26 -2//-3 -21//-25
f -22//-26 -19//-20 -1//-1 -2//-3
f -19//-20 -17//-21 -1//-1
# 24 faces

o side
v 26 -9 8
v 26 -8 9
v 10 -8 9
v 10 -9 8
v 26 8 9
v 10 8 9
v 26 9 8
v 10 9 8
v 27 -8 8
v 27 8 8
v 26 -9 -8
v 27 -8 -8
v 10 -9 -8
v 27 8 -8
v 26 9 -8
v 26 -8 -9
v 26 8 -9
v 10 -8 -9
v 10 8 -9
v 10 9 -8
v 9 -8 -8
v 9 8 -8
v 9 -8 8
v 9 8 8
# 24 vertices

vn 0.47651 -0.738834 0.47651
vn 0.47651 -0.47651 0.738834
vn -0.47651 -0.47651 0.738834
vn -0.47651 -0.738834 0.47651
vn 0 0 1
vn 0.47651 0.47651 0.738834
vn 0.47651 0.738834 0.47651
vn -0.47651 0.738834 0.47651
vn -0.47651 0.47651 0.738834
vn 0.738834 -0.476511 0.476511
vn 0.738834 0.476511 0.476511
vn 0.47651 -0.738834 -0.47651
vn 0.738834 -0.476511 -0.476511
vn 0 -1 0
vn 0.738834 0.476511 -0.476511
vn 0.47651 0.738834 -0.47651
vn 0.47651 -0.47651 -0.738834
vn 0.47651 0.47651 -0.738834
vn -0.47651 -0.738834 -0.47651
vn -0.47651 -0.47651 -0.738834
vn 0 0 -1
vn -0.47651 0.47651 -0.738834
vn -0.47651 0.738834 -0.47651
vn -0.738834 -0.47651 -0.47651
vn -0.738834 0.47651 -0.47651
vn -0.738834 -0.47651 0.47651
vn -1 0 0
vn -0.738834 0.47651 0.47651
vn 0 1 0
# 29 normals

f -24//-29 -23//-28 -22//-27 -21//-26
f -23//-25 -20//-25 -19//-25 -22//-25
f -20//-24 -18//-23 -17//-22 -19//-21
f -16//-20 -23//-28 -24//-29
f -16//-20 -15//-19 -20//-24 -23//-28
f -15//-19 -18//-23 -20//-24
f -14//-18 -13//-17 -16//-20 -24//-29
f -12//-16 -14//-16 -24//-16 -21//-16
f -11//-15 -10//-14 -18//-23 -15//-19
f -9//-13 -13//-17 -14//-18
f -9//-13 -8//-12 -11//-15 -13//-17
f -8//-12 -10//-14 -11//-15
f -12//-11 -7//-10 -9//-13 -14//-18
f -7//-9 -6//-9 -8//-9 -9//-9
f -6//-8 -5//-7 -10//-14 -8//-12
f -4//-6 -7//-10 -12//-11
f -4//-6 -3//-5 -6//-8 -7//-10
f -3//-5 -5//-7 -6//-8
f -21//-26 -2//-4 -4//-6 -12//-11
f -2//-3 -1//-3 -3//-3 -4//-3
f -1//-2 -17//-22 -5//-7 -3//-5
f -22//-27 -2//-4 -21//-26
f -22//-27 -19//-21 -1//-2 -2//-4
f -19//-21 -17//-22 -1//-2
f -18//-1 -10//-1 -5//-1 -17//-1
# 25 faces

o corner
v 26 9 26
v 26 10 27
v 10 10 27
v 10 9 26
v 10 26 27
v 10 27 26
v 9 26 26
v 26 26 27
v 26 27 26
v 27 10 26
v 27 26 26
v 26 9 10
v 27 10 10
v 10 9 10
v 27 26 10
v 26 27 10
v 26 10 9
v 26 26 9
v 10 10 9
v 10 26 9
v 10 27 10
v 9 10 10
v 9 26 10
v 9 10 26
# 24 vertices

vn 0.47651 -0.738835 0.47651
vn 0.47651 -0.476511 0.738834
vn -0.47651 -0.47651 0.738834
vn -0.47651 -0.738834 0.47651
vn -0.47651 0.47651 0.738834
vn -0.47651 0.738834 0.47651
vn -0.738834 0.47651 0.47651
vn 0.47651 0.47651 0.738834
vn 0.47651 0.738834 0.47651
vn 0.738834 -0.476511 0.47651
vn 0.738834 0.47651 0.47651
vn 0.47651 -0.738834 -0.47651
vn 0.738834 -0.476511 -0.476511
vn 0 -1 0
vn 0.738834 0.47651 -0.476511
vn 0.47651 0.738834 -0.476511
vn 0.47651 -0.47651 -0.738834
vn 0.47651 0.47651 -0.738835
vn -0.47651 -0.738834 -0.47651
vn -0.47651 -0.47651 -0.738834
vn 0 0 -1
vn -0.47651 0.47651 -0.738834
vn -0.47651 0.738834 -0.476511
vn -0.738834 -0.47651 -0.47651
vn -0.738834 0.47651 -0.47651
vn -0.738834 -0.47651 0.47651
vn -1 0 0
# 27 normals

f -24//-27 -23//-26 -22//-25 -21//-24
f -20//-23 -19//-22 -18//-21
f -17//-20 -16//-19 -19//-22 -20//-23
f -15//-18 -23//-26 -24//-27
f -15//-18 -14//-17 -17//-20 -23//-26
f -14//-17 -16//-19 -17//-20
f -13//-16 -12//-15 -15//-18 -24//-27
f -11//-14 -13//-14 -24//-14 -21//-14
f -10//-13 -9//-12 -16//-19 -14//-17
f -8//-11 -12//-15 -13//-16
f -8//-11 -7//-10 -10//-13 -12//-15
f -7//-10 -9//-12 -10//-13
f -11//-9 -6//-8 -8//-11 -13//-16
f -6//-7 -5//-7 -7//-7 -8//-7
f -5//-6 -4//-5 -9//-12 -7//-10
f -3//-4 -6//-8 -11//-9
f -3//-4 -2//-3 -5//-6 -6//-8
f -2//-3 -4//-5 -5//-6
f -21//-24 -1//-2 -3//-4 -11//-9
f -1//-1 -18//-1 -2//-1 -3//-1
f -18//-21 -19//-22 -4//-5 -2//-3
f -22//-25 -1//-2 -21//-24
f -22//-25 -20//-23 -18//-21 -1//-2
# 23 faces

o corner_u
v 26 27 26
v 26 27 10
v 10 27 10
v 10 27 26
# 4 vertices

vn 0 1 0
# 1 normals

vt 0.95 0.05 0.05
vt 0.95 0.95 0.05
vt 0.05 0.95 0.05
vt 0.05 0.05 0.05
# 4 texture coordinates

f -4/-4/-1 -3/-3/-1 -2/-2/-1 -1/-1/-1
# 1 faces

o corner_f
v 26 10 27
v 26 26 27
v 10 26 27
v 10 10 27
# 4 vertices

vn 0 0 1
# 1 normals

vt 0.95 0.05 0.05
vt 0.95 0.95 0.05
vt 0.05 0.95 0.05
vt 0.05 0.05 0.05
# 4 texture coordinates

f -4/-4/-1 -3/-3/-1 -2/-2/-1 -1/-1/-1
# 1 faces

o corner_r
v 27 10 10
v 27 26 10
v 27 26 26
v 27 10 26
# 4 vertices

vn 1 0 0
# 1 normals

vt 0.95 0.05 0.05
vt 0.95 0.95 0.05
vt 0.05 0.95 0.05
vt 0.05 0.05 0.05
# 4 texture coordinates

f -4/-4/-1 -3/-3/-1 -2/-2/-1 -1/-1/-1
# 1 faces

o edge_u
v 26 27 8
v 26 27 -8
v 10 27 -8
v 10 27 8
# 4 vertices

vn 0 1 0
# 1 normals

vt 0.95 0.05 0.05
vt 0.95 0.95 0.05
vt 0.05 0.95 0.05
vt 0.05 0.05 0.05
# 4 texture coordinates

f -4/-4/-1 -3/-3/-1 -2/-2/-1 -1/-1/-1
# 1 faces

o edge_r
v 27 10 -8
v 27 26 -8
v 27 26 8
v 27 10 8
# 4 vertices

vn 1 0 0
# 1 normals

vt 0.95 0.05 0.05
vt 0.95 0.95 0.05
vt 0.05 0.95 0.05
vt 0.05 0.05 0.05
# 4 texture coordinates

f -4/-4/-1 -3/-3/-1 -2/-2/-1 -1/-1/-1
# 1 faces

o side_r
v 26.9 -8 -8
v 26.9 8 -8
v 26.9 8 8
v 26.9 -8 8
# 4 vertices

vn 1 0 0
# 1 normals

vt 0.95 0.05 0.05
vt 0.95 0.95 0.05
vt 0.05 0.95 0.05
vt 0.05 0.05 0.05
# 4 texture coordinates

f -4/-4/-1 -3/-3/-1 -2/-2/-1 -1/-1/-1
# 1 faces

o center
v 0 4.73158 7.655857
v 4.73158 7.655857 0
v -4.73158 7.655857 0
v 7.655857 0 4.73158
v 7.655857 0 -4.73158
v 0 4.73158 -7.655857
v -7.655857 0 -4.73158
v -7.655857 0 4.73158
v 0 -4.73158 7.655857
v -4.73158 -7.655857 0
v 4.73158 -7.655857 0
v 0 -4.73158 -7.655857
# 12 vertices

vn 0 0.934172 0.356822
vn 0.57735 0.57735 0.57735
vn 0.934172 0.356822 0
vn 0.57735 0.57735 -0.57735
vn 0 0.934172 -0.356822
vn -0.57735 0.57735 -0.57735
vn -0.934172 0.356822 0
vn -0.57735 0.57735 0.57735
vn 0 -0.934172 0.356822
vn 0.57735 -0.57735 0.57735
vn 0.934172 -0.356822 0
vn 0.57735 -0.57735 -0.57735
vn 0 -0.934172 -0.356822
vn -0.57735 -0.57735 -0.57735
vn -0.934172 -0.356822 0
vn -0.57735 -0.57735 0.57735
vn -0.356822 0 0.934172
vn 0.356822 0 0.934172
vn 0.356822 0 -0.934172
vn -0.356822 0 -0.934172
# 20 normals

f -12//-20 -11//-20 -10//-20
f -12//-19 -9//-19 -11//-19
f -9//-18 -8//-18 -11//-18
f -8//-17 -7//-17 -11//-17
f -7//-16 -10//-16 -11//-16
f -6//-15 -10//-15 -7//-15
f -5//-14 -10//-14 -6//-14
f -5//-13 -12//-13 -10//-13
f -4//-12 -3//-12 -2//-12
f -4//-11 -2//-11 -9//-11
f -2//-10 -8//-10 -9//-10
f -2//-9 -1//-9 -8//-9
f -2//-8 -3//-8 -1//-8
f -3//-7 -6//-7 -1//-7
f -3//-6 -5//-6 -6//-6
f -3//-5 -4//-5 -5//-5
f -12//-4 -5//-4 -4//-4
f -12//-3 -4//-3 -9//-3
f -8//-2 -1//-2 -7//-2
f -1//-1 -6//-1 -7//-1
# 20 faces
