# WaveFront *.obj file

o corner
v 26 8.999999 26
v 26 10 27
v 10 10 27
v 10 8.999999 26
v 8.999999 13.5 10
v 4.5 13.5 4.5
v 4.5 13.5 13.5
v 26 26 27
v 26 27 26
v 10 27 26
v 10 26 27
v 27 10 26
v 27 26 26
v 26 8.999999 10
v 27 10 10
v 13.5 4.5 4.5
v 13.5 4.5 13.5
v 4.5 4.5 13.5
v 4.5 4.5 4.5
v 27 26 10
v 26 27 10
v 26 10 8.999999
v 26 26 8.999999
v 13.5 10 8.999999
v 13.5 8.999999 10
v 13.5 13.5 8.999999
v 13.5 8.999999 13.5
v 10 26 8.999999
v 10 27 10
v 8.999999 26 10
v 10 13.5 8.999999
v 10 8.999999 13.5
v 8.999999 10 26
v 8.999999 10 13.5
v 8.999999 26 26
v 8.999999 13.5 13.5
v 13.5 13.5 4.5
# 37 vertices

vn 0.29289 -0.910182 0.29289
vn 0.47651 -0.476511 0.738834
vn -0.476511 -0.476511 0.738834
vn -0.367001 -0.854764 0.367001
vn 0 1 0
vn 0.47651 0.47651 0.738834
vn 0.47651 0.738834 0.47651
vn -0.476511 0.738834 0.47651
vn -0.476511 0.47651 0.738834
vn 0.738834 -0.476511 0.47651
vn 0.738834 0.47651 0.47651
vn 0.367001 -0.854764 -0.367001
vn 0.738834 -0.476511 -0.476511
vn 0 -1 0
vn 0.738834 0.47651 -0.476511
vn 0.47651 0.738834 -0.476511
vn 0.367001 -0.367001 -0.854764
vn 0.29289 0.29289 -0.910182
vn 0 -0.382683 -0.92388
vn 0 -0.92388 -0.382683
vn 0 0 -1
vn -0.367001 0.367001 -0.854764
vn -0.476511 0.738834 -0.476511
vn -0.92388 0 -0.382683
vn -0.854764 0.367001 -0.367001
vn -0.382683 0 -0.92388
vn -0.382683 -0.92388 0
vn -0.854764 -0.367001 0.367001
vn -0.92388 -0.382683 0
vn -0.910182 0.29289 0.29289
vn -1 0 0
vn 0 0 1
vn 1 0 0
# 33 normals

f -37//-33 -36//-32 -35//-31 -34//-30
f -33//-29 -32//-29 -31//-29
f -30//-28 -29//-27 -28//-26 -27//-25
f -26//-24 -36//-32 -37//-33
f -26//-24 -25//-23 -30//-28 -36//-32
f -25//-23 -29//-27 -30//-28
f -24//-22 -23//-21 -26//-24 -37//-33
f -22//-20 -21//-20 -20//-20 -19//-20
f -18//-19 -17//-18 -29//-27 -25//-23
f -16//-17 -23//-21 -24//-22
f -16//-17 -15//-16 -18//-19 -23//-21
f -15//-16 -17//-18 -18//-19
f -14//-15 -16//-17 -24//-22 -13//-14
f -15//-16 -16//-17 -14//-15 -12//-13
f -13//-14 -24//-22 -37//-33 -11//-20
f -10//-12 -9//-11 -17//-18 -15//-16
f -33//-10 -8//-9 -10//-12 -7//-8
f -8//-9 -9//-11 -10//-12
f -6//-7 -34//-30 -5//-6 -4//-5
f -3//-4 -8//-9 -33//-10 -2//-3
f -7//-8 -10//-12 -15//-16 -12//-13
f -3//-4 -28//-26 -9//-11 -8//-9
f -35//-31 -5//-6 -34//-30
f -35//-31 -27//-25 -3//-4 -5//-6
f -27//-25 -28//-26 -3//-4
f -7//-29 -1//-29 -32//-29
f -11//-20 -37//-33 -34//-30 -6//-7
f -4//-5 -5//-6 -3//-4 -2//-3
f -33//-29 -7//-29 -32//-29
f -2//-29 -33//-29 -31//-29
f -20//-2 -21//-2 -11//-2 -6//-2
f -4//-2 -2//-2 -31//-2 -20//-2
f -7//-29 -12//-29 -1//-29
f -6//-2 -4//-2 -20//-2
f -13//-1 -11//-1 -21//-1 -22//-1
f -22//-1 -1//-1 -12//-1 -14//-1
f -14//-1 -13//-1 -22//-1
f -19//-13 -32//-13 -1//-13 -22//-13
f -20//-3 -31//-3 -32//-3 -19//-3
# 39 faces

o corner_u
v 26 27 26
v 26 27 10
v 10 27 10
v 10 27 26
# 4 vertices

vn 0 1 0
# 1 normals

vt 0.95 0.05 0.05
vt 0.95 0.95 0.05
vt 0.05 0.95 0.05
vt 0.05 0.05 0.05
# 4 texture coordinates

f -4/-4/-1 -3/-3/-1 -2/-2/-1 -1/-1/-1
# 1 faces

o corner_f
v 26 10 27
v 26 26 27
v 10 26 27
v 10 10 27
# 4 vertices

vn 0 0 1
# 1 normals

vt 0.95 0.05 0.05
vt 0.95 0.95 0.05
vt 0.05 0.95 0.05
vt 0.05 0.05 0.05
# 4 texture coordinates

f -4/-4/-1 -3/-3/-1 -2/-2/-1 -1/-1/-1
# 1 faces

o corner_r
v 27 10 10
v 27 26 10
v 27 26 26
v 27 10 26
# 4 vertices

vn 1 0 0
# 1 normals

vt 0.95 0.05 0.05
vt 0.95 0.95 0.05
vt 0.05 0.95 0.05
vt 0.05 0.05 0.05
# 4 texture coordinates

f -4/-4/-1 -3/-3/-1 -2/-2/-1 -1/-1/-1
# 1 faces

o edge
v 8.999999 10 4.5
v 9 13.5 4.5
v 4.5 13.5 4.5
v 4.5 4.5 4.5
v 10 8.999999 4.5
v 13.5 4.5 4.5
v 13.5 8.999999 4.5
v 13.5 4.5 -4.5
v 13.5 8.999999 -4.5
v 4.5 4.5 -4.5
v 10 8.999999 -4.5
v 8.999999 10 -4.5
v 8.999999 13.5 -4.5
v 4.5 13.5 -4.5
v 26 8.999999 8
v 26 10 9
v 10 10 9
v 10 8.999999 8
v 26 26 9
v 10 26 9
v 26 27 8
v 10 27 8
v 27 10 8
v 27 26 8
v 26 8.999999 -8
v 27 10 -8
v 27 26 -8
v 26 27 -8
v 26 10 -9
v 26 26 -9
v 10 8.999999 -8
v 10 10 -9
v 10 26 -9
v 10 27 -8
v 8.999999 10 -8
v 8.999999 26 -8
v 8.999999 10 8
v 8.999999 26 8
# 38 vertices

vn 0 0 1
vn 1 0 0
vn 0 0 -1
vn -1 0 0
vn 0 1 0
vn 0 -1 0
vn 0.29289 -0.910182 0.29289
vn 0.367001 -0.367001 0.854764
vn -0.367001 -0.367001 0.854763
vn -0.367001 -0.854763 0.367001
vn 0.367001 0.367001 0.854764
vn -0.367001 0.367001 0.854764
vn 0.47651 0.738834 0.476511
vn -0.476511 0.738834 0.476511
vn 0.738834 -0.476511 0.476511
vn 0.738834 0.47651 0.476511
vn 0.29289 -0.910182 -0.29289
vn 0.738834 -0.476511 -0.476511
vn -0.382683 -0.92388 0
vn 0.738834 0.47651 -0.476511
vn 0.47651 0.738834 -0.476511
vn 0.367001 -0.367001 -0.854764
vn 0.367001 0.367001 -0.854764
vn -0.367001 -0.854763 -0.367001
vn -0.367001 -0.367001 -0.854763
vn -0.367001 0.367001 -0.854764
vn -0.476511 0.738834 -0.476511
vn -0.854763 -0.367001 -0.367001
vn -0.910182 0.29289 -0.29289
vn -0.854763 -0.367001 0.367001
vn -0.92388 -0.382683 0
vn -0.910182 0.29289 0.29289
# 32 normals

f -38//-32 -37//-32 -36//-32 -35//-32
f -34//-32 -38//-32 -35//-32
f -35//-32 -33//-32 -32//-32 -34//-32
f -32//-31 -33//-31 -31//-31 -30//-31
f -29//-30 -28//-30 -30//-30 -31//-30
f -27//-30 -28//-30 -29//-30
f -26//-30 -27//-30 -29//-30 -25//-30
f -35//-29 -36//-29 -25//-29 -29//-29
f -26//-28 -25//-28 -36//-28 -37//-28
f -31//-27 -33//-27 -35//-27 -29//-27
f -24//-26 -23//-25 -22//-24 -21//-23
f -23//-25 -20//-22 -19//-21 -22//-24
f -20//-22 -18//-20 -17//-19 -19//-21
f -16//-18 -23//-25 -24//-26
f -16//-18 -15//-17 -20//-22 -23//-25
f -15//-17 -18//-20 -20//-22
f -14//-16 -13//-15 -16//-18 -24//-26
f -24//-26 -21//-23 -34//-14 -32//-27
f -12//-13 -11//-12 -18//-20 -15//-17
f -10//-11 -13//-15 -14//-16
f -10//-11 -9//-10 -12//-13 -13//-15
f -9//-10 -11//-12 -12//-13
f -8//-9 -7//-8 -10//-11 -14//-16
f -7//-8 -6//-7 -9//-10 -10//-11
f -6//-7 -5//-6 -11//-12 -9//-10
f -4//-5 -7//-8 -8//-9
f -4//-5 -3//-4 -6//-7 -7//-8
f -3//-4 -5//-6 -6//-7
f -34//-14 -21//-23 -2//-3 -38//-2
f -27//-2 -4//-5 -8//-9 -28//-14
f -26//-29 -37//-29 -1//-1 -3//-4
f -38//-2 -2//-3 -1//-1 -37//-29
f -3//-4 -4//-5 -27//-2 -26//-29
f -1//-1 -17//-19 -5//-6 -3//-4
f -22//-24 -2//-3 -21//-23
f -22//-24 -19//-21 -1//-1 -2//-3
f -19//-21 -17//-19 -1//-1
f -28//-14 -8//-9 -14//-16 -30//-27
f -32//-27 -30//-27 -14//-16 -24//-26
# 39 faces

o edge_u
v 26 27 8
v 26 27 -8
v 10 27 -8
v 10 27 8
# 4 vertices

vn 0 1 0
# 1 normals

vt 0.95 0.05 0.05
vt 0.95 0.95 0.05
vt 0.05 0.95 0.05
vt 0.05 0.05 0.05
# 4 texture coordinates

f -4/-4/-1 -3/-3/-1 -2/-2/-1 -1/-1/-1
# 1 faces

o edge_r
v 27 10 -8
v 27 26 -8
v 27 26 8
v 27 10 8
# 4 vertices

vn 1 0 0
# 1 normals

vt 0.95 0.05 0.05
vt 0.95 0.95 0.05
vt 0.05 0.95 0.05
vt 0.05 0.05 0.05
# 4 texture coordinates

f -4/-4/-1 -3/-3/-1 -2/-2/-1 -1/-1/-1
# 1 faces

o side
v 25.9 -9 8
v 25.9 -8 9
v 17.9 -8 9
v 17.9 -9 8
v 25.9 8 9
v 17.9 8 9
v 25.9 9 8
v 17.9 9 8
v 26.9 -8 8
v 26.9 8 8
v 25.9 -9 -8
v 26.9 -8 -8
v 16.9 -3.18198 3.18198
v 8.999999 -3.18198 3.18198
v 8.999999 -4.5 0
v 16.9 -4.5 0
v 26.9 8 -8
v 25.9 9 -8
v 25.9 -8 -9
v 25.9 8 -9
v 17.9 -9 -8
v 17.9 -8 -9
v 17.9 8 -9
v 17.9 9 -8
v 16.9 -8 -8
v 16.9 8 -8
v 16.9 -8 8
v 16.9 3.18198 -3.18198
v 16.9 4.5 0
v 16.9 0 -4.5
v 16.9 8 8
v 16.9 0 4.5
v 16.9 -3.18198 -3.18198
v 16.9 3.18198 3.18198
v 8.999999 0 4.5
v 8.999999 3.18198 3.18198
v 8.999999 4.5 0
v 8.999999 3.18198 -3.18198
v 8.999999 0 -4.5
v 8.999999 -3.18198 -3.18198
# 40 vertices

vn 0.367001 -0.854764 0.367001
vn 0.367001 -0.367001 0.854764
vn -0.367001 -0.367001 0.854764
vn -0.367001 -0.854764 0.367001
vn 0.367001 0.367001 0.854764
vn -0.367001 0.367001 0.854764
vn 0.367001 0.854764 0.367001
vn -0.367001 0.854764 0.367001
vn 0.738834 -0.476511 0.476511
vn 0.738834 0.476511 0.476511
vn 0.367001 -0.854764 -0.367001
vn 0.738834 -0.476511 -0.476511
vn 0 -0.707107 0.707107
vn 0 -1 0
vn 0.738834 0.476511 -0.476511
vn 0.367001 0.854764 -0.367001
vn 0.367001 -0.367001 -0.854764
vn 0.367001 0.367001 -0.854764
vn -0.367001 -0.854764 -0.367001
vn -0.367001 -0.367001 -0.854764
vn -0.367001 0.367001 -0.854764
vn -0.367001 0.854764 -0.367001
vn -0.956986 -0.205156 -0.205156
vn -0.956986 0.205156 -0.205156
vn -0.956986 -0.205156 0.205156
vn -1 0 0
vn -0.956986 0.205156 0.205156
vn 0 -0.707107 -0.707107
vn 0 0 -1
vn 0 0.707107 -0.707107
vn 0 1 0
vn 0 0.707107 0.707107
vn 0 0 1
# 33 normals

f -40//-33 -39//-32 -38//-31 -37//-30
f -39//-32 -36//-29 -35//-28 -38//-31
f -36//-29 -34//-27 -33//-26 -35//-28
f -32//-25 -39//-32 -40//-33
f -32//-25 -31//-24 -36//-29 -39//-32
f -31//-24 -34//-27 -36//-29
f -30//-23 -29//-22 -32//-25 -40//-33
f -28//-21 -27//-21 -26//-20 -25//-20
f -24//-19 -23//-18 -34//-27 -31//-24
f -22//-17 -29//-22 -30//-23
f -22//-17 -21//-16 -24//-19 -29//-22
f -21//-16 -23//-18 -24//-19
f -20//-15 -19//-14 -22//-17 -30//-23
f -19//-14 -18//-13 -21//-16 -22//-17
f -18//-13 -17//-12 -23//-18 -21//-16
f -16//-11 -19//-14 -20//-15
f -16//-11 -15//-10 -18//-13 -19//-14
f -15//-10 -17//-12 -18//-13
f -37//-30 -14//-9 -16//-11 -20//-15
f -25//-8 -16//-11 -14//-9
f -13//-8 -12//-8 -15//-10
f -11//-8 -13//-8 -15//-10
f -10//-7 -9//-8 -14//-9
f -28//-8 -25//-8 -14//-9
f -25//-8 -8//-8 -16//-11
f -12//-8 -10//-7 -15//-10
f -9//-8 -28//-8 -14//-9
f -11//-8 -15//-10 -16//-11
f -8//-8 -11//-8 -16//-11
f -7//-8 -9//-8 -10//-7
f -12//-8 -7//-8 -10//-7
f -10//-7 -33//-26 -17//-12 -15//-10
f -38//-31 -14//-9 -37//-30
f -38//-31 -35//-28 -10//-7 -14//-9
f -35//-28 -33//-26 -10//-7
f -34//-27 -23//-18 -17//-12 -33//-26
f -20//-15 -30//-23 -40//-33 -37//-30
f -6//-8 -5//-8 -4//-8 -3//-8 -2//-8 -1//-8 -26//-8 -27//-8
f -25//-20 -26//-20 -1//-6 -8//-6
f -8//-6 -1//-6 -2//-5 -11//-5
f -11//-5 -2//-5 -3//-4 -13//-4
f -13//-4 -3//-4 -4//-3 -12//-3
f -7//-2 -5//-2 -6//-1 -9//-1
f -12//-3 -4//-3 -5//-2 -7//-2
f -9//-1 -6//-1 -27//-21 -28//-21
# 45 faces

o side_r
v 26.9 -8 -8
v 26.9 8 -8
v 26.9 8 8
v 26.9 -8 8
# 4 vertices

vn 1 0 0
# 1 normals

vt 0.910602 0.082062 0
vt 0.910602 0.917938 0
vt 0 0.917938 0
vt 0 0.082062 0
# 4 texture coordinates

f -4/-4/-1 -3/-3/-1 -2/-2/-1 -1/-1/-1
# 1 faces

o center
v 0 -9 4.5
v -3.181981 -9 3.181981
v -4.5 -9 0
v -3.181981 -9 -3.181981
v 0 -9 -4.5
v 3.181981 -9 -3.181981
v 4.5 -9 0
v 3.181981 -9 3.181981
v 4.5 -4.5 0
v 3.181981 -3.181981 -3.181981
v 3.181981 3.181981 -3.181981
v 3.181981 9 -3.181981
v 4.5 9 0
v 4.5 4.5 0
v 0 9 -4.5
v -3.181981 9 -3.181981
v -4.5 9 0
v -3.181981 9 3.181981
v 0 9 4.5
v 3.181981 9 3.181981
v 0 4.5 -4.5
v 0 -4.5 -4.5
v -3.181981 3.181981 -3.181981
v -3.181981 -3.181981 -3.181981
v -4.5 -4.5 0
v -4.5 4.5 0
v 9 -4.5 0
v 9 -3.181981 -3.181981
v 9 0 -4.5
v 9 3.181981 -3.181981
v 9 4.5 0
v 9 3.181981 3.181981
v 9 0 4.5
v 9 -3.181981 3.181981
v -3.181981 -3.181981 3.181981
v -3.181981 3.181981 3.181981
v -9 3.181981 -3.181981
v -9 0 -4.5
v -9 -3.181981 -3.181981
v -9 -4.5 0
v -9 -3.181981 3.181981
v -9 0 4.5
v -9 3.181981 3.181981
v -9 4.5 0
v 3.181981 -3.181981 3.181981
v 4.5 0 4.5
v 0 -4.5 4.5
v 0 4.5 4.5
v 4.5 0 -4.5
v 3.181981 3.181981 3.181981
v -4.5 0 -4.5
v 0 -4.5 -9
v -3.181981 -3.181981 -9
v -4.5 0 -9
v -3.181981 3.181981 -9
v 0 4.5 -9
v 3.181981 3.181981 -9
v 4.5 0 -9
v 3.181981 -3.181981 -9
v 3.181981 3.181981 9
v 4.5 0 9
v 0 4.5 9
v -3.181981 3.181981 9
v -4.5 0 9
v -3.181981 -3.181981 9
v 0 -4.5 9
v 3.181981 -3.181981 9
v -4.5 0 4.5
# 68 vertices

vn 0 -1 0
vn 0.92388 0 -0.382683
vn 0 1 0
vn 0.382683 0 -0.92388
vn -0.382683 0 -0.92388
vn -0.92388 0 -0.382683
vn 1 0 0
vn -0.92388 0 0.382683
vn -1 0 0
vn 0 -0.382683 0.92388
vn -0.382683 0 0.92388
vn 0 -0.92388 0.382683
vn 0 0.382683 -0.92388
vn 0.382683 0 0.92388
vn 0.92388 0 0.382683
vn 0 0 -1
vn 0.92388 0.382683 0
vn 0 0 1
vn 0.382683 0.92388 0
vn -0.382683 0.92388 0
vn -0.92388 0.382683 0
vn -0.92388 -0.382683 0
vn 0 0.382683 0.92388
vn -0.382683 -0.92388 0
vn 0 0.92388 0.382683
vn 0.382683 -0.92388 0
vn 0 0.92388 -0.382683
vn 0.92388 -0.382683 0
vn 0 -0.92388 -0.382683
vn 0 -0.382683 -0.92388
# 30 normals

f -68//-30 -67//-30 -66//-30 -65//-30 -64//-30 -63//-30 -62//-30 -61//-30
f -60//-29 -62//-29 -63//-29 -59//-29
f -58//-29 -57//-29 -56//-29 -55//-29
f -57//-28 -54//-28 -53//-28 -52//-28 -51//-28 -50//-28 -49//-28 -56//-28
f -48//-27 -54//-27 -57//-27 -58//-27
f -59//-27 -63//-27 -64//-27 -47//-27
f -46//-26 -53//-26 -54//-26 -48//-26
f -47//-26 -64//-26 -65//-26 -45//-26
f -45//-25 -65//-25 -66//-25 -44//-25
f -43//-25 -52//-25 -53//-25 -46//-25
f -42//-24 -41//-24 -40//-24 -39//-24 -38//-24 -37//-24 -36//-24 -35//-24
f -44//-23 -66//-23 -67//-23 -34//-23
f -33//-23 -51//-23 -52//-23 -43//-23
f -32//-22 -31//-22 -30//-22 -29//-22 -28//-22 -27//-22 -26//-22 -25//-22
f -24//-21 -35//-21 -36//-21 -23//-21
f -34//-20 -67//-20 -68//-20 -22//-20
f -21//-20 -50//-20 -51//-20 -33//-20
f -34//-19 -28//-19 -29//-19 -44//-19
f -58//-18 -39//-18 -40//-18 -20//-18
f -22//-17 -68//-17 -61//-17 -24//-17
f -19//-17 -49//-17 -50//-17 -21//-17
f -60//-19 -42//-19 -35//-19 -24//-19
f -18//-18 -31//-18 -32//-18 -46//-18
f -24//-16 -61//-16 -62//-16 -60//-16
f -55//-16 -56//-16 -49//-16 -19//-16
f -17//-15 -16//-15 -15//-15 -14//-15 -13//-15 -12//-15 -11//-15 -10//-15
f -20//-14 -11//-14 -12//-14 -58//-14
f -19//-14 -9//-14 -8//-14 -23//-14
f -9//-13 -7//-13 -6//-13 -5//-13 -4//-13 -3//-13 -2//-13 -8//-13
f -58//-12 -12//-12 -13//-12 -48//-12
f -21//-12 -7//-12 -9//-12 -19//-12
f -33//-11 -6//-11 -7//-11 -21//-11
f -48//-11 -13//-11 -14//-11 -46//-11
f -46//-10 -14//-10 -15//-10 -18//-10
f -1//-10 -5//-10 -6//-10 -33//-10
f -18//-9 -15//-9 -16//-9 -45//-9
f -34//-9 -4//-9 -5//-9 -1//-9
f -33//-8 -26//-8 -27//-8 -1//-8
f -45//-7 -16//-7 -17//-7 -47//-7
f -22//-7 -3//-7 -4//-7 -34//-7
f -19//-6 -37//-6 -38//-6 -55//-6
f -23//-8 -36//-8 -37//-8 -19//-8
f -24//-5 -2//-5 -3//-5 -22//-5
f -47//-5 -17//-5 -10//-5 -59//-5
f -46//-4 -32//-4 -25//-4 -43//-4
f -1//-21 -27//-21 -28//-21 -34//-21
f -59//-3 -10//-3 -11//-3 -20//-3
f -23//-3 -8//-3 -2//-3 -24//-3
f -55//-4 -38//-4 -39//-4 -58//-4
f -44//-2 -29//-2 -30//-2 -45//-2
f -59//-2 -41//-2 -42//-2 -60//-2
f -43//-6 -25//-6 -26//-6 -33//-6
f -20//-1 -40//-1 -41//-1 -59//-1
f -45//-1 -30//-1 -31//-1 -18//-1
# 54 faces
